<svg width="138" height="13" viewBox="0 0 138 13" fill="none" xmlns="http://www.w3.org/2000/svg">
<path d="M2.688 10H0.84V1.67C0.84 0.689999 1.316 0.199999 2.268 0.199999H8.12C9.072 0.199999 9.548 0.689999 9.548 1.67V10H7.7V2.37C7.7 2.09 7.65333 1.90333 7.56 1.81C7.46667 1.71667 7.28 1.67 7 1.67H3.388C3.108 1.67 2.92133 1.71667 2.828 1.81C2.73467 1.90333 2.688 2.09 2.688 2.37V10ZM17.8666 10H13.7506C13.172 10 12.6913 9.92067 12.3086 9.762C11.9353 9.60333 11.6506 9.356 11.4546 9.02C11.2586 8.67467 11.1233 8.292 11.0486 7.872C10.9833 7.452 10.9506 6.92 10.9506 6.276C10.9506 4.83867 11.2213 3.84933 11.7626 3.308C12.3133 2.76667 13.2373 2.496 14.5346 2.496C15.692 2.496 16.574 2.71067 17.1806 3.14C17.7966 3.56 18.1046 4.32533 18.1046 5.436C18.1046 6.36933 17.722 6.836 16.9566 6.836H12.6446C12.6446 7.48 12.7473 7.96067 12.9526 8.278C13.1673 8.586 13.5966 8.74 14.2406 8.74H17.8666V10ZM12.6446 5.576H16.0466C16.2893 5.576 16.4106 5.43133 16.4106 5.142C16.4106 4.68467 16.2286 4.33933 15.8646 4.106C15.51 3.87267 15.0666 3.756 14.5346 3.756C13.844 3.756 13.354 3.90067 13.0646 4.19C12.7846 4.47 12.6446 4.932 12.6446 5.576ZM20.5727 2.58H23.1627C24.292 2.58 25.0807 2.89267 25.5287 3.518C25.9767 4.14333 26.2007 5.06267 26.2007 6.276C26.2007 7.48933 25.972 8.41333 25.5147 9.048C25.0667 9.68267 24.2827 10 23.1627 10H20.9507V12.38H19.3127V3.84C19.3127 3 19.7327 2.58 20.5727 2.58ZM20.9507 4.204V8.74H22.7567C23.4753 8.74 23.9467 8.53467 24.1707 8.124C24.3947 7.71333 24.5067 7.09733 24.5067 6.276C24.5067 5.87467 24.488 5.548 24.4507 5.296C24.4133 5.03467 24.3387 4.78267 24.2267 4.54C24.1147 4.29733 23.9373 4.12 23.6947 4.008C23.452 3.896 23.1393 3.84 22.7567 3.84H21.3707C21.0907 3.84 20.9507 3.96133 20.9507 4.204ZM32.1977 10H28.6697C27.8297 10 27.4097 9.58 27.4097 8.74V3.84C27.4097 3 27.8297 2.58 28.6697 2.58H32.0997C32.781 2.58 33.2944 2.71067 33.6397 2.972C33.9944 3.224 34.1717 3.68133 34.1717 4.344C34.1717 4.89467 34.0877 5.31933 33.9197 5.618C33.7517 5.90733 33.4297 6.08 32.9537 6.136V6.192C33.439 6.276 33.7704 6.45333 33.9477 6.724C34.1344 6.98533 34.2277 7.37733 34.2277 7.9C34.2277 8.628 34.0737 9.16 33.7657 9.496C33.467 9.832 32.9444 10 32.1977 10ZM29.0477 6.794V8.32C29.0477 8.6 29.1877 8.74 29.4677 8.74H31.5817C31.927 8.74 32.1697 8.66533 32.3097 8.516C32.459 8.36667 32.5337 8.11467 32.5337 7.76C32.5337 7.116 32.2164 6.794 31.5817 6.794H29.0477ZM29.0477 5.534H31.5817C32.179 5.534 32.4777 5.24933 32.4777 4.68C32.4777 4.12 32.179 3.84 31.5817 3.84H29.4677C29.1877 3.84 29.0477 3.98 29.0477 4.26V5.534ZM43.0951 10V2.58H44.7331V10H43.0951ZM40.3371 10H36.7531C35.9131 10 35.4931 9.58 35.4931 8.74V2.58H37.1311V5.394H40.3371C41.0277 5.394 41.5131 5.59 41.7931 5.982C42.0731 6.36467 42.2131 6.934 42.2131 7.69C42.2131 8.446 42.0731 9.02 41.7931 9.412C41.5131 9.804 41.0277 10 40.3371 10ZM37.1311 6.654V8.32C37.1311 8.6 37.2711 8.74 37.5511 8.74H39.6511C39.9871 8.74 40.2157 8.66067 40.3371 8.502C40.4584 8.334 40.5191 8.06333 40.5191 7.69C40.5191 7.31667 40.4584 7.05067 40.3371 6.892C40.2157 6.73333 39.9871 6.654 39.6511 6.654H37.1311ZM53.4264 10H51.7884L51.8444 4.722C51.8444 4.59133 51.8164 4.526 51.7604 4.526C51.7137 4.526 51.6484 4.59133 51.5644 4.722L48.3024 9.496C48.1624 9.71067 48.0131 9.86467 47.8544 9.958C47.7051 10.042 47.4997 10.084 47.2384 10.084C46.5197 10.084 46.1604 9.734 46.1604 9.034V2.58H47.7984L47.7284 7.858C47.7284 7.98867 47.7657 8.054 47.8404 8.054C47.8964 8.054 47.9617 7.98867 48.0364 7.858L51.3404 3C51.5644 2.664 51.9004 2.496 52.3484 2.496C52.4417 2.496 52.5304 2.50533 52.6144 2.524C52.7077 2.54267 52.8244 2.58467 52.9644 2.65C53.1044 2.706 53.2164 2.82267 53.3004 3C53.3844 3.168 53.4264 3.378 53.4264 3.63V10ZM48.6104 0.298C48.8064 0.923333 49.1984 1.236 49.7864 1.236C50.3744 1.236 50.7711 0.923333 50.9764 0.298H52.3764C52.1991 0.979333 51.9004 1.47867 51.4804 1.796C51.0604 2.104 50.4957 2.258 49.7864 2.258C48.3864 2.258 47.5277 1.60467 47.2104 0.298H48.6104ZM65.7286 4.652L63.8386 9.468C63.6799 9.87867 63.3626 10.084 62.8866 10.084C62.4106 10.084 62.0932 9.87867 61.9346 9.468L60.0306 4.652C59.9932 4.54933 59.9559 4.498 59.9186 4.498C59.8626 4.498 59.8346 4.54 59.8346 4.624L59.9046 10H58.2666V3.56C58.2666 3.21467 58.3879 2.95333 58.6306 2.776C58.8732 2.58933 59.1766 2.496 59.5406 2.496C60.1659 2.496 60.5859 2.762 60.8006 3.294L62.6766 8.012C62.7979 8.208 62.8679 8.306 62.8866 8.306C62.9052 8.306 62.9752 8.208 63.0966 8.012L64.9726 3.294C65.1872 2.762 65.6072 2.496 66.2326 2.496C66.5966 2.496 66.8999 2.58933 67.1426 2.776C67.3852 2.95333 67.5066 3.21467 67.5066 3.56V10H65.8686L65.9386 4.624C65.9386 4.53067 65.9106 4.484 65.8546 4.484L65.7286 4.652ZM69.6479 3.322C70.2733 2.77133 71.2766 2.496 72.6579 2.496C74.0393 2.496 75.0426 2.77133 75.6679 3.322C76.2933 3.87267 76.6059 4.85733 76.6059 6.276C76.6059 7.71333 76.2933 8.70733 75.6679 9.258C75.0519 9.80867 74.0486 10.084 72.6579 10.084C71.2673 10.084 70.2593 9.80867 69.6339 9.258C69.0179 8.70733 68.7099 7.71333 68.7099 6.276C68.7099 4.85733 69.0226 3.87267 69.6479 3.322ZM70.4039 6.276C70.4039 7.2 70.5719 7.858 70.9079 8.25C71.2439 8.63267 71.8273 8.824 72.6579 8.824C73.4886 8.824 74.0719 8.63267 74.4079 8.25C74.7439 7.858 74.9119 7.2 74.9119 6.276C74.9119 5.36133 74.7439 4.71267 74.4079 4.33C74.0719 3.94733 73.4886 3.756 72.6579 3.756C71.8273 3.756 71.2439 3.94733 70.9079 4.33C70.5719 4.71267 70.4039 5.36133 70.4039 6.276ZM84.4883 1.46H81.2543C80.6569 1.46 80.2043 1.56733 79.8963 1.782C79.5976 1.98733 79.4483 2.356 79.4483 2.888H81.9403C83.0229 2.888 83.7883 3.16333 84.2363 3.714C84.6936 4.26467 84.9223 5.14667 84.9223 6.36C84.9223 7.06 84.8709 7.634 84.7683 8.082C84.6749 8.52067 84.4929 8.89867 84.2223 9.216C83.9609 9.53333 83.5969 9.75733 83.1303 9.888C82.6636 10.0187 82.0616 10.084 81.3243 10.084C80.0736 10.084 79.1729 9.87867 78.6223 9.468C78.0809 9.048 77.8103 8.264 77.8103 7.116V3.098C77.8103 2.174 78.0343 1.46 78.4823 0.956C78.9303 0.451999 79.6023 0.199999 80.4983 0.199999H84.4883V1.46ZM79.4483 4.148V7.116C79.4483 8.25467 80.0643 8.824 81.2963 8.824C82.0803 8.824 82.5983 8.628 82.8503 8.236C83.1023 7.844 83.2283 7.21867 83.2283 6.36C83.2283 5.688 83.1116 5.15133 82.8783 4.75C82.6449 4.34867 82.2109 4.148 81.5763 4.148H79.4483ZM93.392 10H91.754L91.81 4.722C91.81 4.59133 91.782 4.526 91.726 4.526C91.6794 4.526 91.614 4.59133 91.53 4.722L88.268 9.496C88.128 9.71067 87.9787 9.86467 87.82 9.958C87.6707 10.042 87.4654 10.084 87.204 10.084C86.4854 10.084 86.126 9.734 86.126 9.034V2.58H87.764L87.694 7.858C87.694 7.98867 87.7314 8.054 87.806 8.054C87.862 8.054 87.9274 7.98867 88.002 7.858L91.306 3C91.53 2.664 91.866 2.496 92.314 2.496C92.4074 2.496 92.496 2.50533 92.58 2.524C92.6734 2.54267 92.79 2.58467 92.93 2.65C93.07 2.706 93.182 2.82267 93.266 3C93.35 3.168 93.392 3.378 93.392 3.63V10ZM94.0406 10L96.9666 3.112C97.1346 2.70133 97.5266 2.496 98.1426 2.496C98.7586 2.496 99.1506 2.70133 99.3186 3.112L102.245 10H100.453L98.2826 4.274C98.2266 4.134 98.18 4.064 98.1426 4.064C98.1053 4.064 98.0586 4.134 98.0026 4.274L95.8326 10H94.0406ZM107.878 10H104.154C103.314 10 102.894 9.58 102.894 8.74V2.58H104.532V5.394H107.878C108.569 5.394 109.054 5.59 109.334 5.982C109.614 6.36467 109.754 6.934 109.754 7.69C109.754 8.446 109.614 9.02 109.334 9.412C109.054 9.804 108.569 10 107.878 10ZM104.532 6.654V8.32C104.532 8.6 104.672 8.74 104.952 8.74H107.192C107.528 8.74 107.757 8.66067 107.878 8.502C108 8.334 108.06 8.06333 108.06 7.69C108.06 7.31667 108 7.05067 107.878 6.892C107.757 6.73333 107.528 6.654 107.192 6.654H104.532ZM117.714 10H116.076V6.808H112.534V10H110.896V2.58H112.534V5.548H116.076V2.58H117.714V10ZM126.745 10V2.58H128.383V10H126.745ZM123.987 10H120.403C119.563 10 119.143 9.58 119.143 8.74V2.58H120.781V5.394H123.987C124.678 5.394 125.163 5.59 125.443 5.982C125.723 6.36467 125.863 6.934 125.863 7.69C125.863 8.446 125.723 9.02 125.443 9.412C125.163 9.804 124.678 10 123.987 10ZM120.781 6.654V8.32C120.781 8.6 120.921 8.74 121.201 8.74H123.301C123.637 8.74 123.866 8.66067 123.987 8.502C124.108 8.334 124.169 8.06333 124.169 7.69C124.169 7.31667 124.108 7.05067 123.987 6.892C123.866 6.73333 123.637 6.654 123.301 6.654H120.781ZM137.076 10H135.438L135.494 4.722C135.494 4.59133 135.466 4.526 135.41 4.526C135.364 4.526 135.298 4.59133 135.214 4.722L131.952 9.496C131.812 9.71067 131.663 9.86467 131.504 9.958C131.355 10.042 131.15 10.084 130.888 10.084C130.17 10.084 129.81 9.734 129.81 9.034V2.58H131.448L131.378 7.858C131.378 7.98867 131.416 8.054 131.49 8.054C131.546 8.054 131.612 7.98867 131.686 7.858L134.99 3C135.214 2.664 135.55 2.496 135.998 2.496C136.092 2.496 136.18 2.50533 136.264 2.524C136.358 2.54267 136.474 2.58467 136.614 2.65C136.754 2.706 136.866 2.82267 136.95 3C137.034 3.168 137.076 3.378 137.076 3.63V10ZM132.26 0.298C132.456 0.923333 132.848 1.236 133.436 1.236C134.024 1.236 134.421 0.923333 134.626 0.298H136.026C135.849 0.979333 135.55 1.47867 135.13 1.796C134.71 2.104 134.146 2.258 133.436 2.258C132.036 2.258 131.178 1.60467 130.86 0.298H132.26Z" fill="#E6E0E0"/>
</svg>
