<svg width="215" height="20" viewBox="0 0 215 20" fill="none" xmlns="http://www.w3.org/2000/svg">
<path d="M3.224 16H0.32V2.91C0.32 1.37 1.068 0.599999 2.564 0.599999H11.76C13.256 0.599999 14.004 1.37 14.004 2.91V16H11.1V4.01C11.1 3.57 11.0267 3.27667 10.88 3.13C10.7333 2.98333 10.44 2.91 10 2.91H4.324C3.884 2.91 3.59067 2.98333 3.444 3.13C3.29733 3.27667 3.224 3.57 3.224 4.01V16ZM27.0761 16H20.6081C19.6988 16 18.9435 15.8753 18.3421 15.626C17.7555 15.3767 17.3081 14.988 17.0001 14.46C16.6921 13.9173 16.4795 13.316 16.3621 12.656C16.2595 11.996 16.2081 11.16 16.2081 10.148C16.2081 7.88933 16.6335 6.33467 17.4841 5.484C18.3495 4.63333 19.8015 4.208 21.8401 4.208C23.6588 4.208 25.0448 4.54533 25.9981 5.22C26.9661 5.88 27.4501 7.08267 27.4501 8.828C27.4501 10.2947 26.8488 11.028 25.6461 11.028H18.8701C18.8701 12.04 19.0315 12.7953 19.3541 13.294C19.6915 13.778 20.3661 14.02 21.3781 14.02H27.0761V16ZM18.8701 9.048H24.2161C24.5975 9.048 24.7881 8.82067 24.7881 8.366C24.7881 7.64733 24.5021 7.10467 23.9301 6.738C23.3728 6.37133 22.6761 6.188 21.8401 6.188C20.7548 6.188 19.9848 6.41533 19.5301 6.87C19.0901 7.31 18.8701 8.036 18.8701 9.048ZM31.3285 4.34H35.3985C37.1732 4.34 38.4125 4.83133 39.1165 5.814C39.8205 6.79667 40.1725 8.24133 40.1725 10.148C40.1725 12.0547 39.8132 13.5067 39.0945 14.504C38.3905 15.5013 37.1585 16 35.3985 16H31.9225V19.74H29.3485V6.32C29.3485 5 30.0085 4.34 31.3285 4.34ZM31.9225 6.892V14.02H34.7605C35.8898 14.02 36.6305 13.6973 36.9825 13.052C37.3345 12.4067 37.5105 11.4387 37.5105 10.148C37.5105 9.51733 37.4812 9.004 37.4225 8.608C37.3638 8.19733 37.2465 7.80133 37.0705 7.42C36.8945 7.03867 36.6158 6.76 36.2345 6.584C35.8532 6.408 35.3618 6.32 34.7605 6.32H32.5825C32.1425 6.32 31.9225 6.51067 31.9225 6.892ZM49.5964 16H44.0524C42.7324 16 42.0724 15.34 42.0724 14.02V6.32C42.0724 5 42.7324 4.34 44.0524 4.34H49.4424C50.5131 4.34 51.3197 4.54533 51.8624 4.956C52.4197 5.352 52.6984 6.07067 52.6984 7.112C52.6984 7.97733 52.5664 8.64467 52.3024 9.114C52.0384 9.56867 51.5324 9.84 50.7844 9.928V10.016C51.5471 10.148 52.0677 10.4267 52.3464 10.852C52.6397 11.2627 52.7864 11.8787 52.7864 12.7C52.7864 13.844 52.5444 14.68 52.0604 15.208C51.5911 15.736 50.7697 16 49.5964 16ZM44.6464 10.962V13.36C44.6464 13.8 44.8664 14.02 45.3064 14.02H48.6284C49.1711 14.02 49.5524 13.9027 49.7724 13.668C50.0071 13.4333 50.1244 13.0373 50.1244 12.48C50.1244 11.468 49.6257 10.962 48.6284 10.962H44.6464ZM44.6464 8.982H48.6284C49.5671 8.982 50.0364 8.53467 50.0364 7.64C50.0364 6.76 49.5671 6.32 48.6284 6.32H45.3064C44.8664 6.32 44.6464 6.54 44.6464 6.98V8.982ZM66.7208 16V4.34H69.2948V16H66.7208ZM62.3868 16H56.7548C55.4348 16 54.7748 15.34 54.7748 14.02V4.34H57.3488V8.762H62.3868C63.4721 8.762 64.2348 9.07 64.6748 9.686C65.1148 10.2873 65.3348 11.182 65.3348 12.37C65.3348 13.558 65.1148 14.46 64.6748 15.076C64.2348 15.692 63.4721 16 62.3868 16ZM57.3488 10.742V13.36C57.3488 13.8 57.5688 14.02 58.0088 14.02H61.3088C61.8368 14.02 62.1961 13.8953 62.3868 13.646C62.5775 13.382 62.6728 12.9567 62.6728 12.37C62.6728 11.7833 62.5775 11.3653 62.3868 11.116C62.1961 10.8667 61.8368 10.742 61.3088 10.742H57.3488ZM82.9558 16H80.3818L80.4698 7.706C80.4698 7.50067 80.4258 7.398 80.3378 7.398C80.2644 7.398 80.1618 7.50067 80.0298 7.706L74.9038 15.208C74.6838 15.5453 74.4491 15.7873 74.1998 15.934C73.9651 16.066 73.6424 16.132 73.2318 16.132C72.1024 16.132 71.5378 15.582 71.5378 14.482V4.34H74.1118L74.0018 12.634C74.0018 12.8393 74.0604 12.942 74.1778 12.942C74.2658 12.942 74.3684 12.8393 74.4858 12.634L79.6778 5C80.0298 4.472 80.5578 4.208 81.2618 4.208C81.4084 4.208 81.5478 4.22267 81.6798 4.252C81.8264 4.28133 82.0098 4.34733 82.2298 4.45C82.4498 4.538 82.6258 4.72133 82.7578 5C82.8898 5.264 82.9558 5.594 82.9558 5.99V16ZM75.3878 0.754C75.6958 1.73667 76.3118 2.228 77.2358 2.228C78.1598 2.228 78.7831 1.73667 79.1058 0.754H81.3058C81.0271 1.82467 80.5578 2.60933 79.8978 3.108C79.2378 3.592 78.3504 3.834 77.2358 3.834C75.0358 3.834 73.6864 2.80733 73.1878 0.754H75.3878ZM102.288 7.596L99.3178 15.164C99.0684 15.8093 98.5698 16.132 97.8218 16.132C97.0738 16.132 96.5751 15.8093 96.3258 15.164L93.3338 7.596C93.2751 7.43467 93.2164 7.354 93.1578 7.354C93.0698 7.354 93.0258 7.42 93.0258 7.552L93.1358 16H90.5618V5.88C90.5618 5.33733 90.7524 4.92667 91.1338 4.648C91.5151 4.35467 91.9918 4.208 92.5638 4.208C93.5464 4.208 94.2064 4.626 94.5438 5.462L97.4918 12.876C97.6824 13.184 97.7924 13.338 97.8218 13.338C97.8511 13.338 97.9611 13.184 98.1518 12.876L101.1 5.462C101.437 4.626 102.097 4.208 103.08 4.208C103.652 4.208 104.128 4.35467 104.51 4.648C104.891 4.92667 105.082 5.33733 105.082 5.88V16H102.508L102.618 7.552C102.618 7.40533 102.574 7.332 102.486 7.332L102.288 7.596ZM108.447 5.506C109.429 4.64067 111.006 4.208 113.177 4.208C115.347 4.208 116.924 4.64067 117.907 5.506C118.889 6.37133 119.381 7.91867 119.381 10.148C119.381 12.4067 118.889 13.9687 117.907 14.834C116.939 15.6993 115.362 16.132 113.177 16.132C110.991 16.132 109.407 15.6993 108.425 14.834C107.457 13.9687 106.973 12.4067 106.973 10.148C106.973 7.91867 107.464 6.37133 108.447 5.506ZM109.635 10.148C109.635 11.6 109.899 12.634 110.427 13.25C110.955 13.8513 111.871 14.152 113.177 14.152C114.482 14.152 115.399 13.8513 115.927 13.25C116.455 12.634 116.719 11.6 116.719 10.148C116.719 8.71067 116.455 7.69133 115.927 7.09C115.399 6.48867 114.482 6.188 113.177 6.188C111.871 6.188 110.955 6.48867 110.427 7.09C109.899 7.69133 109.635 8.71067 109.635 10.148ZM131.767 2.58H126.685C125.747 2.58 125.035 2.74867 124.551 3.086C124.082 3.40867 123.847 3.988 123.847 4.824H127.763C129.465 4.824 130.667 5.25667 131.371 6.122C132.09 6.98733 132.449 8.37333 132.449 10.28C132.449 11.38 132.369 12.282 132.207 12.986C132.061 13.6753 131.775 14.2693 131.349 14.768C130.939 15.2667 130.367 15.6187 129.633 15.824C128.9 16.0293 127.954 16.132 126.795 16.132C124.83 16.132 123.415 15.8093 122.549 15.164C121.699 14.504 121.273 13.272 121.273 11.468V5.154C121.273 3.702 121.625 2.58 122.329 1.788C123.033 0.995999 124.089 0.599999 125.497 0.599999H131.767V2.58ZM123.847 6.804V11.468C123.847 13.2573 124.815 14.152 126.751 14.152C127.983 14.152 128.797 13.844 129.193 13.228C129.589 12.612 129.787 11.6293 129.787 10.28C129.787 9.224 129.604 8.38067 129.237 7.75C128.871 7.11933 128.189 6.804 127.191 6.804H123.847ZM145.759 16H143.185L143.273 7.706C143.273 7.50067 143.229 7.398 143.141 7.398C143.068 7.398 142.965 7.50067 142.833 7.706L137.707 15.208C137.487 15.5453 137.252 15.7873 137.003 15.934C136.768 16.066 136.446 16.132 136.035 16.132C134.906 16.132 134.341 15.582 134.341 14.482V4.34H136.915L136.805 12.634C136.805 12.8393 136.864 12.942 136.981 12.942C137.069 12.942 137.172 12.8393 137.289 12.634L142.481 5C142.833 4.472 143.361 4.208 144.065 4.208C144.212 4.208 144.351 4.22267 144.483 4.252C144.63 4.28133 144.813 4.34733 145.033 4.45C145.253 4.538 145.429 4.72133 145.561 5C145.693 5.264 145.759 5.594 145.759 5.99V16ZM146.778 16L151.376 5.176C151.64 4.53067 152.256 4.208 153.224 4.208C154.192 4.208 154.808 4.53067 155.072 5.176L159.67 16H156.854L153.444 7.002C153.356 6.782 153.283 6.672 153.224 6.672C153.165 6.672 153.092 6.782 153.004 7.002L149.594 16H146.778ZM168.523 16H162.671C161.351 16 160.691 15.34 160.691 14.02V4.34H163.265V8.762H168.523C169.608 8.762 170.371 9.07 170.811 9.686C171.251 10.2873 171.471 11.182 171.471 12.37C171.471 13.558 171.251 14.46 170.811 15.076C170.371 15.692 169.608 16 168.523 16ZM163.265 10.742V13.36C163.265 13.8 163.485 14.02 163.925 14.02H167.445C167.973 14.02 168.332 13.8953 168.523 13.646C168.714 13.382 168.809 12.9567 168.809 12.37C168.809 11.7833 168.714 11.3653 168.523 11.116C168.332 10.8667 167.973 10.742 167.445 10.742H163.265ZM183.979 16H181.405V10.984H175.839V16H173.265V4.34H175.839V9.004H181.405V4.34H183.979V16ZM198.171 16V4.34H200.745V16H198.171ZM193.837 16H188.205C186.885 16 186.225 15.34 186.225 14.02V4.34H188.799V8.762H193.837C194.922 8.762 195.685 9.07 196.125 9.686C196.565 10.2873 196.785 11.182 196.785 12.37C196.785 13.558 196.565 14.46 196.125 15.076C195.685 15.692 194.922 16 193.837 16ZM188.799 10.742V13.36C188.799 13.8 189.019 14.02 189.459 14.02H192.759C193.287 14.02 193.646 13.8953 193.837 13.646C194.027 13.382 194.123 12.9567 194.123 12.37C194.123 11.7833 194.027 11.3653 193.837 11.116C193.646 10.8667 193.287 10.742 192.759 10.742H188.799ZM214.406 16H211.832L211.92 7.706C211.92 7.50067 211.876 7.398 211.788 7.398C211.714 7.398 211.612 7.50067 211.48 7.706L206.354 15.208C206.134 15.5453 205.899 15.7873 205.65 15.934C205.415 16.066 205.092 16.132 204.682 16.132C203.552 16.132 202.988 15.582 202.988 14.482V4.34H205.562L205.452 12.634C205.452 12.8393 205.51 12.942 205.628 12.942C205.716 12.942 205.818 12.8393 205.936 12.634L211.128 5C211.48 4.472 212.008 4.208 212.712 4.208C212.858 4.208 212.998 4.22267 213.13 4.252C213.276 4.28133 213.46 4.34733 213.68 4.45C213.9 4.538 214.076 4.72133 214.208 5C214.34 5.264 214.406 5.594 214.406 5.99V16ZM206.838 0.754C207.146 1.73667 207.762 2.228 208.686 2.228C209.61 2.228 210.233 1.73667 210.556 0.754H212.756C212.477 1.82467 212.008 2.60933 211.348 3.108C210.688 3.592 209.8 3.834 208.686 3.834C206.486 3.834 205.136 2.80733 204.638 0.754H206.838Z" fill="#373737"/>
</svg>
