<svg width="20" height="20" viewBox="0 0 20 20" fill="none" xmlns="http://www.w3.org/2000/svg">
<path fill-rule="evenodd" clip-rule="evenodd" d="M4.34274 4.34316C4.4365 4.24939 4.56368 4.19671 4.69629 4.19671L12.9459 4.19672C13.2221 4.19672 13.4459 4.42058 13.4459 4.69672C13.4459 4.97286 13.2221 5.19672 12.9459 5.19672L5.9034 5.19671L15.6565 14.9498C15.8517 15.145 15.8517 15.4616 15.6565 15.6569C15.4612 15.8521 15.1446 15.8521 14.9494 15.6569L5.19629 5.90382V12.9462C5.19629 13.2224 4.97243 13.4462 4.69629 13.4462C4.42015 13.4462 4.19629 13.2224 4.19629 12.9462V4.69671C4.19629 4.5641 4.24897 4.43692 4.34274 4.34316Z" fill="#9F9A9A"/>
<path fill-rule="evenodd" clip-rule="evenodd" d="M4.34274 4.34316C4.4365 4.24939 4.56368 4.19671 4.69629 4.19671L12.9459 4.19672C13.2221 4.19672 13.4459 4.42058 13.4459 4.69672C13.4459 4.97286 13.2221 5.19672 12.9459 5.19672L5.9034 5.19671L15.6565 14.9498C15.8517 15.145 15.8517 15.4616 15.6565 15.6569C15.4612 15.8521 15.1446 15.8521 14.9494 15.6569L5.19629 5.90382V12.9462C5.19629 13.2224 4.97243 13.4462 4.69629 13.4462C4.42015 13.4462 4.19629 13.2224 4.19629 12.9462V4.69671C4.19629 4.5641 4.24897 4.43692 4.34274 4.34316Z" fill="black" fill-opacity="0.2"/>
</svg>
