<?xml version="1.0" encoding="UTF-8" standalone="no"?>
<svg
   width="24"
   height="25"
   viewBox="0 0 24 25"
   fill="none"
   version="1.1"
   id="svg2"
   sodipodi:docname="arrow-expand.svg"
   inkscape:version="1.3 (0e150ed6c4, 2023-07-21)"
   xmlns:inkscape="http://www.inkscape.org/namespaces/inkscape"
   xmlns:sodipodi="http://sodipodi.sourceforge.net/DTD/sodipodi-0.dtd"
   xmlns="http://www.w3.org/2000/svg"
   xmlns:svg="http://www.w3.org/2000/svg">
  <defs
     id="defs2" />
  <sodipodi:namedview
     id="namedview2"
     pagecolor="#ffffff"
     bordercolor="#000000"
     borderopacity="0.25"
     inkscape:showpageshadow="2"
     inkscape:pageopacity="0.0"
     inkscape:pagecheckerboard="0"
     inkscape:deskcolor="#d1d1d1"
     inkscape:zoom="32.84"
     inkscape:cx="12.012789"
     inkscape:cy="12.5"
     inkscape:window-width="1920"
     inkscape:window-height="1017"
     inkscape:window-x="-8"
     inkscape:window-y="-8"
     inkscape:window-maximized="1"
     inkscape:current-layer="svg2" />
  <path
     style="color:#000000;fill:#e8e8e8;stroke-linecap:round;stroke-linejoin:round;-inkscape-stroke:none"
     d="m 4,4.8789062 a 0.75,0.75 0 0 0 -0.53125,0.2207032 0.75,0.75 0 0 0 0,1.0605468 l 8,7.9999998 a 0.750075,0.750075 0 0 0 1.0625,0 L 18.369141,8.3203125 20.53125,6.1601562 a 0.75,0.75 0 0 0 0,-1.0605468 0.75,0.75 0 0 0 -1.0625,0 L 17.308594,7.2597656 12,12.568359 4.53125,5.0996094 A 0.75,0.75 0 0 0 4,4.8789062 Z"
     id="path1" />
  <path
     style="color:#000000;fill:#e8e8e8;stroke-linecap:round;stroke-linejoin:round;-inkscape-stroke:none"
     d="m 4,10.878906 a 0.75,0.75 0 0 0 -0.53125,0.220703 0.75,0.75 0 0 0 0,1.060547 l 8,8 a 0.750075,0.750075 0 0 0 1.0625,0 l 8,-8 a 0.75,0.75 0 0 0 0,-1.060547 0.75,0.75 0 0 0 -1.0625,0 L 12,18.568359 4.53125,11.099609 A 0.75,0.75 0 0 0 4,10.878906 Z"
     id="path2" />
</svg>
