<svg width="24" height="25" viewBox="0 0 24 25" fill="none" xmlns="http://www.w3.org/2000/svg">
<g id="prime:bars">
<g id="Vector">
<path d="M19 13.25H5C4.80109 13.25 4.61032 13.171 4.46967 13.0303C4.32902 12.8897 4.25 12.6989 4.25 12.5C4.25 12.3011 4.32902 12.1103 4.46967 11.9697C4.61032 11.829 4.80109 11.75 5 11.75H19C19.1989 11.75 19.3897 11.829 19.5303 11.9697C19.671 12.1103 19.75 12.3011 19.75 12.5C19.75 12.6989 19.671 12.8897 19.5303 13.0303C19.3897 13.171 19.1989 13.25 19 13.25ZM19 8.75H5C4.80109 8.75 4.61032 8.67098 4.46967 8.53033C4.32902 8.38968 4.25 8.19891 4.25 8C4.25 7.80109 4.32902 7.61032 4.46967 7.46967C4.61032 7.32902 4.80109 7.25 5 7.25H19C19.1989 7.25 19.3897 7.32902 19.5303 7.46967C19.671 7.61032 19.75 7.80109 19.75 8C19.75 8.19891 19.671 8.38968 19.5303 8.53033C19.3897 8.67098 19.1989 8.75 19 8.75ZM19 17.75H5C4.80109 17.75 4.61032 17.671 4.46967 17.5303C4.32902 17.3897 4.25 17.1989 4.25 17C4.25 16.8011 4.32902 16.6103 4.46967 16.4697C4.61032 16.329 4.80109 16.25 5 16.25H19C19.1989 16.25 19.3897 16.329 19.5303 16.4697C19.671 16.6103 19.75 16.8011 19.75 17C19.75 17.1989 19.671 17.3897 19.5303 17.5303C19.3897 17.671 19.1989 17.75 19 17.75Z" fill="#9F9A9A"/>
<path d="M19 13.25H5C4.80109 13.25 4.61032 13.171 4.46967 13.0303C4.32902 12.8897 4.25 12.6989 4.25 12.5C4.25 12.3011 4.32902 12.1103 4.46967 11.9697C4.61032 11.829 4.80109 11.75 5 11.75H19C19.1989 11.75 19.3897 11.829 19.5303 11.9697C19.671 12.1103 19.75 12.3011 19.75 12.5C19.75 12.6989 19.671 12.8897 19.5303 13.0303C19.3897 13.171 19.1989 13.25 19 13.25ZM19 8.75H5C4.80109 8.75 4.61032 8.67098 4.46967 8.53033C4.32902 8.38968 4.25 8.19891 4.25 8C4.25 7.80109 4.32902 7.61032 4.46967 7.46967C4.61032 7.32902 4.80109 7.25 5 7.25H19C19.1989 7.25 19.3897 7.32902 19.5303 7.46967C19.671 7.61032 19.75 7.80109 19.75 8C19.75 8.19891 19.671 8.38968 19.5303 8.53033C19.3897 8.67098 19.1989 8.75 19 8.75ZM19 17.75H5C4.80109 17.75 4.61032 17.671 4.46967 17.5303C4.32902 17.3897 4.25 17.1989 4.25 17C4.25 16.8011 4.32902 16.6103 4.46967 16.4697C4.61032 16.329 4.80109 16.25 5 16.25H19C19.1989 16.25 19.3897 16.329 19.5303 16.4697C19.671 16.6103 19.75 16.8011 19.75 17C19.75 17.1989 19.671 17.3897 19.5303 17.5303C19.3897 17.671 19.1989 17.75 19 17.75Z" fill="black" fill-opacity="0.2"/>
</g>
</g>
</svg>
