<svg width="32" height="32" viewBox="0 0 32 32" fill="none" xmlns="http://www.w3.org/2000/svg">
<path fill-rule="evenodd" clip-rule="evenodd" d="M13.3333 26.3334C13.1492 26.3334 13 26.4826 13 26.6667C13 26.8508 13.1492 27 13.3333 27C13.5174 27 13.6667 26.8508 13.6667 26.6667C13.6667 26.4826 13.5174 26.3334 13.3333 26.3334ZM11 26.6667C11 25.378 12.0447 24.3334 13.3333 24.3334C14.622 24.3334 15.6667 25.378 15.6667 26.6667C15.6667 27.9554 14.622 29 13.3333 29C12.0447 29 11 27.9554 11 26.6667Z" fill="black" fill-opacity="0.95"/>
<path fill-rule="evenodd" clip-rule="evenodd" d="M24.0003 26.3334C23.8162 26.3334 23.667 26.4826 23.667 26.6667C23.667 26.8508 23.8162 27 24.0003 27C24.1844 27 24.3337 26.8508 24.3337 26.6667C24.3337 26.4826 24.1844 26.3334 24.0003 26.3334ZM21.667 26.6667C21.667 25.378 22.7117 24.3334 24.0003 24.3334C25.289 24.3334 26.3337 25.378 26.3337 26.6667C26.3337 27.9554 25.289 29 24.0003 29C22.7117 29 21.667 27.9554 21.667 26.6667Z" fill="black" fill-opacity="0.95"/>
<path fill-rule="evenodd" clip-rule="evenodd" d="M1.66699 4C1.66699 3.44772 2.11471 3 2.66699 3H7.33366C7.80107 3 8.20612 3.32378 8.30909 3.7797L11.4536 17.703C11.4536 17.703 11.4536 17.703 11.4536 17.703C11.6249 18.4617 12.2986 19 13.0787 19H24.5279C25.3091 19 25.9854 18.4574 26.1548 17.695L28.3575 7.78307C28.4773 7.24393 29.0115 6.904 29.5506 7.02381C30.0897 7.14362 30.4297 7.6778 30.3098 8.21693L28.1072 18.1288C27.7345 19.8063 26.2465 21 24.5279 21H13.0787C11.366 21 9.88052 19.8164 9.50271 18.1436L6.53432 5H2.66699C2.11471 5 1.66699 4.55228 1.66699 4Z" fill="black" fill-opacity="0.95"/>
<path fill-rule="evenodd" clip-rule="evenodd" d="M7.66699 8C7.66699 7.44772 8.11471 7 8.66699 7H29.3337C29.8859 7 30.3337 7.44772 30.3337 8C30.3337 8.55228 29.8859 9 29.3337 9H8.66699C8.11471 9 7.66699 8.55228 7.66699 8Z" fill="black" fill-opacity="0.95"/>
</svg>
