<svg width="20" height="20" viewBox="0 0 20 20" fill="none" xmlns="http://www.w3.org/2000/svg">
<path fill-rule="evenodd" clip-rule="evenodd" d="M8.33333 2.41663C7.82707 2.41663 7.41667 2.82703 7.41667 3.33329V4.24996H12.5833V3.33329C12.5833 2.82702 12.1729 2.41663 11.6667 2.41663H8.33333ZM14.0833 4.24996V3.33329C14.0833 1.99861 13.0014 0.916626 11.6667 0.916626H8.33333C6.99864 0.916626 5.91667 1.9986 5.91667 3.33329V4.24996H2.5C2.08579 4.24996 1.75 4.58575 1.75 4.99996C1.75 5.41417 2.08579 5.74996 2.5 5.74996H3.41667V16.6666C3.41667 18.0013 4.49865 19.0833 5.83333 19.0833H14.1667C15.5014 19.0833 16.5833 18.0013 16.5833 16.6666V5.74996H17.5C17.9142 5.74996 18.25 5.41417 18.25 4.99996C18.25 4.58575 17.9142 4.24996 17.5 4.24996H14.0833ZM4.91667 5.74996V16.6666C4.91667 17.1729 5.32706 17.5833 5.83333 17.5833H14.1667C14.673 17.5833 15.0833 17.1729 15.0833 16.6666V5.74996H4.91667Z" fill="#9F9A9A"/>
<path fill-rule="evenodd" clip-rule="evenodd" d="M8.33333 2.41663C7.82707 2.41663 7.41667 2.82703 7.41667 3.33329V4.24996H12.5833V3.33329C12.5833 2.82702 12.1729 2.41663 11.6667 2.41663H8.33333ZM14.0833 4.24996V3.33329C14.0833 1.99861 13.0014 0.916626 11.6667 0.916626H8.33333C6.99864 0.916626 5.91667 1.9986 5.91667 3.33329V4.24996H2.5C2.08579 4.24996 1.75 4.58575 1.75 4.99996C1.75 5.41417 2.08579 5.74996 2.5 5.74996H3.41667V16.6666C3.41667 18.0013 4.49865 19.0833 5.83333 19.0833H14.1667C15.5014 19.0833 16.5833 18.0013 16.5833 16.6666V5.74996H17.5C17.9142 5.74996 18.25 5.41417 18.25 4.99996C18.25 4.58575 17.9142 4.24996 17.5 4.24996H14.0833ZM4.91667 5.74996V16.6666C4.91667 17.1729 5.32706 17.5833 5.83333 17.5833H14.1667C14.673 17.5833 15.0833 17.1729 15.0833 16.6666V5.74996H4.91667Z" fill="black" fill-opacity="0.2"/>
</svg>
