<?xml version="1.0" encoding="UTF-8" standalone="no"?>
<svg
   width="25"
   height="25"
   viewBox="0 0 25 25"
   fill="none"
   version="1.1"
   id="svg1"
   sodipodi:docname="calculator.svg"
   inkscape:version="1.3 (0e150ed6c4, 2023-07-21)"
   xmlns:inkscape="http://www.inkscape.org/namespaces/inkscape"
   xmlns:sodipodi="http://sodipodi.sourceforge.net/DTD/sodipodi-0.dtd"
   xmlns="http://www.w3.org/2000/svg"
   xmlns:svg="http://www.w3.org/2000/svg">
  <defs
     id="defs1" />
  <sodipodi:namedview
     id="namedview1"
     pagecolor="#ffffff"
     bordercolor="#000000"
     borderopacity="0.25"
     inkscape:showpageshadow="2"
     inkscape:pageopacity="0.0"
     inkscape:pagecheckerboard="0"
     inkscape:deskcolor="#d1d1d1"
     inkscape:zoom="32.84"
     inkscape:cx="12.5"
     inkscape:cy="12.5"
     inkscape:window-width="1920"
     inkscape:window-height="1017"
     inkscape:window-x="-8"
     inkscape:window-y="-8"
     inkscape:window-maximized="1"
     inkscape:current-layer="svg1" />
  <path
     style="color:#000000;fill:#db322b;stroke-linecap:round;stroke-linejoin:round;-inkscape-stroke:none"
     d="m 5.5,2.0097656 c -0.8681152,0 -1.6081324,0.4675074 -2.1953125,1.0546875 C 2.7175074,3.6516332 2.25,4.3916504 2.25,5.2597656 V 19.259766 c 0,0.868121 0.4675052,1.606181 1.0546875,2.193359 C 3.8918698,22.040303 4.6318916,22.509766 5.5,22.509766 h 14 c 0.868115,0 1.608133,-0.469461 2.195312,-1.056641 C 22.282492,20.865945 22.75,20.12788 22.75,19.259766 V 5.2597656 C 22.75,4.3916572 22.28249,3.6516354 21.695312,3.0644531 21.108135,2.4772709 20.368122,2.0097656 19.5,2.0097656 Z m 0,1.5 h 14 c 0.236477,0 0.748094,0.2285601 1.134766,0.6152344 C 21.021437,4.5116743 21.25,5.0233051 21.25,5.2597656 V 19.259766 c 0,0.236484 -0.228565,0.746143 -0.615234,1.132812 -0.38667,0.386669 -0.898282,0.617188 -1.134766,0.617188 h -14 c -0.2364605,0 -0.7480913,-0.230517 -1.1347656,-0.617188 C 3.9785601,20.005907 3.75,19.496243 3.75,19.259766 V 5.2597656 C 3.75,5.0233119 3.978558,4.5116764 4.3652344,4.125 4.7519108,3.7383236 5.2635463,3.5097656 5.5,3.5097656 Z m 11,2 a 0.75,0.75 0 0 0 -0.75,0.75 v 1.25 H 14.5 a 0.75,0.75 0 0 0 -0.75,0.75 0.75,0.75 0 0 0 0.75,0.75 h 1.25 v 1.2500004 a 0.75,0.75 0 0 0 0.75,0.75 0.75,0.75 0 0 0 0.75,-0.75 V 9.0097656 h 1.25 a 0.75,0.75 0 0 0 0.75,-0.75 0.75,0.75 0 0 0 -0.75,-0.75 h -1.25 v -1.25 a 0.75,0.75 0 0 0 -0.75,-0.75 z m -10,2 a 0.75,0.75 0 0 0 -0.75,0.75 0.75,0.75 0 0 0 0.75,0.75 h 4 a 0.75,0.75 0 0 0 0.75,-0.75 0.75,0.75 0 0 0 -0.75,-0.75 z m 0,5.0000004 a 0.75,0.75 0 0 0 -0.53125,0.21875 0.75,0.75 0 0 0 0,1.060547 l 1.46875,1.46875 -1.46875,1.470703 a 0.75,0.75 0 0 0 0,1.060546 0.75,0.75 0 0 0 1.0625,0 L 8.5,16.320312 l 1.46875,1.46875 a 0.75,0.75 0 0 0 1.0625,0 0.75,0.75 0 0 0 0,-1.060546 l -1.46875,-1.470703 1.46875,-1.46875 a 0.75,0.75 0 0 0 0,-1.060547 0.75,0.75 0 0 0 -1.0625,0 L 8.5,14.197266 7.03125,12.728516 A 0.75,0.75 0 0 0 6.5,12.509766 Z m 8,0.5 a 0.75,0.75 0 0 0 -0.75,0.75 0.75,0.75 0 0 0 0.75,0.75 h 4 a 0.75,0.75 0 0 0 0.75,-0.75 0.75,0.75 0 0 0 -0.75,-0.75 z m 0,3 a 0.75,0.75 0 0 0 -0.75,0.75 0.75,0.75 0 0 0 0.75,0.75 h 4 a 0.75,0.75 0 0 0 0.75,-0.75 0.75,0.75 0 0 0 -0.75,-0.75 z"
     id="path1" />
</svg>
