<?xml version="1.0" encoding="UTF-8" standalone="no"?>
<svg
   width="28"
   height="28"
   viewBox="0 0 28 28"
   fill="none"
   version="1.1"
   id="svg1"
   sodipodi:docname="chat.svg"
   inkscape:version="1.3 (0e150ed6c4, 2023-07-21)"
   xmlns:inkscape="http://www.inkscape.org/namespaces/inkscape"
   xmlns:sodipodi="http://sodipodi.sourceforge.net/DTD/sodipodi-0.dtd"
   xmlns="http://www.w3.org/2000/svg"
   xmlns:svg="http://www.w3.org/2000/svg">
  <defs
     id="defs1" />
  <sodipodi:namedview
     id="namedview1"
     pagecolor="#ffffff"
     bordercolor="#000000"
     borderopacity="0.25"
     inkscape:showpageshadow="2"
     inkscape:pageopacity="0.0"
     inkscape:pagecheckerboard="0"
     inkscape:deskcolor="#d1d1d1"
     inkscape:zoom="29.321429"
     inkscape:cx="14"
     inkscape:cy="14"
     inkscape:window-width="1920"
     inkscape:window-height="1017"
     inkscape:window-x="-8"
     inkscape:window-y="-8"
     inkscape:window-maximized="1"
     inkscape:current-layer="svg1" />
  <path
     style="color:#000000;fill:#f5f5f5;stroke-linecap:round;stroke-linejoin:round;-inkscape-stroke:none"
     d="M 5.8339844,2.75 C 4.1399942,2.75 2.75,4.1399942 2.75,5.8339844 V 17.5 c 0,1.694018 1.3900213,3.083984 3.0839844,3.083984 h 3.1894531 l 4.0332035,4.033203 c 0.51446,0.514461 1.372258,0.514461 1.886718,0 l 4.033203,-4.033203 h 3.189454 C 23.860006,20.583984 25.25,19.19399 25.25,17.5 V 5.8339844 C 25.25,4.1400213 23.860033,2.75 22.166016,2.75 Z m 0,1.5 H 22.166016 C 23.049395,4.25 23.75,4.95063 23.75,5.8339844 V 17.5 c 0,0.883407 -0.700577,1.583984 -1.583984,1.583984 h -3.5 a 0.750075,0.750075 0 0 0 -0.529297,0.21875 L 14,23.439453 9.8632813,19.302734 a 0.750075,0.750075 0 0 0 -0.5292969,-0.21875 h -3.5 C 4.95063,19.083984 4.25,18.38338 4.25,17.5 V 5.8339844 C 4.25,4.9506572 4.9506572,4.25 5.8339844,4.25 Z"
     id="path1" />
</svg>
