<?xml version="1.0" encoding="UTF-8" standalone="no"?>
<svg
   width="24"
   height="25"
   viewBox="0 0 24 25"
   fill="none"
   version="1.1"
   id="svg1"
   sodipodi:docname="check.svg"
   inkscape:version="1.3 (0e150ed6c4, 2023-07-21)"
   xmlns:inkscape="http://www.inkscape.org/namespaces/inkscape"
   xmlns:sodipodi="http://sodipodi.sourceforge.net/DTD/sodipodi-0.dtd"
   xmlns="http://www.w3.org/2000/svg"
   xmlns:svg="http://www.w3.org/2000/svg">
  <defs
     id="defs1" />
  <sodipodi:namedview
     id="namedview1"
     pagecolor="#ffffff"
     bordercolor="#000000"
     borderopacity="0.25"
     inkscape:showpageshadow="2"
     inkscape:pageopacity="0.0"
     inkscape:pagecheckerboard="0"
     inkscape:deskcolor="#d1d1d1"
     inkscape:zoom="33.24"
     inkscape:cx="11.988568"
     inkscape:cy="12.5"
     inkscape:window-width="1920"
     inkscape:window-height="1027"
     inkscape:window-x="-8"
     inkscape:window-y="-8"
     inkscape:window-maximized="1"
     inkscape:current-layer="Frame" />
  <g
     id="Frame">
    <path
       style="color:#000000;fill:#109c15;stroke-linecap:round;stroke-linejoin:round;-inkscape-stroke:none"
       d="M 5,2.75 C 3.4901018,2.75 2.25,3.9901018 2.25,5.5 v 14 c 0,1.509917 1.2401154,2.75 2.75,2.75 h 14 c 1.509904,0 2.75,-1.240096 2.75,-2.75 V 5.5 C 21.75,3.9901154 20.509917,2.75 19,2.75 Z m 0,1.5 h 14 c 0.699281,0 1.25,0.5507468 1.25,1.25 v 14 c 0,0.699294 -0.550706,1.25 -1.25,1.25 H 5 C 4.3007468,20.75 3.75,20.199281 3.75,19.5 V 5.5 C 3.75,4.8007604 4.3007604,4.25 5,4.25 Z m 12,4.5 A 0.75,0.75 0 0 0 16.46875,8.96875 L 10.5,14.9375 7.53125,11.96875 a 0.75,0.75 0 0 0 -1.0625,0 0.75,0.75 0 0 0 0,1.0625 l 3.5,3.5 a 0.750075,0.750075 0 0 0 1.0625,0 l 6.5,-6.5 a 0.75,0.75 0 0 0 0,-1.0625 A 0.75,0.75 0 0 0 17,8.75 Z"
       id="Vector" />
  </g>
</svg>
