<?xml version="1.0" encoding="UTF-8" standalone="no"?>
<svg
   width="16"
   height="17"
   viewBox="0 0 16 17"
   fill="none"
   version="1.1"
   id="svg4"
   sodipodi:docname="copy.svg"
   inkscape:version="1.3 (0e150ed6c4, 2023-07-21)"
   xmlns:inkscape="http://www.inkscape.org/namespaces/inkscape"
   xmlns:sodipodi="http://sodipodi.sourceforge.net/DTD/sodipodi-0.dtd"
   xmlns="http://www.w3.org/2000/svg"
   xmlns:svg="http://www.w3.org/2000/svg">
  <defs
     id="defs4">
    <inkscape:path-effect
       effect="fillet_chamfer"
       id="path-effect2"
       is_visible="true"
       lpeversion="1"
       nodesatellites_param="F,0,0,1,0,0,0,1 @ F,0,0,1,0,0,0,1 @ F,0,0,1,0,0,0,1 @ F,0,0,1,0,0,0,1 @ F,0,0,1,0,0,0,1 @ F,0,0,1,0,0,0,1 @ F,0,0,1,0,0,0,1 @ F,0,0,1,0,0,0,1 @ F,0,0,1,0,0,0,1 @ F,0,0,1,0,0,0,1 @ F,0,0,1,0,0,0,1 @ F,0,0,1,0,0,0,1 @ F,0,0,1,0,0,0,1 @ F,0,0,1,0,0,0,1 @ F,0,0,1,0,0,0,1 @ F,0,0,1,0,0,0,1 @ F,0,0,1,0,0,0,1 @ F,0,0,1,0,0,0,1"
       radius="0"
       unit="px"
       method="auto"
       mode="F"
       chamfer_steps="1"
       flexible="false"
       use_knot_distance="true"
       apply_no_radius="true"
       apply_with_radius="true"
       only_selected="false"
       hide_knots="false" />
    <inkscape:path-effect
       effect="fillet_chamfer"
       id="path-effect1"
       is_visible="true"
       lpeversion="1"
       nodesatellites_param="F,0,0,1,0,0,0,1 @ F,0,0,1,0,0,0,1 @ F,0,0,1,0,0,0,1 @ F,0,0,1,0,0,0,1 @ F,0,0,1,0,0,0,1 @ F,0,0,1,0,0,0,1 @ F,0,0,1,0,0,0,1 @ F,0,0,1,0,0,0,1 @ F,0,0,1,0,0,0,1 @ F,0,0,1,0,0,0,1 @ F,0,0,1,0,0,0,1 @ F,0,0,1,0,0,0,1 @ F,0,0,1,0,0,0,1 @ F,0,0,1,0,0,0,1 @ F,0,0,1,0,0,0,1 @ F,0,0,1,0,0,0,1 @ F,0,0,1,0,0,0,1 @ F,0,0,1,0,0,0,1"
       radius="0"
       unit="px"
       method="auto"
       mode="F"
       chamfer_steps="1"
       flexible="false"
       use_knot_distance="true"
       apply_no_radius="true"
       apply_with_radius="true"
       only_selected="false"
       hide_knots="false" />
  </defs>
  <sodipodi:namedview
     id="namedview4"
     pagecolor="#ffffff"
     bordercolor="#000000"
     borderopacity="0.25"
     inkscape:showpageshadow="2"
     inkscape:pageopacity="0.0"
     inkscape:pagecheckerboard="0"
     inkscape:deskcolor="#d1d1d1"
     inkscape:zoom="48.882353"
     inkscape:cx="8.0090253"
     inkscape:cy="8.5"
     inkscape:window-width="1920"
     inkscape:window-height="1027"
     inkscape:window-x="-8"
     inkscape:window-y="-8"
     inkscape:window-maximized="1"
     inkscape:current-layer="Frame" />
  <g
     id="Frame">
    <g
       id="Vector">
      <path
         d="M13.3333 6.5H7.33333C6.59695 6.5 6 7.09695 6 7.83333V13.8333C6 14.5697 6.59695 15.1667 7.33333 15.1667H13.3333C14.0697 15.1667 14.6667 14.5697 14.6667 13.8333V7.83333C14.6667 7.09695 14.0697 6.5 13.3333 6.5Z"
         stroke="#9F9A9A"
         stroke-linecap="round"
         stroke-linejoin="round"
         id="path1" />
      <path
         style="color:#000000;fill:#000000;fill-opacity:0.2;stroke-linecap:round;stroke-linejoin:round;-inkscape-stroke:none"
         d="M 7.3339844,6 C 6.3273871,6 5.5,6.8273871 5.5,7.8339844 v 5.9999996 c 0,1.00661 0.8273645,1.832032 1.8339844,1.832032 h 5.9999996 c 1.006633,0 1.832032,-0.825399 1.832032,-1.832032 V 7.8339844 C 15.166016,6.8273645 14.340594,6 13.333984,6 Z m 0,1 h 5.9999996 c 0.466189,0 0.832032,0.3678457 0.832032,0.8339844 v 5.9999996 c 0,0.466166 -0.365866,0.832032 -0.832032,0.832032 H 7.3339844 C 6.8678457,14.666016 6.5,14.300173 6.5,13.833984 V 7.8339844 C 6.5,7.3678231 6.8678231,7 7.3339844,7 Z"
         id="path7" />
    </g>
    <g
       id="Vector_2">
      <path
         d="M3.33301 10.5H2.66634C1.92996 10.5 1.33301 9.90308 1.33301 9.16668V3.16668C1.33301 2.4303 1.92996 1.83334 2.66634 1.83334H8.66634C9.40274 1.83334 9.99967 2.4303 9.99967 3.16668V3.83334"
         stroke="#9F9A9A"
         stroke-linecap="round"
         stroke-linejoin="round"
         id="path3" />
      <path
         style="color:#000000;fill:#000000;fill-opacity:0.2;stroke-linecap:round;stroke-linejoin:round;-inkscape-stroke:none"
         d="m 2.6660156,1.3339844 c -1.0066018,0 -1.83203123,0.825434 -1.83203122,1.8320312 v 6 C 0.83398438,10.172626 1.6594319,11 2.6660156,11 h 0.6679688 c 0.2761424,0 0.5,-0.223858 0.5,-0.5 0,-0.276142 -0.2238576,-0.5 -0.5,-0.5 H 2.6660156 C 2.1998408,10 1.8339844,9.6322042 1.8339844,9.1660156 v -6 c 0,-0.4661612 0.3658745,-0.8320312 0.8320312,-0.8320312 h 6 C 9.1321997,2.3339844 9.5,2.6998453 9.5,3.1660156 v 0.6679688 c 0,0.2761424 0.2238576,0.5 0.5,0.5 0.276142,0 0.5,-0.2238576 0.5,-0.5 V 3.1660156 C 10.5,2.1594274 9.6726301,1.3339844 8.6660156,1.3339844 Z"
         id="path4"
         inkscape:path-effect="#path-effect2"
         inkscape:original-d="m 2.6660156,1.3339844 c -1.0066018,0 -1.83203123,0.825434 -1.83203122,1.8320312 v 6 C 0.83398438,10.172626 1.6594319,11 2.6660156,11 h 0.6679688 a 0.5,0.5 0 0 0 0.5,-0.5 0.5,0.5 0 0 0 -0.5,-0.5 H 2.6660156 C 2.1998408,10 1.8339844,9.6322042 1.8339844,9.1660156 v -6 c 0,-0.4661612 0.3658745,-0.8320312 0.8320312,-0.8320312 h 6 C 9.1321997,2.3339844 9.5,2.6998453 9.5,3.1660156 v 0.6679688 a 0.5,0.5 0 0 0 0.5,0.5 0.5,0.5 0 0 0 0.5,-0.5 V 3.1660156 C 10.5,2.1594274 9.6726301,1.3339844 8.6660156,1.3339844 Z" />
    </g>
  </g>
</svg>
