<?xml version="1.0" encoding="UTF-8" standalone="no"?>
<svg
   width="16"
   height="16"
   viewBox="0 0 16 16"
   fill="none"
   version="1.1"
   id="svg1"
   sodipodi:docname="dislike.svg"
   inkscape:version="1.3 (0e150ed6c4, 2023-07-21)"
   xmlns:inkscape="http://www.inkscape.org/namespaces/inkscape"
   xmlns:sodipodi="http://sodipodi.sourceforge.net/DTD/sodipodi-0.dtd"
   xmlns="http://www.w3.org/2000/svg"
   xmlns:svg="http://www.w3.org/2000/svg">
  <sodipodi:namedview
     id="namedview1"
     pagecolor="#ffffff"
     bordercolor="#000000"
     borderopacity="0.25"
     inkscape:showpageshadow="2"
     inkscape:pageopacity="0.0"
     inkscape:pagecheckerboard="0"
     inkscape:deskcolor="#d1d1d1"
     inkscape:zoom="51.9375"
     inkscape:cx="8"
     inkscape:cy="8"
     inkscape:window-width="1920"
     inkscape:window-height="1027"
     inkscape:window-x="-8"
     inkscape:window-y="-8"
     inkscape:window-maximized="1"
     inkscape:current-layer="Frame" />
  <g
     id="Frame"
     clip-path="url(#clip0_1500_6049)">
    <path
       style="color:#000000;fill:#000000;fill-opacity:0.95;stroke-linecap:round;stroke-linejoin:round;-inkscape-stroke:none"
       d="m 3.6269531,0.58398437 c -1.038921,0 -1.9242855,0.77630973 -2.0800781,1.80273443 L 0.60742187,8.5703125 C 0.41505736,9.8377197 1.4067641,11.015625 2.6894531,11.015625 h 3.0996094 c -0.013285,0.99558 -0.048652,1.911905 0.023437,2.476563 0.04696,0.367829 0.149926,0.72404 0.3652344,1.027343 0.2153083,0.303304 0.507771,0.507629 0.8144531,0.671875 1.0657513,0.570732 2.3402245,0.0014 2.8007813,-1.048828 L 11.767578,9.640625 h 1.542969 c 1.159544,0 2.105469,-0.9641798 2.105469,-2.1230469 V 2.7070313 c 0,-1.1588435 -0.945898,-2.12304693 -2.105469,-2.12304693 h -2.033203 z m 0,1.50000003 H 10.527344 V 8.7324219 L 8.4199219,13.539063 C 8.2795393,13.859195 7.9417261,13.999008 7.6992187,13.869141 7.4969014,13.760788 7.4331089,13.696481 7.4003906,13.650391 7.3676723,13.604301 7.3300232,13.529826 7.3007812,13.300781 7.2422973,12.842692 7.28125,11.885437 7.28125,10.265625 a 0.750075,0.750075 0 0 0 -0.75,-0.75 H 2.6894531 c -0.3791493,0 -0.6599246,-0.323312 -0.5996093,-0.7207031 L 3.0292969,2.6113281 C 3.077004,2.2970141 3.3275555,2.0839844 3.6269531,2.0839844 Z m 8.4003909,0 h 1.283203 c 0.337827,0 0.605469,0.2639918 0.605469,0.6230469 v 4.8105468 c 0,0.3591314 -0.267615,0.6230469 -0.605469,0.6230469 h -1.283203 z"
       id="Vector" />
  </g>
  <defs
     id="defs1">
    <clipPath
       id="clip0_1500_6049">
      <rect
         width="16"
         height="16"
         fill="white"
         id="rect1" />
    </clipPath>
  </defs>
</svg>
