<?xml version="1.0" encoding="UTF-8" standalone="no"?>
<svg
   width="24"
   height="24"
   viewBox="0 0 24 24"
   fill="none"
   version="1.1"
   id="svg2"
   sodipodi:docname="geo.svg"
   inkscape:version="1.3 (0e150ed6c4, 2023-07-21)"
   xmlns:inkscape="http://www.inkscape.org/namespaces/inkscape"
   xmlns:sodipodi="http://sodipodi.sourceforge.net/DTD/sodipodi-0.dtd"
   xmlns="http://www.w3.org/2000/svg"
   xmlns:svg="http://www.w3.org/2000/svg">
  <defs
     id="defs2" />
  <sodipodi:namedview
     id="namedview2"
     pagecolor="#ffffff"
     bordercolor="#000000"
     borderopacity="0.25"
     inkscape:showpageshadow="2"
     inkscape:pageopacity="0.0"
     inkscape:pagecheckerboard="0"
     inkscape:deskcolor="#d1d1d1"
     inkscape:zoom="34.208333"
     inkscape:cx="12"
     inkscape:cy="12"
     inkscape:window-width="1920"
     inkscape:window-height="1017"
     inkscape:window-x="-8"
     inkscape:window-y="-8"
     inkscape:window-maximized="1"
     inkscape:current-layer="svg2" />
  <path
     style="color:#000000;fill:#ddd9d9;stroke-linecap:round;stroke-linejoin:round;-inkscape-stroke:none"
     d="M 12,1 C 8.1615689,1 5.1537094,3.2990341 3.8046875,6.3027344 2.4556656,9.3064347 2.7349755,13.082579 5.2851562,15.951172 l 5.9667968,6.71289 a 1.0001,1.0001 0 0 0 1.496094,0 l 5.966797,-6.71289 c 1.341434,-1.50893 2.06637,-3.278607 2.242187,-5.044922 C 21.449698,5.9567589 17.657787,1 12,1 Z m 0,2 c 4.496911,0 7.347341,3.8839603 6.966797,7.707031 -0.135804,1.364332 -0.679948,2.716748 -1.746094,3.916016 L 12,20.494141 6.7792969,14.623047 C 4.7524622,12.343145 4.572208,9.4758662 5.6289062,7.1230469 6.6856045,4.7702275 8.949148,3 12,3 Z"
     id="path1" />
  <path
     style="color:#000000;fill:#ddd9d9;stroke-linecap:round;stroke-linejoin:round;-inkscape-stroke:none"
     d="m 12,6 c -2.1973247,0 -4,1.8027291 -4,4 0,2.197305 1.8026954,4 4,4 2.197305,0 4,-1.802695 4,-4 0,-2.1972709 -1.802675,-4 -4,-4 z m 0,2 c 1.116472,0 2,0.8835742 2,2 0,1.116492 -0.883508,2 -2,2 -1.116492,0 -2,-0.883508 -2,-2 0,-1.1164258 0.883528,-2 2,-2 z"
     id="path2" />
</svg>
