<?xml version="1.0" encoding="UTF-8" standalone="no"?>
<svg
   width="32"
   height="32"
   viewBox="0 0 32 32"
   fill="none"
   version="1.1"
   id="svg1"
   sodipodi:docname="heart.svg"
   inkscape:version="1.3 (0e150ed6c4, 2023-07-21)"
   xmlns:inkscape="http://www.inkscape.org/namespaces/inkscape"
   xmlns:sodipodi="http://sodipodi.sourceforge.net/DTD/sodipodi-0.dtd"
   xmlns="http://www.w3.org/2000/svg"
   xmlns:svg="http://www.w3.org/2000/svg">
  <defs
     id="defs1" />
  <sodipodi:namedview
     id="namedview1"
     pagecolor="#ffffff"
     bordercolor="#000000"
     borderopacity="0.25"
     inkscape:showpageshadow="2"
     inkscape:pageopacity="0.0"
     inkscape:pagecheckerboard="0"
     inkscape:deskcolor="#d1d1d1"
     inkscape:zoom="25.65625"
     inkscape:cx="16"
     inkscape:cy="16"
     inkscape:window-width="1920"
     inkscape:window-height="1017"
     inkscape:window-x="-8"
     inkscape:window-y="-8"
     inkscape:window-maximized="1"
     inkscape:current-layer="svg1" />
  <path
     style="color:#000000;fill:#000000;fill-opacity:0.95;stroke-linecap:round;stroke-linejoin:round;-inkscape-stroke:none"
     d="M 10.734375,3.0683594 C 8.5606755,2.8203236 6.2912527,3.4591357 4.5058594,5.0527344 0.90681555,8.2651124 0.69871571,13.960744 4.046875,17.447266 l 10.492188,10.925781 c 0.782439,0.814626 2.139435,0.814626 2.921874,0 l 5.927735,-6.171875 4.564453,-4.753906 C 31.301316,13.960746 31.093142,8.2651155 27.494141,5.0527344 24.061008,1.9885301 18.897585,2.5372262 16,6.0488281 14.609338,4.3634794 12.740351,3.2972566 10.734375,3.0683594 Z m -0.21875,1.953125 c 1.622019,0.1858513 3.174575,1.051475 4.255859,2.5527343 l 0.417969,0.5800782 a 1.0001,1.0001 0 0 0 1.623047,0 l 0.417969,-0.5800782 c 2.162577,-3.00253 6.205945,-3.4620858 8.93164,-1.0292968 2.747592,2.4524332 2.912212,6.8491031 0.34961,9.5175781 l -4.566407,4.753906 -5.927734,6.171875 c -0.02626,0.03032 -0.0026,0.03389 -0.03516,0 L 5.4902344,16.0625 C 2.9276596,13.394027 3.0902608,8.9973582 5.8378906,6.5449219 7.2006641,5.3285434 8.8936058,4.8356331 10.515625,5.0214844 Z"
     id="path1" />
</svg>
