<?xml version="1.0" encoding="UTF-8" standalone="no"?>
<svg
   width="25"
   height="25"
   viewBox="0 0 25 25"
   fill="none"
   version="1.1"
   id="svg2"
   sodipodi:docname="letter.svg"
   inkscape:version="1.3 (0e150ed6c4, 2023-07-21)"
   xmlns:inkscape="http://www.inkscape.org/namespaces/inkscape"
   xmlns:sodipodi="http://sodipodi.sourceforge.net/DTD/sodipodi-0.dtd"
   xmlns="http://www.w3.org/2000/svg"
   xmlns:svg="http://www.w3.org/2000/svg">
  <defs
     id="defs2" />
  <sodipodi:namedview
     id="namedview2"
     pagecolor="#ffffff"
     bordercolor="#000000"
     borderopacity="0.25"
     inkscape:showpageshadow="2"
     inkscape:pageopacity="0.0"
     inkscape:pagecheckerboard="0"
     inkscape:deskcolor="#d1d1d1"
     inkscape:zoom="32.84"
     inkscape:cx="12.5"
     inkscape:cy="12.5"
     inkscape:window-width="1920"
     inkscape:window-height="1017"
     inkscape:window-x="-8"
     inkscape:window-y="-8"
     inkscape:window-maximized="1"
     inkscape:current-layer="svg2" />
  <path
     style="color:#000000;fill:#db322b;stroke-linecap:round;stroke-linejoin:round;-inkscape-stroke:none"
     d="m 4.5,4.5097656 c -0.9576079,0 -1.75,0.7923804 -1.75,1.75 V 18.259766 c 0,0.957622 0.7924012,1.75 1.75,1.75 h 16 c 0.957604,0 1.75,-0.792396 1.75,-1.75 V 6.2597656 c 0,-0.9576014 -0.792387,-1.75 -1.75,-1.75 z m 0,1.5 h 16 c 0.146986,0 0.25,0.1030226 0.25,0.25 V 18.259766 c 0,0.146994 -0.103005,0.25 -0.25,0.25 h -16 c -0.1469601,0 -0.25,-0.103024 -0.25,-0.25 V 6.2597656 c 0,-0.1469593 0.103049,-0.25 0.25,-0.25 z"
     id="path1" />
  <path
     style="color:#000000;fill:#db322b;stroke-linecap:round;stroke-linejoin:round;-inkscape-stroke:none"
     d="M 4.4765625,5.0097656 A 0.75,0.75 0 0 0 3.953125,5.2460937 0.75,0.75 0 0 0 3.9863281,6.3066406 l 7.9999999,7.5000004 a 0.750075,0.750075 0 0 0 1.027344,0 l 8,-7.5000004 a 0.75,0.75 0 0 0 0.0332,-1.0605469 0.75,0.75 0 0 0 -1.060547,-0.033203 L 12.5,12.230469 5.0136719,5.2128906 A 0.75,0.75 0 0 0 4.4765625,5.0097656 Z"
     id="path2" />
</svg>
