<svg width="24" height="25" viewBox="0 0 24 25" fill="none" xmlns="http://www.w3.org/2000/svg">
<g id="prime:list">
<g id="Vector">
<path d="M19.0002 13.25H8.00023C7.80132 13.25 7.61055 13.171 7.4699 13.0303C7.32925 12.8897 7.25023 12.6989 7.25023 12.5C7.25023 12.3011 7.32925 12.1103 7.4699 11.9697C7.61055 11.829 7.80132 11.75 8.00023 11.75H19.0002C19.1991 11.75 19.3899 11.829 19.5306 11.9697C19.6712 12.1103 19.7502 12.3011 19.7502 12.5C19.7502 12.6989 19.6712 12.8897 19.5306 13.0303C19.3899 13.171 19.1991 13.25 19.0002 13.25ZM19.0002 8.74999H8.00023C7.80132 8.74999 7.61055 8.67097 7.4699 8.53032C7.32925 8.38967 7.25023 8.1989 7.25023 7.99999C7.25023 7.80108 7.32925 7.61031 7.4699 7.46966C7.61055 7.32901 7.80132 7.24999 8.00023 7.24999H19.0002C19.1991 7.24999 19.3899 7.32901 19.5306 7.46966C19.6712 7.61031 19.7502 7.80108 19.7502 7.99999C19.7502 8.1989 19.6712 8.38967 19.5306 8.53032C19.3899 8.67097 19.1991 8.74999 19.0002 8.74999ZM19.0002 17.75H8.00023C7.80132 17.75 7.61055 17.671 7.4699 17.5303C7.32925 17.3897 7.25023 17.1989 7.25023 17C7.25023 16.8011 7.32925 16.6103 7.4699 16.4697C7.61055 16.329 7.80132 16.25 8.00023 16.25H19.0002C19.1991 16.25 19.3899 16.329 19.5306 16.4697C19.6712 16.6103 19.7502 16.8011 19.7502 17C19.7502 17.1989 19.6712 17.3897 19.5306 17.5303C19.3899 17.671 19.1991 17.75 19.0002 17.75ZM5.00023 8.99999C4.87022 9.00158 4.74114 8.9778 4.62023 8.92999C4.50074 8.87201 4.38971 8.79799 4.29023 8.70999C4.19755 8.61655 4.12423 8.50573 4.07446 8.38389C4.0247 8.26206 3.99947 8.13159 4.00023 7.99999C4.00392 7.73522 4.1075 7.48162 4.29023 7.28999C4.3841 7.19739 4.49659 7.1258 4.62023 7.07999C4.86369 6.97997 5.13677 6.97997 5.38023 7.07999C5.50298 7.12758 5.61513 7.19895 5.71023 7.28999C5.89297 7.48162 5.99655 7.73522 6.00023 7.99999C6.00099 8.13159 5.97577 8.26206 5.926 8.38389C5.87624 8.50573 5.80291 8.61655 5.71023 8.70999C5.61075 8.79799 5.49973 8.87201 5.38023 8.92999C5.25932 8.9778 5.13025 9.00158 5.00023 8.99999ZM5.00023 13.5C4.86956 13.4984 4.74045 13.4712 4.62023 13.42C4.49905 13.3693 4.38743 13.2983 4.29023 13.21C4.19755 13.1165 4.12423 13.0057 4.07446 12.8839C4.0247 12.7621 3.99947 12.6316 4.00023 12.5C4.00392 12.2352 4.1075 11.9816 4.29023 11.79C4.38743 11.7017 4.49905 11.6306 4.62023 11.58C4.80125 11.4961 5.00325 11.4682 5.20023 11.5L5.38023 11.56L5.56023 11.65C5.61262 11.6869 5.66271 11.727 5.71023 11.77C5.8977 11.9666 6.00165 12.2283 6.00023 12.5C6.00023 12.7652 5.89488 13.0196 5.70734 13.2071C5.5198 13.3946 5.26545 13.5 5.00023 13.5ZM5.00023 18C4.87022 18.0016 4.74114 17.9778 4.62023 17.93C4.50074 17.872 4.38971 17.798 4.29023 17.71C4.2019 17.6128 4.13087 17.5012 4.08023 17.38C4.02733 17.2603 4 17.1309 4 17C4 16.8691 4.02733 16.7397 4.08023 16.62C4.13087 16.4988 4.2019 16.3872 4.29023 16.29C4.43086 16.1512 4.60943 16.0572 4.80342 16.0199C4.99741 15.9825 5.19812 16.0034 5.38023 16.08C5.50298 16.1276 5.61513 16.1989 5.71023 16.29C5.79856 16.3872 5.86959 16.4988 5.92023 16.62C5.97314 16.7397 6.00047 16.8691 6.00047 17C6.00047 17.1309 5.97314 17.2603 5.92023 17.38C5.86959 17.5012 5.79856 17.6128 5.71023 17.71C5.61679 17.8027 5.50598 17.876 5.38414 17.9258C5.2623 17.9755 5.13184 18.0007 5.00023 18Z" fill="#9F9A9A"/>
<path d="M19.0002 13.25H8.00023C7.80132 13.25 7.61055 13.171 7.4699 13.0303C7.32925 12.8897 7.25023 12.6989 7.25023 12.5C7.25023 12.3011 7.32925 12.1103 7.4699 11.9697C7.61055 11.829 7.80132 11.75 8.00023 11.75H19.0002C19.1991 11.75 19.3899 11.829 19.5306 11.9697C19.6712 12.1103 19.7502 12.3011 19.7502 12.5C19.7502 12.6989 19.6712 12.8897 19.5306 13.0303C19.3899 13.171 19.1991 13.25 19.0002 13.25ZM19.0002 8.74999H8.00023C7.80132 8.74999 7.61055 8.67097 7.4699 8.53032C7.32925 8.38967 7.25023 8.1989 7.25023 7.99999C7.25023 7.80108 7.32925 7.61031 7.4699 7.46966C7.61055 7.32901 7.80132 7.24999 8.00023 7.24999H19.0002C19.1991 7.24999 19.3899 7.32901 19.5306 7.46966C19.6712 7.61031 19.7502 7.80108 19.7502 7.99999C19.7502 8.1989 19.6712 8.38967 19.5306 8.53032C19.3899 8.67097 19.1991 8.74999 19.0002 8.74999ZM19.0002 17.75H8.00023C7.80132 17.75 7.61055 17.671 7.4699 17.5303C7.32925 17.3897 7.25023 17.1989 7.25023 17C7.25023 16.8011 7.32925 16.6103 7.4699 16.4697C7.61055 16.329 7.80132 16.25 8.00023 16.25H19.0002C19.1991 16.25 19.3899 16.329 19.5306 16.4697C19.6712 16.6103 19.7502 16.8011 19.7502 17C19.7502 17.1989 19.6712 17.3897 19.5306 17.5303C19.3899 17.671 19.1991 17.75 19.0002 17.75ZM5.00023 8.99999C4.87022 9.00158 4.74114 8.9778 4.62023 8.92999C4.50074 8.87201 4.38971 8.79799 4.29023 8.70999C4.19755 8.61655 4.12423 8.50573 4.07446 8.38389C4.0247 8.26206 3.99947 8.13159 4.00023 7.99999C4.00392 7.73522 4.1075 7.48162 4.29023 7.28999C4.3841 7.19739 4.49659 7.1258 4.62023 7.07999C4.86369 6.97997 5.13677 6.97997 5.38023 7.07999C5.50298 7.12758 5.61513 7.19895 5.71023 7.28999C5.89297 7.48162 5.99655 7.73522 6.00023 7.99999C6.00099 8.13159 5.97577 8.26206 5.926 8.38389C5.87624 8.50573 5.80291 8.61655 5.71023 8.70999C5.61075 8.79799 5.49973 8.87201 5.38023 8.92999C5.25932 8.9778 5.13025 9.00158 5.00023 8.99999ZM5.00023 13.5C4.86956 13.4984 4.74045 13.4712 4.62023 13.42C4.49905 13.3693 4.38743 13.2983 4.29023 13.21C4.19755 13.1165 4.12423 13.0057 4.07446 12.8839C4.0247 12.7621 3.99947 12.6316 4.00023 12.5C4.00392 12.2352 4.1075 11.9816 4.29023 11.79C4.38743 11.7017 4.49905 11.6306 4.62023 11.58C4.80125 11.4961 5.00325 11.4682 5.20023 11.5L5.38023 11.56L5.56023 11.65C5.61262 11.6869 5.66271 11.727 5.71023 11.77C5.8977 11.9666 6.00165 12.2283 6.00023 12.5C6.00023 12.7652 5.89488 13.0196 5.70734 13.2071C5.5198 13.3946 5.26545 13.5 5.00023 13.5ZM5.00023 18C4.87022 18.0016 4.74114 17.9778 4.62023 17.93C4.50074 17.872 4.38971 17.798 4.29023 17.71C4.2019 17.6128 4.13087 17.5012 4.08023 17.38C4.02733 17.2603 4 17.1309 4 17C4 16.8691 4.02733 16.7397 4.08023 16.62C4.13087 16.4988 4.2019 16.3872 4.29023 16.29C4.43086 16.1512 4.60943 16.0572 4.80342 16.0199C4.99741 15.9825 5.19812 16.0034 5.38023 16.08C5.50298 16.1276 5.61513 16.1989 5.71023 16.29C5.79856 16.3872 5.86959 16.4988 5.92023 16.62C5.97314 16.7397 6.00047 16.8691 6.00047 17C6.00047 17.1309 5.97314 17.2603 5.92023 17.38C5.86959 17.5012 5.79856 17.6128 5.71023 17.71C5.61679 17.8027 5.50598 17.876 5.38414 17.9258C5.2623 17.9755 5.13184 18.0007 5.00023 18Z" fill="black" fill-opacity="0.2"/>
</g>
</g>
</svg>
