<?xml version="1.0" encoding="UTF-8" standalone="no"?>
<svg
   width="24"
   height="24"
   viewBox="0 0 24 24"
   fill="none"
   version="1.1"
   id="svg2"
   sodipodi:docname="mail.svg"
   inkscape:version="1.3 (0e150ed6c4, 2023-07-21)"
   xmlns:inkscape="http://www.inkscape.org/namespaces/inkscape"
   xmlns:sodipodi="http://sodipodi.sourceforge.net/DTD/sodipodi-0.dtd"
   xmlns="http://www.w3.org/2000/svg"
   xmlns:svg="http://www.w3.org/2000/svg">
  <defs
     id="defs2" />
  <sodipodi:namedview
     id="namedview2"
     pagecolor="#ffffff"
     bordercolor="#000000"
     borderopacity="0.25"
     inkscape:showpageshadow="2"
     inkscape:pageopacity="0.0"
     inkscape:pagecheckerboard="0"
     inkscape:deskcolor="#d1d1d1"
     inkscape:zoom="34.208333"
     inkscape:cx="12"
     inkscape:cy="12"
     inkscape:window-width="1920"
     inkscape:window-height="1017"
     inkscape:window-x="-8"
     inkscape:window-y="-8"
     inkscape:window-maximized="1"
     inkscape:current-layer="svg2" />
  <path
     style="color:#000000;fill:#f5f5f5;stroke-linecap:round;stroke-linejoin:round;-inkscape-stroke:none"
     d="M 6.8261719,8.015625 A 1,1 0 0 0 6.1816406,8.4257813 1,1 0 0 0 6.4257812,9.8183594 l 4.9999998,3.4999996 a 1.0001,1.0001 0 0 0 1.148438,0 l 5,-3.4999996 A 1,1 0 0 0 17.818359,8.4257813 1,1 0 0 0 16.425781,8.1816406 L 12,11.279297 7.5742187,8.1816406 A 1,1 0 0 0 6.8261719,8.015625 Z"
     id="path1" />
  <path
     style="color:#000000;fill:#f5f5f5;-inkscape-stroke:none"
     d="M 4,4 C 3.2047416,4 2.4412465,4.316551 1.8789062,4.8789062 1.316551,5.4412465 1,6.2047416 1,7 v 10 c 0,0.795243 0.3165904,1.558748 0.8789062,2.121094 C 2.4412548,19.683487 3.2047542,20 4,20 h 16 c 0.795231,0 1.55874,-0.316552 2.121094,-0.878906 C 22.683448,18.55874 23,17.795231 23,17 V 7 C 23,6.2047542 22.683487,5.4412548 22.121094,4.8789062 21.558748,4.3165904 20.795243,4 20,4 Z m 0,2 h 16 c 0.265556,0 0.519178,0.1051254 0.707031,0.2929687 C 20.894837,6.4807594 21,6.7343869 21,7 v 10 c 0,0.265568 -0.105124,0.519186 -0.292969,0.707031 C 20.519186,17.894876 20.265568,18 20,18 H 4 C 3.7343869,18 3.4807594,17.894837 3.2929688,17.707031 3.1051254,17.519178 3,17.265556 3,17 V 7 C 3,6.7343994 3.1051647,6.4807678 3.2929688,6.2929687 3.4807678,6.1051647 3.7343994,6 4,6 Z"
     id="path2" />
</svg>
