<?xml version="1.0" encoding="UTF-8" standalone="no"?>
<svg
   width="16"
   height="17"
   viewBox="0 0 16 17"
   fill="none"
   version="1.1"
   id="svg4"
   sodipodi:docname="order.svg"
   inkscape:version="1.3 (0e150ed6c4, 2023-07-21)"
   xmlns:inkscape="http://www.inkscape.org/namespaces/inkscape"
   xmlns:sodipodi="http://sodipodi.sourceforge.net/DTD/sodipodi-0.dtd"
   xmlns="http://www.w3.org/2000/svg"
   xmlns:svg="http://www.w3.org/2000/svg">
  <defs
     id="defs4" />
  <sodipodi:namedview
     id="namedview4"
     pagecolor="#ffffff"
     bordercolor="#000000"
     borderopacity="0.25"
     inkscape:showpageshadow="2"
     inkscape:pageopacity="0.0"
     inkscape:pagecheckerboard="0"
     inkscape:deskcolor="#d1d1d1"
     inkscape:zoom="48.294118"
     inkscape:cx="8.0030451"
     inkscape:cy="8.5"
     inkscape:window-width="1920"
     inkscape:window-height="1017"
     inkscape:window-x="-8"
     inkscape:window-y="-8"
     inkscape:window-maximized="1"
     inkscape:current-layer="svg4" />
  <path
     style="color:#000000;fill:#000000;fill-opacity:0.95;stroke-linecap:round;stroke-linejoin:round;-inkscape-stroke:none"
     d="m 4,1.015625 c -0.6384122,0 -1.1660156,0.5276035 -1.1660156,1.1660156 V 14.849609 a 0.50005,0.50005 0 0 0 0.8125,0.390625 l 1.3164062,-1.054687 1.0175781,1.017578 a 0.50005,0.50005 0 0 0 0.6660157,0.03711 L 8,14.15625 9.3535156,15.240234 a 0.50005,0.50005 0 0 0 0.6660154,-0.03711 l 1.017578,-1.017578 1.316407,1.054687 a 0.50005,0.50005 0 0 0 0.8125,-0.390625 V 2.1816406 C 13.166016,1.5432104 12.638415,1.015625 12,1.015625 Z m 0,1 h 8 c 0.09798,0 0.166016,0.068067 0.166016,0.1660156 V 13.808594 L 11.3125,13.125 a 0.50005,0.50005 0 0 0 -0.666016,0.03711 L 9.6289063,14.179688 8.3125,13.125 a 0.50005,0.50005 0 0 0 -0.625,0 L 6.3710937,14.179688 5.3535156,13.162109 A 0.50005,0.50005 0 0 0 4.6875,13.125 L 3.8339844,13.808594 V 2.1816406 C 3.8339844,2.0836735 3.9020329,2.015625 4,2.015625 Z"
     id="path1" />
  <path
     style="color:#000000;fill:#000000;fill-opacity:0.95;stroke-linecap:round;stroke-linejoin:round;-inkscape-stroke:none"
     d="m 6,3.6816406 a 0.5,0.5 0 0 0 -0.5,0.5 0.5,0.5 0 0 0 0.5,0.5 h 4 a 0.5,0.5 0 0 0 0.5,-0.5 0.5,0.5 0 0 0 -0.5,-0.5 z"
     id="path2" />
  <path
     style="color:#000000;fill:#000000;fill-opacity:0.95;stroke-linecap:round;stroke-linejoin:round;-inkscape-stroke:none"
     d="m 6,6.3496094 a 0.5,0.5 0 0 0 -0.5,0.5 0.5,0.5 0 0 0 0.5,0.5 H 7.765625 10 a 0.5,0.5 0 0 0 0.5,-0.5 0.5,0.5 0 0 0 -0.5,-0.5 H 7.765625 Z"
     id="path3" />
  <path
     style="color:#000000;fill:#000000;fill-opacity:0.95;stroke-linecap:round;stroke-linejoin:round;-inkscape-stroke:none"
     d="m 6,9.015625 a 0.5,0.5 0 0 0 -0.5,0.5 0.5,0.5 0 0 0 0.5,0.5 h 0.6660156 a 0.5,0.5 0 0 0 0.5,-0.5 0.5,0.5 0 0 0 -0.5,-0.5 z"
     id="path4" />
</svg>
