<?xml version="1.0" encoding="UTF-8" standalone="no"?>
<svg
   width="16"
   height="17"
   viewBox="0 0 16 17"
   fill="none"
   version="1.1"
   id="svg2"
   sodipodi:docname="pc.svg"
   inkscape:version="1.3 (0e150ed6c4, 2023-07-21)"
   xmlns:inkscape="http://www.inkscape.org/namespaces/inkscape"
   xmlns:sodipodi="http://sodipodi.sourceforge.net/DTD/sodipodi-0.dtd"
   xmlns="http://www.w3.org/2000/svg"
   xmlns:svg="http://www.w3.org/2000/svg">
  <defs
     id="defs2" />
  <sodipodi:namedview
     id="namedview2"
     pagecolor="#ffffff"
     bordercolor="#000000"
     borderopacity="0.25"
     inkscape:showpageshadow="2"
     inkscape:pageopacity="0.0"
     inkscape:pagecheckerboard="0"
     inkscape:deskcolor="#d1d1d1"
     inkscape:zoom="48.294118"
     inkscape:cx="8.0030451"
     inkscape:cy="8.5"
     inkscape:window-width="1920"
     inkscape:window-height="1017"
     inkscape:window-x="-8"
     inkscape:window-y="-8"
     inkscape:window-maximized="1"
     inkscape:current-layer="svg2" />
  <path
     style="color:#000000;fill:#000000;fill-opacity:0.95;stroke-linecap:round;stroke-linejoin:round;-inkscape-stroke:none"
     d="M 2.6660156,3.03125 C 2.0276035,3.03125 1.5,3.5608066 1.5,4.1992187 v 6.6660153 c 0,0.638415 0.5275854,1.166016 1.1660156,1.166016 H 13.333984 C 13.972417,12.03125 14.5,11.503667 14.5,10.865234 V 4.1992187 C 14.5,3.5607885 13.972399,3.03125 13.333984,3.03125 Z m 0,1 H 13.333984 c 0.09799,0 0.166016,0.07002 0.166016,0.1679687 v 6.6660153 c 0,0.09797 -0.06805,0.166016 -0.166016,0.166016 H 2.6660156 C 2.5680666,11.03125 2.5,10.963219 2.5,10.865234 V 4.1992187 C 2.5,4.1012516 2.5680485,4.03125 2.6660156,4.03125 Z"
     id="path1" />
  <path
     style="color:#000000;fill:#000000;fill-opacity:0.95;stroke-linecap:round;stroke-linejoin:round;-inkscape-stroke:none"
     d="m 1.3339844,13.699219 a 0.5,0.5 0 0 0 -0.50000002,0.5 0.5,0.5 0 0 0 0.50000002,0.5 H 14.666016 a 0.5,0.5 0 0 0 0.5,-0.5 0.5,0.5 0 0 0 -0.5,-0.5 z"
     id="path2" />
</svg>
