<?xml version="1.0" encoding="UTF-8" standalone="no"?>
<svg
   width="24"
   height="24"
   viewBox="0 0 24 24"
   fill="none"
   version="1.1"
   id="svg1"
   sodipodi:docname="phone.svg"
   inkscape:version="1.3 (0e150ed6c4, 2023-07-21)"
   xmlns:inkscape="http://www.inkscape.org/namespaces/inkscape"
   xmlns:sodipodi="http://sodipodi.sourceforge.net/DTD/sodipodi-0.dtd"
   xmlns="http://www.w3.org/2000/svg"
   xmlns:svg="http://www.w3.org/2000/svg">
  <defs
     id="defs1" />
  <sodipodi:namedview
     id="namedview1"
     pagecolor="#ffffff"
     bordercolor="#000000"
     borderopacity="0.25"
     inkscape:showpageshadow="2"
     inkscape:pageopacity="0.0"
     inkscape:pagecheckerboard="0"
     inkscape:deskcolor="#d1d1d1"
     inkscape:zoom="34.208333"
     inkscape:cx="12"
     inkscape:cy="12"
     inkscape:window-width="1920"
     inkscape:window-height="1017"
     inkscape:window-x="-8"
     inkscape:window-y="-8"
     inkscape:window-maximized="1"
     inkscape:current-layer="svg1" />
  <path
     style="color:#000000;fill:#ddd9d9;stroke-linecap:round;stroke-linejoin:round;-inkscape-stroke:none"
     d="M 3.5117188,1 C 2.580136,0.9999944 1.6902438,1.5832944 1.3222656,2.3730469 0.95428749,3.1627993 0.93553949,4.0550983 1.0742187,5.0429687 1.3515773,7.0187097 2.3431365,9.44869 3.9121094,11.941406 c 3.1379457,4.985433 8.6521216,10.210918 15.7910156,11.041016 1.608795,0.186962 2.948157,-1.12094 3.064453,-2.669922 l 0.224609,-2.982422 c 0.108237,-1.444629 -0.825362,-2.786612 -2.228515,-3.146484 l -3.484375,-0.894531 c -0.766292,-0.1964 -1.582158,-0.07091 -2.255859,0.34375 l -1.123047,0.691406 C 12.122772,12.970131 10.494174,11.110188 9.6425781,9.9726563 L 10.625,8.4609375 C 11.167106,7.6269043 11.267409,6.5805101 10.894531,5.6582031 L 9.8183594,2.9960938 C 9.3813984,1.9151222 8.3508597,1.17497 7.1855469,1.1328125 L 3.546875,1 a 1.0001,1.0001 0 0 0 -0.035156,0 z m -0.00195,2.0019531 3.6035156,0.1289063 c 0.3677057,0.013302 0.699031,0.2407742 0.8496094,0.6132812 L 9.0390625,6.40625 c 0.1280022,0.3166118 0.09339,0.682938 -0.089844,0.9648437 L 7.5703125,9.4921875 a 1.0001,1.0001 0 0 0 0.017578,1.1171875 c 0.8835933,1.268833 3.0958994,4.037853 5.6425784,5.779297 a 1.0001,1.0001 0 0 0 1.089844,0.02539 l 1.751953,-1.078124 c 0.217297,-0.133744 0.46903,-0.171376 0.710937,-0.109375 l 3.484375,0.894531 c 0.450445,0.115527 0.766679,0.549225 0.728516,1.058593 l -0.222657,2.984375 c -0.0409,0.544816 -0.41444,0.881469 -0.839843,0.832032 C 13.646951,20.265094 8.5105939,15.495593 5.6035156,10.876953 4.1499765,8.567633 3.269221,6.2938371 3.0546875,4.765625 2.9474208,4.001519 3.0303483,3.4408967 3.1347656,3.2167969 c 0.103777,-0.2227255 0.065035,-0.2149209 0.375,-0.2148438 z"
     id="path1" />
</svg>
