<svg width="28" height="34" viewBox="0 0 28 34" fill="none" xmlns="http://www.w3.org/2000/svg">
<path d="M12.1316 28.661C12.606 29.1947 13.286 29.5 14 29.5C14.714 29.5 15.394 29.1947 15.8684 28.661L21.836 21.9483L19.9676 20.2873L21.836 21.9483C27.8467 15.1871 23.0459 4.5 14 4.5C4.95411 4.5 0.15329 15.1871 6.16397 21.9483L8.01347 20.3041L6.16397 21.9483L12.1316 28.661Z" fill="#DB322B" stroke="#DB322B" stroke-width="5" stroke-linecap="round" stroke-linejoin="round"/>
<path d="M8.03239 20.2873L14 27L19.9676 20.2873C24.5446 15.1388 20.8893 7 14 7C7.11068 7 3.45538 15.1388 8.03239 20.2873Z" stroke="#F5F5F5" stroke-width="2" stroke-linecap="round" stroke-linejoin="round"/>
<path d="M14 18C15.6569 18 17 16.6569 17 15C17 13.3431 15.6569 12 14 12C12.3431 12 11 13.3431 11 15C11 16.6569 12.3431 18 14 18Z" stroke="#F5F5F5" stroke-width="2" stroke-linecap="round" stroke-linejoin="round"/>
</svg>
