<?xml version="1.0" encoding="UTF-8" standalone="no"?>
<svg
   width="20"
   height="20"
   viewBox="0 0 20 20"
   fill="none"
   version="1.1"
   id="svg1"
   sodipodi:docname="search.svg"
   inkscape:version="1.3 (0e150ed6c4, 2023-07-21)"
   xmlns:inkscape="http://www.inkscape.org/namespaces/inkscape"
   xmlns:sodipodi="http://sodipodi.sourceforge.net/DTD/sodipodi-0.dtd"
   xmlns="http://www.w3.org/2000/svg"
   xmlns:svg="http://www.w3.org/2000/svg">
  <sodipodi:namedview
     id="namedview1"
     pagecolor="#ffffff"
     bordercolor="#000000"
     borderopacity="0.25"
     inkscape:showpageshadow="2"
     inkscape:pageopacity="0.0"
     inkscape:pagecheckerboard="0"
     inkscape:deskcolor="#d1d1d1"
     inkscape:zoom="41.05"
     inkscape:cx="10"
     inkscape:cy="10"
     inkscape:window-width="1920"
     inkscape:window-height="1017"
     inkscape:window-x="-8"
     inkscape:window-y="-8"
     inkscape:window-maximized="1"
     inkscape:current-layer="g1" />
  <g
     clip-path="url(#clip0_83_1235)"
     id="g1">
    <path
       style="color:#000000;fill:#f5f5f5;stroke-linecap:round;stroke-linejoin:round;-inkscape-stroke:none"
       d="m 8.9589844,0.91601563 c -4.4324053,0 -8.04296877,3.61057247 -8.04296877,8.04296877 C 0.91601562,13.391363 4.5265779,17 8.9589844,17 10.90024,17 12.616404,16.218946 14.007813,15.068359 l 3.794921,3.794922 a 0.75,0.75 0 0 0 1.060547,0 0.75,0.75 0 0 0 0,-1.060547 L 15.068359,14.007813 C 16.219879,12.616128 17,10.90112 17,8.9589844 17,4.5265869 13.391354,0.91601562 8.9589844,0.91601563 Z m 0,1.49999997 C 12.580687,2.4160156 15.5,5.3372499 15.5,8.9589844 15.5,12.580697 12.580686,15.5 8.9589844,15.5 5.3372389,15.5 2.4160156,12.580698 2.4160156,8.9589844 c 0,-3.6217357 2.9212221,-6.5429688 6.5429688,-6.5429688 z"
       id="path1" />
  </g>
  <defs
     id="defs1">
    <clipPath
       id="clip0_83_1235">
      <rect
         width="20"
         height="20"
         fill="white"
         id="rect1" />
    </clipPath>
  </defs>
</svg>
