<svg width="24" height="25" viewBox="0 0 24 25" fill="none" xmlns="http://www.w3.org/2000/svg">
<path d="M9 11.75H6C5.40326 11.75 4.83097 11.5129 4.40901 11.091C3.98705 10.669 3.75 10.0967 3.75 9.5V6.5C3.75 5.90326 3.98705 5.33097 4.40901 4.90901C4.83097 4.48705 5.40326 4.25 6 4.25H9C9.59674 4.25 10.169 4.48705 10.591 4.90901C11.0129 5.33097 11.25 5.90326 11.25 6.5V9.5C11.25 10.0967 11.0129 10.669 10.591 11.091C10.169 11.5129 9.59674 11.75 9 11.75ZM6 5.75C5.80189 5.75259 5.61263 5.83244 5.47253 5.97253C5.33244 6.11263 5.25259 6.30189 5.25 6.5V9.5C5.25259 9.69811 5.33244 9.88737 5.47253 10.0275C5.61263 10.1676 5.80189 10.2474 6 10.25H9C9.19811 10.2474 9.38737 10.1676 9.52747 10.0275C9.66756 9.88737 9.74741 9.69811 9.75 9.5V6.5C9.74741 6.30189 9.66756 6.11263 9.52747 5.97253C9.38737 5.83244 9.19811 5.75259 9 5.75H6ZM9 20.75H6C5.40326 20.75 4.83097 20.5129 4.40901 20.091C3.98705 19.669 3.75 19.0967 3.75 18.5V15.5C3.75 14.9033 3.98705 14.331 4.40901 13.909C4.83097 13.4871 5.40326 13.25 6 13.25H9C9.59674 13.25 10.169 13.4871 10.591 13.909C11.0129 14.331 11.25 14.9033 11.25 15.5V18.5C11.25 19.0967 11.0129 19.669 10.591 20.091C10.169 20.5129 9.59674 20.75 9 20.75ZM6 14.75C5.80189 14.7526 5.61263 14.8324 5.47253 14.9725C5.33244 15.1126 5.25259 15.3019 5.25 15.5V18.5C5.25259 18.6981 5.33244 18.8874 5.47253 19.0275C5.61263 19.1676 5.80189 19.2474 6 19.25H9C9.19811 19.2474 9.38737 19.1676 9.52747 19.0275C9.66756 18.8874 9.74741 18.6981 9.75 18.5V15.5C9.74741 15.3019 9.66756 15.1126 9.52747 14.9725C9.38737 14.8324 9.19811 14.7526 9 14.75H6ZM18 11.75H15C14.4033 11.75 13.831 11.5129 13.409 11.091C12.9871 10.669 12.75 10.0967 12.75 9.5V6.5C12.75 5.90326 12.9871 5.33097 13.409 4.90901C13.831 4.48705 14.4033 4.25 15 4.25H18C18.5967 4.25 19.169 4.48705 19.591 4.90901C20.0129 5.33097 20.25 5.90326 20.25 6.5V9.5C20.25 10.0967 20.0129 10.669 19.591 11.091C19.169 11.5129 18.5967 11.75 18 11.75ZM15 5.75C14.8019 5.75259 14.6126 5.83244 14.4725 5.97253C14.3324 6.11263 14.2526 6.30189 14.25 6.5V9.5C14.2526 9.69811 14.3324 9.88737 14.4725 10.0275C14.6126 10.1676 14.8019 10.2474 15 10.25H18C18.1981 10.2474 18.3874 10.1676 18.5275 10.0275C18.6676 9.88737 18.7474 9.69811 18.75 9.5V6.5C18.7474 6.30189 18.6676 6.11263 18.5275 5.97253C18.3874 5.83244 18.1981 5.75259 18 5.75H15ZM18 20.75H15C14.4033 20.75 13.831 20.5129 13.409 20.091C12.9871 19.669 12.75 19.0967 12.75 18.5V15.5C12.75 14.9033 12.9871 14.331 13.409 13.909C13.831 13.4871 14.4033 13.25 15 13.25H18C18.5967 13.25 19.169 13.4871 19.591 13.909C20.0129 14.331 20.25 14.9033 20.25 15.5V18.5C20.25 19.0967 20.0129 19.669 19.591 20.091C19.169 20.5129 18.5967 20.75 18 20.75ZM15 14.75C14.8019 14.7526 14.6126 14.8324 14.4725 14.9725C14.3324 15.1126 14.2526 15.3019 14.25 15.5V18.5C14.2526 18.6981 14.3324 18.8874 14.4725 19.0275C14.6126 19.1676 14.8019 19.2474 15 19.25H18C18.1981 19.2474 18.3874 19.1676 18.5275 19.0275C18.6676 18.8874 18.7474 18.6981 18.75 18.5V15.5C18.7474 15.3019 18.6676 15.1126 18.5275 14.9725C18.3874 14.8324 18.1981 14.7526 18 14.75H15Z" fill="#373737"/>
</svg>
