<?xml version="1.0" encoding="UTF-8" standalone="no"?>
<svg
   width="16"
   height="17"
   viewBox="0 0 16 17"
   fill="none"
   version="1.1"
   id="svg3"
   sodipodi:docname="usb.svg"
   inkscape:version="1.3 (0e150ed6c4, 2023-07-21)"
   xmlns:inkscape="http://www.inkscape.org/namespaces/inkscape"
   xmlns:sodipodi="http://sodipodi.sourceforge.net/DTD/sodipodi-0.dtd"
   xmlns="http://www.w3.org/2000/svg"
   xmlns:svg="http://www.w3.org/2000/svg">
  <defs
     id="defs3" />
  <sodipodi:namedview
     id="namedview3"
     pagecolor="#ffffff"
     bordercolor="#000000"
     borderopacity="0.25"
     inkscape:showpageshadow="2"
     inkscape:pageopacity="0.0"
     inkscape:pagecheckerboard="0"
     inkscape:deskcolor="#d1d1d1"
     inkscape:zoom="48.294118"
     inkscape:cx="8.0030451"
     inkscape:cy="8.5"
     inkscape:window-width="1920"
     inkscape:window-height="1017"
     inkscape:window-x="-8"
     inkscape:window-y="-8"
     inkscape:window-maximized="1"
     inkscape:current-layer="svg3" />
  <path
     style="color:#000000;fill:#000000;fill-opacity:0.95;stroke-linecap:round;stroke-linejoin:round;-inkscape-stroke:none"
     d="m 6,2.3652344 c -1.0066018,0 -1.8339844,0.8273871 -1.8339844,1.8339843 v 4.0000001 a 0.50005,0.50005 0 0 0 0.5,0.5 h 6.6679684 a 0.50005,0.50005 0 0 0 0.5,-0.5 V 4.1992187 C 11.833984,3.1926441 11.00664,2.3652344 10,2.3652344 Z m 0,1 h 4 c 0.466239,0 0.833984,0.3678005 0.833984,0.8339843 v 3.5 H 5.1660156 v -3.5 C 5.1660156,3.7330575 5.5338433,3.3652344 6,3.3652344 Z"
     id="path1" />
  <path
     style="color:#000000;fill:#000000;fill-opacity:0.95;stroke-linecap:round;stroke-linejoin:round;-inkscape-stroke:none"
     d="m 4,7.6992187 c -0.6383941,10e-8 -1.1660156,0.5276009 -1.1660156,1.1660157 v 5.9999996 a 0.5,0.5 0 0 0 0.5,0.5 0.5,0.5 0 0 0 0.5,-0.5 V 8.8652344 c 0,-0.097985 0.06803,-0.1660156 0.1660156,-0.1660156 h 8 c 0.098,0 0.166016,0.068049 0.166016,0.1660156 v 5.9999996 a 0.5,0.5 0 0 0 0.5,0.5 0.5,0.5 0 0 0 0.5,-0.5 V 8.8652344 C 13.166016,8.2268014 12.638397,7.6992188 12,7.6992187 Z"
     id="path2" />
  <path
     style="color:#000000;fill:#000000;fill-opacity:0.95;stroke-linecap:round;stroke-linejoin:round;-inkscape-stroke:none"
     d="m 7.3339844,5.6992187 a 0.5,0.5 0 0 0 -0.5,0.5 0.5,0.5 0 0 0 0.5,0.5 h 1.3320312 a 0.5,0.5 0 0 0 0.5,-0.5 0.5,0.5 0 0 0 -0.5,-0.5 z"
     id="path3" />
</svg>
