<?xml version="1.0" encoding="UTF-8" standalone="no"?>
<svg
   width="24"
   height="24"
   viewBox="0 0 24 24"
   fill="none"
   version="1.1"
   id="svg5"
   sodipodi:docname="viber.svg"
   inkscape:version="1.3 (0e150ed6c4, 2023-07-21)"
   xmlns:inkscape="http://www.inkscape.org/namespaces/inkscape"
   xmlns:sodipodi="http://sodipodi.sourceforge.net/DTD/sodipodi-0.dtd"
   xmlns="http://www.w3.org/2000/svg"
   xmlns:svg="http://www.w3.org/2000/svg">
  <defs
     id="defs5" />
  <sodipodi:namedview
     id="namedview5"
     pagecolor="#ffffff"
     bordercolor="#000000"
     borderopacity="0.25"
     inkscape:showpageshadow="2"
     inkscape:pageopacity="0.0"
     inkscape:pagecheckerboard="0"
     inkscape:deskcolor="#d1d1d1"
     inkscape:zoom="34.208333"
     inkscape:cx="12"
     inkscape:cy="12"
     inkscape:window-width="1920"
     inkscape:window-height="1017"
     inkscape:window-x="-8"
     inkscape:window-y="-8"
     inkscape:window-maximized="1"
     inkscape:current-layer="svg5" />
  <path
     style="color:#000000;fill:#f5f5f5;stroke-linecap:round;stroke-linejoin:round;stroke-miterlimit:10;-inkscape-stroke:none"
     d="M 12.404297,0.734375 C 12.388742,0.73344705 10.945601,0.64680295 9.1367188,0.88476563 7.3181262,1.1240057 5.1148785,1.6738589 3.5957031,3.0683594 a 0.50005,0.50005 0 0 0 -0.015625,0.013672 C 1.9074762,4.7545246 1.3492637,7.170087 1.2890625,10.029297 c -0.029534,1.402462 -0.072232,3.4703 0.5703125,5.417969 0.6100974,1.849315 1.935605,3.57179 4.3613281,4.390625 l -0.00391,1.824218 c 0,0 -0.013969,0.284238 0.072266,0.609375 0.086234,0.325137 0.3159321,0.788873 0.8300781,0.945313 0.5136388,0.158953 1.0280052,-0.04363 1.3671875,-0.328125 0.3400988,-0.285259 0.6087584,-0.639496 0.9257813,-0.980469 0.3328065,-0.35954 0.7579006,-0.849399 1.1191406,-1.265625 1.640634,0.112555 3.134299,0.04888 4.226563,-0.08789 1.162928,-0.145615 1.876547,-0.324161 2.115234,-0.40039 a 0.50005,0.50005 0 0 0 0.0039,-0.002 c 0.09474,-0.03082 0.524669,-0.121024 1.035156,-0.292969 0.510487,-0.171945 1.137623,-0.438494 1.765625,-0.878906 1.256006,-0.880825 2.499233,-2.476421 2.833985,-5.220703 C 23.18662,8.2663387 22.230732,4.6765721 20.251953,2.9492188 19.610573,2.3591473 17.32612,0.7581904 12.404297,0.734375 Z m -0.04102,0.9980469 a 0.50005,0.50005 0 0 0 0.02734,0.00195 c 4.717851,0.020531 6.757797,1.5552936 7.1875,1.9511719 a 0.50005,0.50005 0 0 0 0.01172,0.00977 c 1.5705,1.3658311 2.582642,4.6107161 1.927734,9.9414065 a 0.50005,0.50005 0 0 0 0,0.002 c -0.305248,2.502412 -1.358295,3.781085 -2.414062,4.521484 -0.527884,0.3702 -1.062257,0.601221 -1.509766,0.751953 -0.445711,0.150127 -0.769093,0.206717 -1.023438,0.289063 -0.06441,0.02057 -0.830731,0.222744 -1.937499,0.361328 -1.106769,0.138584 -2.602697,0.229637 -4.291016,0.08789 a 0.50005,0.50005 0 0 0 -0.419922,0.171875 c -0.3827333,0.44165 -0.8878218,1.021308 -1.2441406,1.40625 h 0.00195 C 8.327191,21.607642 8.0521132,21.948281 7.84375,22.123047 7.6353868,22.297812 7.5980965,22.319373 7.4140625,22.261719 a 0.50005,0.50005 0 0 0 -0.00391,-0.002 c -0.066913,-0.02036 -0.1120963,-0.08503 -0.1542968,-0.244141 -0.042201,-0.159113 -0.039063,-0.314453 -0.039063,-0.314453 a 0.50005,0.50005 0 0 0 0,-0.01758 l 0.00391,-2.173828 A 0.50005,0.50005 0 0 0 6.7246094,19.011719 l 0.1269531,0.01563 C 4.4777286,18.359217 3.3798407,16.866319 2.8085938,15.134766 2.2373468,13.403213 2.2596263,11.446663 2.2890625,10.048828 2.3466728,7.3126719 2.8773817,5.208524 4.28125,3.7988281 5.5334735,2.6549338 7.5527128,2.1025477 9.2675781,1.8769531 10.986112,1.650876 12.363281,1.7324219 12.363281,1.7324219 Z"
     id="path1" />
  <path
     d="M14.6498 9.90011C14.6666 10.2622 14.1235 10.2875 14.1066 9.92532C14.0603 8.99893 13.6265 8.54842 12.7338 8.49789C12.3717 8.47679 12.4054 7.93361 12.7633 7.9547C13.9382 8.01784 14.5909 8.69158 14.6498 9.90011Z"
     fill="#F5F5F5"
     id="path6" />
  <path
     d="M15.5046 10.3757C15.5467 8.59029 14.4309 7.19229 12.3127 7.03652C11.9548 7.01126 11.9927 6.46802 12.3507 6.49329C14.793 6.67019 16.0941 8.35033 16.0478 10.3884C16.0436 10.7505 15.4962 10.7337 15.5046 10.3757Z"
     fill="#F5F5F5"
     id="path7" />
  <path
     d="M17.4837 10.9401C17.4878 11.3023 16.9404 11.3065 16.9404 10.9444C16.9152 7.5125 14.6287 5.64285 11.8537 5.6218C11.4957 5.61758 11.4957 5.07861 11.8537 5.07861C14.9571 5.09966 17.4542 7.24297 17.4837 10.9401Z"
     fill="#F5F5F5"
     id="path8" />
  <path
     style="color:#000000;fill:#f5f5f5;stroke-linecap:round;stroke-linejoin:round;stroke-miterlimit:10;-inkscape-stroke:none"
     d="M 8.3886719,5.2382812 C 8.1038885,5.189053 7.8015447,5.2352178 7.5332031,5.3710937 a 0.50005,0.50005 0 0 0 -0.039063,0.00977 C 7.0437717,5.6355138 6.5769323,5.9895969 6.2324219,6.4472656 5.8891251,6.903322 5.6649314,7.5194997 5.8632812,8.1445313 c 0.00293,0.010343 0.2243937,0.8009726 1.1308594,2.4394527 0.4384288,0.798506 0.8924751,1.467978 1.34375,2.033204 0.5054188,0.64237 1.1522913,1.300384 1.8671874,1.865234 1.373156,1.092808 3.348677,2.121741 4.414063,2.433594 a 0.50005,0.50005 0 0 0 0.05469,0.04102 c 0.628015,0.202264 1.245817,-0.0262 1.703125,-0.371094 0.457308,-0.344892 0.811937,-0.812093 1.066406,-1.259765 a 0.50005,0.50005 0 0 0 0.0098,-0.03906 c 0.272365,-0.537989 0.165001,-1.220293 -0.285156,-1.591796 -0.569796,-0.53284 -1.35548,-1.074546 -2.001953,-1.439454 a 0.50005,0.50005 0 0 0 -0.002,0 c -0.66241,-0.370828 -1.393701,-0.193005 -1.761719,0.28711 l -0.396485,0.496094 c -0.0027,0.0033 -0.07988,0.02197 -0.121093,0.03125 C 10.459452,12.417415 9.7858158,10.03538 9.7617188,9.9472656 9.7708496,9.9066383 9.7870486,9.8335495 9.7910156,9.828125 L 10.289063,9.4296875 C 10.76902,9.0617293 10.946994,8.3304402 10.576172,7.6679687 a 0.50005,0.50005 0 0 0 -0.002,-0.00391 C 10.418242,7.3921432 10.139131,6.9370395 9.9042969,6.6171875 l -0.00195,-0.00391 C 9.6494038,6.2653646 9.1399444,5.6616662 9.1386719,5.6601562 8.9481561,5.4309299 8.678633,5.2884046 8.3886719,5.2382812 Z m -0.6484375,0.078125 a 0.50005,0.50005 0 0 0 -0.1191407,0.03125 l 0.1269532,-0.03125 z m 0.2402343,0.9414063 c 0.2310062,-0.1205631 0.272824,-0.098371 0.3886719,0.041016 a 0.50005,0.50005 0 0 0 0.00195,0.00195 c 0,0 0.5306952,0.6350948 0.7246093,0.9023438 a 0.50005,0.50005 0 0 0 0.00195,0.00391 c 0.1846125,0.2510279 0.4663431,0.707121 0.6054687,0.9492188 0.1429771,0.2554276 0.00176,0.4591943 -0.023437,0.4785156 a 0.50005,0.50005 0 0 0 -0.00781,0.00781 L 9.1660156,9.046875 C 8.6568869,9.4558512 8.7578125,10.070313 8.7578125,10.070313 a 0.50005,0.50005 0 0 0 0.013672,0.08398 c 0,0 0.8239026,3.117328 3.9101566,3.90625 a 0.50005,0.50005 0 0 0 0.08008,0.01367 c 0,0 0.614472,0.101119 1.023437,-0.408203 l 0.404297,-0.50586 a 0.50005,0.50005 0 0 0 0.0059,-0.0078 c 0.01938,-0.02529 0.225079,-0.166409 0.480468,-0.02344 0.583599,0.329661 1.35553,0.866603 1.828125,1.3125 a 0.50005,0.50005 0 0 0 0.02734,0.02344 c 0.130435,0.106225 0.154377,0.142785 0.0332,0.375 a 0.50005,0.50005 0 0 0 0,0.002 c -0.200253,0.349333 -0.493369,0.720833 -0.791015,0.945312 -0.300667,0.226757 -0.545085,0.298586 -0.792969,0.21875 l 0.08984,0.06836 a 0.50005,0.50005 0 0 0 -0.117188,-0.08594 C 14.229808,15.786062 12.077353,14.69547 10.826172,13.699219 a 0.50005,0.50005 0 0 0 -0.002,-0.002 C 10.175879,13.185003 9.5773556,12.573964 9.1230469,11.996094 a 0.50005,0.50005 0 0 0 -0.00391,-0.0039 C 8.7033382,11.471392 8.2829916,10.851947 7.8710937,10.101563 a 0.50005,0.50005 0 0 0 -0.00195,-0.002 C 6.9876949,8.5063537 6.8203125,7.8652344 6.8203125,7.8652344 A 0.50005,0.50005 0 0 0 6.8125,7.84375 C 6.7324357,7.5952027 6.8051985,7.3491287 7.03125,7.0488281 7.254532,6.7522067 7.6245934,6.4597497 7.9746094,6.2597656 a 0.50005,0.50005 0 0 0 0.00586,-0.00195 z m 9.5273433,8.8125005 -0.03516,0.140625 a 0.50005,0.50005 0 0 0 0.03516,-0.13086 z"
     id="path5" />
</svg>
