<?xml version="1.0" standalone="no"?>
<!DOCTYPE svg PUBLIC "-//W3C//DTD SVG 1.1//EN" "http://www.w3.org/Graphics/SVG/1.1/DTD/svg11.dtd" >
<svg xmlns="http://www.w3.org/2000/svg">
<metadata>Generated by IcoMoon</metadata>
<defs>
<font id="icons" horiz-adv-x="1024">
<font-face units-per-em="1024" ascent="960" descent="-64" />
<missing-glyph horiz-adv-x="1024" />
<glyph unicode="&#x20;" horiz-adv-x="512" d="" />
<glyph unicode="&#xe900;" glyph-name="arrow-down" d="M318.706 555.961c12.497 12.497 32.758 12.497 45.255 0l148.039-148.038 148.041 148.038c12.497 12.497 32.755 12.497 45.252 0s12.497-32.756 0-45.254l-170.667-170.667c-12.497-12.497-32.755-12.497-45.252 0l-170.668 170.667c-12.497 12.497-12.497 32.757 0 45.254z" />
<glyph unicode="&#xe901;" glyph-name="arrow-left" d="M705.274 811.96c12.499-12.497 12.499-32.758 0-45.255l-318.707-318.706 318.707-318.706c12.499-12.499 12.499-32.755 0-45.254s-32.762-12.499-45.254 0l-341.334 341.333c-12.497 12.497-12.497 32.758 0 45.254l341.334 341.334c12.493 12.497 32.755 12.497 45.254 0z" />
<glyph unicode="&#xe902;" glyph-name="arrow-link" d="M222.348 737.63c4.801 4.801 11.312 7.498 18.102 7.498l422.38-0.001c14.141 0 25.6-11.462 25.6-25.6s-11.459-25.6-25.6-25.6l-360.576 0.001 499.359-499.358c9.994-9.994 9.994-26.204 0-36.204-9.999-9.994-26.209-9.994-36.204 0l-499.359 499.358v-360.57c0-14.141-11.462-25.6-25.6-25.6s-25.6 11.459-25.6 25.6v422.374c0 6.79 2.697 13.301 7.498 18.102zM222.348 737.63c4.801 4.801 11.312 7.498 18.102 7.498l422.38-0.001c14.141 0 25.6-11.462 25.6-25.6s-11.459-25.6-25.6-25.6l-360.576 0.001 499.359-499.358c9.994-9.994 9.994-26.204 0-36.204-9.999-9.994-26.209-9.994-36.204 0l-499.359 499.358v-360.57c0-14.141-11.462-25.6-25.6-25.6s-25.6 11.459-25.6 25.6v422.374c0 6.79 2.697 13.301 7.498 18.102z" />
<glyph unicode="&#xe903;" glyph-name="arrow-open" d="M404.039 641.292c12.497 12.497 32.756 12.497 45.254 0l170.667-170.665c12.497-12.497 12.497-32.759 0-45.257l-170.667-170.667c-12.497-12.497-32.757-12.497-45.254 0s-12.497 32.759 0 45.257l148.038 148.036-148.038 148.041c-12.497 12.497-12.497 32.758 0 45.255zM404.039 641.292c12.497 12.497 32.756 12.497 45.254 0l170.667-170.665c12.497-12.497 12.497-32.759 0-45.257l-170.667-170.667c-12.497-12.497-32.757-12.497-45.254 0s-12.497 32.759 0 45.257l148.038 148.036-148.038 148.041c-12.497 12.497-12.497 32.758 0 45.255z" />
<glyph unicode="&#xe904;" glyph-name="arrow-right" d="M318.685 811.96c12.497 12.497 32.758 12.497 45.255 0l341.334-341.334c12.499-12.497 12.499-32.758 0-45.254l-341.334-341.333c-12.497-12.499-32.758-12.499-45.255 0s-12.497 32.755 0 45.254l318.706 318.706-318.706 318.706c-12.497 12.497-12.497 32.758 0 45.255z" />
<glyph unicode="&#xe905;" glyph-name="arrow-up" d="M492.571 638.071l-341.286-341.357c-4.962-4.963-8.032-11.82-8.032-19.393s3.069-14.429 8.032-19.393v0c4.963-4.962 11.82-8.032 19.393-8.032s14.429 3.069 19.393 8.032l321.929 321.929 321.929-321.929c4.963-4.962 11.82-8.032 19.393-8.032s14.429 3.069 19.393 8.032v0c4.962 4.963 8.032 11.82 8.032 19.393s-3.069 14.429-8.032 19.393l-341.286 341.357c-4.967 4.983-11.838 8.066-19.429 8.066s-14.461-3.083-19.428-8.065l-0.001-0.001z" />
<glyph unicode="&#xe906;" glyph-name="basket" d="M426.666 117.331c-5.891 0-10.666-4.774-10.666-10.666s4.774-10.666 10.666-10.666c5.891 0 10.669 4.774 10.669 10.666s-4.778 10.666-10.669 10.666zM352 106.666c0 41.238 33.43 74.666 74.666 74.666 41.238 0 74.669-33.427 74.669-74.666s-33.43-74.666-74.669-74.666c-41.235 0-74.666 33.427-74.666 74.666zM768.010 117.331c-5.891 0-10.666-4.774-10.666-10.666s4.774-10.666 10.666-10.666c5.891 0 10.669 4.774 10.669 10.666s-4.778 10.666-10.669 10.666zM693.344 106.666c0 41.238 33.43 74.666 74.666 74.666 41.238 0 74.669-33.427 74.669-74.666s-33.43-74.666-74.669-74.666c-41.235 0-74.666 33.427-74.666 74.666zM53.344 832c0 17.673 14.327 32 32 32h149.333c14.957 0 27.919-10.361 31.214-24.95l100.624-445.546c0 0 0 0 0 0 5.482-24.278 27.040-41.504 52.003-41.504h366.374c24.998 0 46.64 17.363 52.061 41.76l70.486 317.182c3.834 17.252 20.928 28.13 38.179 24.296s28.131-20.928 24.294-38.18l-70.483-317.18c-11.926-53.68-59.542-91.878-114.538-91.878h-366.374c-54.806 0-102.342 37.875-114.432 91.405l-94.988 420.595h-123.755c-17.673 0-32 14.327-32 32zM245.344 704c0 17.673 14.327 32 32 32h661.335c17.67 0 32-14.327 32-32s-14.33-32-32-32h-661.335c-17.673 0-32 14.327-32 32z" />
<glyph unicode="&#xe907;" glyph-name="bucket" d="M426.666 836.269h170.669c25.917 0 46.93-21.012 46.93-46.933v-46.934h-264.531v46.934c0 25.921 21.012 46.933 46.933 46.933zM721.065 742.402h174.935c21.207 0 38.4-17.192 38.4-38.4s-17.193-38.4-38.4-38.4h-46.935v-558.932c0-68.337-55.393-123.735-123.73-123.735h-426.669c-68.336 0-123.733 55.398-123.733 123.735v558.932h-46.934c-21.208 0-38.4 17.192-38.4 38.4s17.192 38.4 38.4 38.4h174.934v46.934c0 68.336 55.397 123.733 123.733 123.733h170.669c68.337 0 123.73-55.398 123.73-123.733v-46.934zM251.734 665.602v-558.932c0-25.923 21.012-46.935 46.933-46.935h426.669c25.923 0 46.93 21.012 46.93 46.935v558.932h-520.531zM426.666 836.269h170.669c25.917 0 46.93-21.012 46.93-46.933v-46.934h-264.531v46.934c0 25.921 21.012 46.933 46.933 46.933zM721.065 742.402h174.935c21.207 0 38.4-17.192 38.4-38.4s-17.193-38.4-38.4-38.4h-46.935v-558.932c0-68.337-55.393-123.735-123.73-123.735h-426.669c-68.336 0-123.733 55.398-123.733 123.735v558.932h-46.934c-21.208 0-38.4 17.192-38.4 38.4s17.192 38.4 38.4 38.4h174.934v46.934c0 68.336 55.397 123.733 123.733 123.733h170.669c68.337 0 123.73-55.398 123.73-123.733v-46.934zM251.734 665.602v-558.932c0-25.923 21.012-46.935 46.933-46.935h426.669c25.923 0 46.93 21.012 46.93 46.935v558.932h-520.531z" />
<glyph unicode="&#xe908;" glyph-name="burger" d="M213.333 693.333c-17.673 0-32-14.327-32-32v0c0-17.673 14.327-32 32-32v0h597.333c17.673 0 32 14.327 32 32v0c0 17.673-14.327 32-32 32v0zM213.333 480c-17.673 0-32-14.327-32-32v0c0-17.673 14.327-32 32-32v0h597.333c17.673 0 32 14.327 32 32v0c0 17.673-14.327 32-32 32v0zM213.333 266.667c-17.673 0-32-14.327-32-32v0c0-17.673 14.327-32 32-32v0h597.333c17.673 0 32 14.327 32 32v0c0 17.673-14.327 32-32 32v0z" />
<glyph unicode="&#xe909;" glyph-name="calculator" d="M225.28 877.68c-35.558 0-65.869-19.149-89.92-43.2s-43.2-54.362-43.2-89.92v-573.44c0-35.558 19.149-65.789 43.2-89.84s54.362-43.28 89.92-43.28h573.44c35.558 0 65.869 19.229 89.92 43.28s43.2 54.282 43.2 89.84v573.44c0 35.558-19.149 65.869-43.2 89.92s-54.362 43.2-89.92 43.2zM225.28 816.24h573.44c9.686 0 30.642-9.362 46.48-25.2s25.2-36.795 25.2-46.48v-573.44c0-9.686-9.362-30.562-25.2-46.4s-36.794-25.28-46.48-25.28h-573.44c-9.685 0-30.642 9.442-46.48 25.28s-25.2 36.714-25.2 46.4v573.44c0 9.685 9.362 30.642 25.2 46.48s36.795 25.2 46.48 25.2zM675.84 734.32c-16.966 0-30.72-13.754-30.72-30.72v0-51.2h-51.2c-16.966 0-30.72-13.754-30.72-30.72v0c0-16.966 13.754-30.72 30.72-30.72v0h51.2v-51.2c0-16.966 13.754-30.72 30.72-30.72v0c16.966 0 30.72 13.754 30.72 30.72v0 51.2h51.2c16.966 0 30.72 13.754 30.72 30.72v0c0 16.966-13.754 30.72-30.72 30.72v0h-51.2v51.2c0 16.966-13.754 30.72-30.72 30.72v0zM266.24 652.4c-16.966 0-30.72-13.754-30.72-30.72v0c0-16.966 13.754-30.72 30.72-30.72v0h163.84c16.966 0 30.72 13.754 30.72 30.72v0c0 16.966-13.754 30.72-30.72 30.72v0zM266.24 447.6c-0.022 0-0.049 0-0.075 0-8.464 0-16.129-3.423-21.686-8.961l0.001 0.001c-5.558-5.559-8.995-13.238-8.995-21.72s3.438-16.161 8.995-21.72l60.16-60.16-60.16-60.24c-5.558-5.559-8.995-13.238-8.995-21.72s3.438-16.161 8.995-21.72v0c5.563-5.582 13.258-9.035 21.76-9.035s16.197 3.454 21.759 9.035l60.161 60.161 60.16-60.16c5.563-5.582 13.258-9.035 21.76-9.035s16.197 3.454 21.759 9.035l0.001 0.001c5.558 5.559 8.995 13.238 8.995 21.72s-3.438 16.161-8.995 21.72v0l-60.16 60.24 60.16 60.16c5.558 5.559 8.995 13.238 8.995 21.72s-3.438 16.161-8.995 21.72v0c-5.563 5.582-13.258 9.035-21.76 9.035s-16.197-3.454-21.759-9.035l-60.161-60.161-60.16 60.16c-5.555 5.537-13.22 8.96-21.685 8.96-0.026 0-0.053 0-0.079 0h0.004zM593.92 427.12c-16.966 0-30.72-13.754-30.72-30.72v0c0-16.966 13.754-30.72 30.72-30.72v0h163.84c16.966 0 30.72 13.754 30.72 30.72v0c0 16.966-13.754 30.72-30.72 30.72v0zM593.92 304.24c-16.966 0-30.72-13.754-30.72-30.72v0c0-16.966 13.754-30.72 30.72-30.72v0h163.84c16.966 0 30.72 13.754 30.72 30.72v0c0 16.966-13.754 30.72-30.72 30.72v0z" />
<glyph unicode="&#xe90a;" glyph-name="chat" d="M213.357 859.429c-61.952 0-112.786-50.834-112.786-112.786v-426.643c0-61.953 50.835-112.786 112.786-112.786h116.643l147.5-147.5c18.815-18.815 50.185-18.815 69 0l147.5 147.5h116.643c61.952 0 112.786 50.834 112.786 112.786v426.643c0 61.951-50.833 112.786-112.786 112.786zM213.357 804.571h597.286c32.306 0 57.929-25.623 57.929-57.929v-426.643c0-32.307-25.621-57.929-57.929-57.929h-128c-7.556-0.001-14.398-3.058-19.358-8.001l-151.285-151.285-151.286 151.286c-4.959 4.942-11.801 7.999-19.357 8h-128c-32.306 0-57.929 25.622-57.929 57.929v426.643c0 32.305 25.624 57.929 57.929 57.929z" />
<glyph unicode="&#xe90b;" glyph-name="telephone" horiz-adv-x="964" d="M281.059 817.529c-38.455 0-70.235-31.78-70.235-70.235v-682.706c0-38.455 31.779-70.235 70.235-70.235h401.647c38.456 0 70.235 31.779 70.235 70.235v682.706c0 38.456-31.78 70.235-70.235 70.235zM281.059 757.294h401.647c5.902 0 10-4.1 10-10v-682.706c0-5.901-4.099-10-10-10h-401.647c-5.9 0-10 4.098-10 10v682.706c0 5.901 4.099 10 10 10zM460.588 206.353c-5.449-5.45-8.819-12.978-8.819-21.294s3.37-15.844 8.819-21.294l0.706-0.706c5.444-5.413 12.948-8.759 21.234-8.759 8.346 0 15.898 3.394 21.353 8.878l0.001 0.001c5.414 5.444 8.76 12.949 8.76 21.235 0 8.345-3.394 15.897-8.877 21.352l-0.001 0.001-0.588 0.59c-5.45 5.449-12.978 8.819-21.294 8.819s-15.844-3.37-21.294-8.819v0z" />
<glyph unicode="&#xe90c;" glyph-name="geo" d="M512 917.333c-163.773 0-292.108-98.092-349.667-226.25s-45.641-289.273 63.167-411.667l254.583-286.417c7.853-8.82 19.239-14.349 31.917-14.349s24.064 5.529 31.879 14.306l0.037 0.043 254.583 286.417c57.235 64.381 88.165 139.887 95.667 215.25 21.020 211.178-140.768 422.667-382.167 422.667zM512 832c191.868 0 313.487-165.716 297.25-328.833-5.794-58.211-29.011-115.915-74.5-167.083l-222.75-250.5-222.75 250.5c-86.478 97.276-94.169 219.613-49.083 320s141.664 175.917 271.833 175.917zM512 704c-93.753 0-170.667-76.916-170.667-170.667s76.915-170.667 170.667-170.667 170.667 76.915 170.667 170.667c0 93.75-76.914 170.667-170.667 170.667zM512 618.667c47.636 0 85.333-37.699 85.333-85.333 0-47.637-37.696-85.333-85.333-85.333s-85.333 37.696-85.333 85.333c0 47.634 37.697 85.333 85.333 85.333z" />
<glyph unicode="&#xe90d;" glyph-name="heart" d="M343.5 861.812c-69.558 7.937-142.18-12.505-199.312-63.5-115.169-102.796-121.829-285.056-14.688-396.625l335.75-349.625c25.038-26.068 68.462-26.068 93.5 0l335.75 349.625c107.142 111.569 100.481 293.829-14.687 396.625-109.86 98.055-275.090 80.496-367.813-31.875-44.501 53.931-104.309 88.050-168.5 95.375zM336.5 799.312c51.905-5.947 101.586-33.647 136.187-81.687l13.375-18.563c5.881-8.096 15.317-13.299 25.969-13.299s20.088 5.204 25.905 13.207l0.064 0.092 13.375 18.563c69.202 96.081 198.59 110.787 285.812 32.937 87.923-78.478 93.191-219.171 11.188-304.562l-335.813-349.625c-0.84-0.97-0.083-1.084-1.125 0l-335.75 349.625c-82.002 85.391-76.799 226.085 11.125 304.562 43.609 38.924 97.783 54.697 149.688 48.75z" />
<glyph unicode="&#xe90e;" glyph-name="heart-red" d="M474.122 8.24l-395.005 411.334c-111.261 115.858-104.255 305.83 15.212 412.462 118.519 105.787 298.226 85.245 391.885-44.796l15.746-21.862 15.747 21.862c93.663 130.041 273.363 150.583 391.888 44.796 119.465-106.632 126.47-296.604 15.209-412.462l-395.005-411.334c-15.375-16.005-40.302-16.005-55.677 0z" />
<glyph unicode="&#xe90f;" glyph-name="letter" d="M184.32 775.28c-39.224 0-71.68-32.456-71.68-71.68v-491.52c0-39.224 32.457-71.68 71.68-71.68h655.36c39.223 0 71.68 32.457 71.68 71.68v491.52c0 39.223-32.456 71.68-71.68 71.68zM184.32 713.84h655.36c6.021 0 10.24-4.22 10.24-10.24v-491.52c0-6.021-4.219-10.24-10.24-10.24h-655.36c-6.019 0-10.24 4.22-10.24 10.24v491.52c0 6.019 4.221 10.24 10.24 10.24zM183.36 754.8c-8.47-0.272-16.036-3.933-21.425-9.664l-0.015-0.016c-5.164-5.483-8.337-12.891-8.337-21.041 0-8.825 3.721-16.781 9.681-22.385l327.696-307.215c5.484-5.163 12.891-8.335 21.040-8.335s15.557 3.172 21.056 8.35l327.664 307.185c5.975 5.618 9.697 13.574 9.697 22.399 0 8.149-3.173 15.557-8.351 21.056l0.015-0.016c-5.618 5.975-13.574 9.697-22.399 9.697-8.149 0-15.557-3.173-21.056-8.351l-306.624-287.425-306.64 287.44c-5.483 5.163-12.89 8.335-21.039 8.335-0.338 0-0.675-0.005-1.010-0.016l0.049 0.001z" />
<glyph unicode="&#xe910;" glyph-name="mail" d="M291.25 618c-11.434-2.070-21.091-8.453-27.411-17.367l-0.089-0.133c-4.838-6.825-7.733-15.323-7.733-24.497 0-14.381 7.115-27.101 18.017-34.83l0.133-0.089 213.333-149.333c6.825-4.838 15.325-7.734 24.5-7.734s17.675 2.896 24.633 7.824l-0.133-0.089 213.333 149.333c11.035 7.819 18.15 20.538 18.15 34.92 0 9.174-2.896 17.672-7.823 24.63l0.089-0.133c-7.819 11.035-20.538 18.15-34.92 18.15-9.174 0-17.672-2.896-24.63-7.823l0.133 0.089-188.833-132.167-188.833 132.167c-6.825 4.838-15.323 7.733-24.497 7.733-2.622 0-5.189-0.237-7.68-0.689l0.261 0.039zM170.667 789.333c-33.931 0-66.507-13.506-90.5-37.5s-37.5-56.569-37.5-90.5v-426.667c0-33.93 13.508-66.507 37.5-90.5 23.994-23.995 56.57-37.5 90.5-37.5h682.667c33.93 0 66.506 13.506 90.5 37.5s37.5 56.57 37.5 90.5v426.667c0 33.93-13.505 66.506-37.5 90.5-23.993 23.992-56.57 37.5-90.5 37.5zM170.667 704h682.667c11.33 0 22.152-4.485 30.167-12.5 8.013-8.012 12.5-18.834 12.5-30.167v-426.667c0-11.331-4.485-22.152-12.5-30.167s-18.836-12.5-30.167-12.5h-682.667c-11.333 0-22.154 4.487-30.167 12.5-8.015 8.015-12.5 18.836-12.5 30.167v426.667c0 11.332 4.487 22.154 12.5 30.167s18.834 12.5 30.167 12.5z" />
<glyph unicode="&#xe911;" glyph-name="minus" d="M170.667 448c0 23.565 19.103 42.667 42.667 42.667h597.333c23.565 0 42.667-19.102 42.667-42.667s-19.102-42.667-42.667-42.667h-597.333c-23.564 0-42.667 19.102-42.667 42.667z" />
<glyph unicode="&#xe912;" glyph-name="person" d="M512 864c-111.55 0-202.625-91.137-202.625-202.688s91.075-202.625 202.625-202.625 202.687 91.072 202.687 202.625c0 111.551-91.137 202.688-202.687 202.688zM512 800c76.962 0 138.687-61.726 138.687-138.688 0-76.964-61.726-138.625-138.687-138.625s-138.625 61.661-138.625 138.625c0 76.963 61.663 138.688 138.625 138.688zM256 352c-64.422 0-117.312-52.889-117.312-117.313v-170.687c0-17.673 14.327-32 32-32v0c17.673 0 32 14.327 32 32v0 170.687c0 29.836 23.478 53.313 53.312 53.313h512c29.836 0 53.313-23.475 53.313-53.313v-170.687c0-17.673 14.327-32 32-32v0c17.673 0 32 14.327 32 32v0 170.687c0 64.422-52.889 117.313-117.313 117.313z" />
<glyph unicode="&#xe913;" glyph-name="phone" d="M149.833 917.333c-39.748 0-77.716-24.887-93.417-58.583s-16.5-71.768-10.583-113.917c11.834-84.298 54.14-187.977 121.083-294.333 133.886-212.712 369.157-435.666 673.75-471.083 68.642-7.977 125.788 47.827 130.75 113.917l9.583 127.25c4.618 61.638-35.215 118.895-95.083 134.25l-148.667 38.167c-32.695 8.38-67.505 3.025-96.25-14.667l-47.917-29.5c-75.845 57.774-145.332 137.132-181.667 185.667l41.917 64.5c23.13 35.585 27.409 80.232 11.5 119.583l-45.917 113.583c-18.644 46.121-62.613 77.701-112.333 79.5l-155.25 5.667c-0.223 0.004-0.486 0.007-0.75 0.007s-0.527-0.002-0.789-0.007l0.039 0.001zM149.75 831.917l153.75-5.5c15.689-0.568 29.825-10.273 36.25-26.167l45.917-113.583c5.461-13.509 3.985-29.139-3.833-41.167l-58.833-90.5c-4.33-6.566-6.908-14.62-6.908-23.277 0-9.128 2.866-17.587 7.748-24.526l-0.090 0.136c37.7-54.137 132.092-172.282 240.75-246.583 6.739-4.661 15.086-7.446 24.083-7.446 8.298 0 16.043 2.369 22.596 6.467l-0.179-0.104 74.75 46c9.271 5.706 20.012 7.312 30.333 4.667l148.667-38.167c19.219-4.929 32.712-23.434 31.083-45.167l-9.5-127.333c-1.745-23.245-17.683-37.609-35.833-35.5-268.23 31.189-487.381 234.688-611.417 431.75-62.018 98.531-99.597 195.546-108.75 260.75-4.577 32.602-1.038 56.522 3.417 66.083 4.428 9.503 2.775 9.17 16 9.167z" />
<glyph unicode="&#xe914;" glyph-name="plus" d="M512 789.333c-23.564 0-42.667-19.103-42.667-42.667v0-597.333c0-23.564 19.103-42.667 42.667-42.667v0c23.564 0 42.667 19.103 42.667 42.667v0 597.333c0 23.564-19.103 42.667-42.667 42.667v0zM213.333 490.667c-23.564 0-42.667-19.103-42.667-42.667v0c0-23.564 19.103-42.667 42.667-42.667v0h597.333c23.564 0 42.667 19.103 42.667 42.667v0c0 23.564-19.103 42.667-42.667 42.667v0h-294.333z" />
<glyph unicode="&#xe915;" glyph-name="question" d="M512 898.16c-242.818 0-440.32-197.501-440.32-440.32 0-242.816 197.502-440.32 440.32-440.32 242.816 0 440.32 197.504 440.32 440.32 0 242.819-197.504 440.32-440.32 440.32zM512 836.72c209.611 0 378.88-169.266 378.88-378.88 0-209.611-169.269-378.88-378.88-378.88-209.613 0-378.88 169.269-378.88 378.88 0 209.614 169.267 378.88 378.88 378.88zM512 232.56c-16.966 0-30.72-13.754-30.72-30.72v0-0.96c0-16.966 13.754-30.72 30.72-30.72v0c16.966 0 30.72 13.754 30.72 30.72v0 0.96c0 16.966-13.754 30.72-30.72 30.72v0zM512 734.32c-107.089 0-194.56-87.471-194.56-194.56 0-16.966 13.754-30.72 30.72-30.72v0c16.966 0 30.72 13.754 30.72 30.72v0c0 73.885 59.236 133.12 133.12 133.12 73.882 0 133.12-59.235 133.12-133.12 0-35.972-15.112-62.843-41.84-88.64s-65.146-48.213-105.040-68.16c-10.12-5.166-16.929-15.513-16.929-27.45 0-5.012 1.2-9.744 3.329-13.924l-0.081 0.174c5.154-10.155 15.52-16.993 27.482-16.993 5 0 9.72 1.194 13.892 3.313l-0.175-0.081c42.026 21.013 85.528 45.458 120.24 78.96s60.56 78.287 60.56 132.8c0 107.090-87.473 194.56-194.56 194.56z" />
<glyph unicode="&#xe916;" glyph-name="search" d="M458.7 913.1c-226.939 0-411.8-184.861-411.8-411.8s184.861-411.7 411.8-411.7c99.392 0 187.26 39.99 258.5 98.9l194.3-194.3c6.949-6.947 16.548-11.244 27.15-11.244s20.201 4.297 27.15 11.244v0c6.947 6.949 11.244 16.548 11.244 27.15s-4.297 20.201-11.244 27.15l-194.3 194.3c58.958 71.254 98.9 159.063 98.9 258.5 0 226.939-184.763 411.8-411.7 411.8zM458.7 836.3c185.431 0 334.9-149.567 334.9-335s-149.469-334.9-334.9-334.9c-185.433 0-335 149.468-335 334.9s149.567 335 335 335z" />
<glyph unicode="&#xe917;" glyph-name="telegram" d="M901.25 778.25c-1.116-0.71-2.067-1.396-2.978-2.131l0.061 0.048c-2.281 0.581-4.899 0.915-7.596 0.915-2.297 0-4.537-0.242-6.697-0.702l0.21 0.037-810.667-320c-11.926-4.832-20.185-16.322-20.185-29.741 0-16.063 11.835-29.362 27.26-31.654l0.175-0.021 271.167-38.75v-206.917c0.007-17.67 14.333-31.991 32.003-31.991 8.896 0 16.944 3.63 22.744 9.489l0.003 0.003 119.833 120.833 244.667-167.417c5.061-3.509 11.333-5.606 18.094-5.606 15.828 0 28.971 11.49 31.546 26.583l0.027 0.189 106.583 639.667 0.085 0.167c0 0.025 0 0.054 0 0.083s0 0.059 0 0.088v-0.005c0 0.049 0 0.108 0 0.167s0 0.117 0 0.176v-0.009c-0.018 0.601-0.048 1.151-0.093 1.697l0.007-0.114c0.089 0.895 0.14 1.935 0.14 2.986 0 3.427-0.539 6.728-1.536 9.823l0.063-0.226c-0.137 0.974-0.283 1.766-0.458 2.547l0.040-0.213c0 0.025 0 0.054 0 0.083s0 0.059 0 0.088v-0.005c-0.139 0.141-0.275 0.277-0.413 0.411l-0.006 0.005c-0.437 0.631-0.82 1.147-1.218 1.65l0.051-0.067c-0.644 1.853-1.348 3.421-2.167 4.917l0.084-0.167c-0.303 0.066-0.813 0.154-1.327 0.229l-0.174 0.021c-2.648 3.417-5.89 6.234-9.591 8.334l-0.159 0.083c-1.337 0.792-2.902 1.549-4.531 2.176l-0.219 0.074c-1.357 0.768-2.952 1.499-4.61 2.096l-0.223 0.070zM851.75 676.083l-85.75-514.667-326 223.083zM661.333 619.667l-285.417-202.167-166.5 23.75zM416 323.333l56.917-38.917-56.917-57.333z" />
<glyph unicode="&#xe918;" glyph-name="viber" d="M529.25 928.667c-0.664 0.040-62.238 3.736-139.417-6.417-77.593-10.208-171.599-33.668-236.417-93.167-0.253-0.212-0.47-0.403-0.683-0.598l0.016 0.015c-71.364-71.36-95.181-174.424-97.75-296.417-1.26-59.838-3.082-148.066 24.333-231.167 26.031-78.904 82.586-152.396 186.083-187.333l-0.167-77.833c0 0-0.596-12.127 3.083-26s13.48-33.659 35.417-40.333c21.915-6.782 43.862 1.862 58.333 14 14.511 12.171 25.974 27.285 39.5 41.833 14.2 15.34 32.337 36.241 47.75 54 70-4.802 133.73-2.086 180.333 3.75 49.618 6.213 80.066 13.831 90.25 17.083 0.174 0.084 0.229 0.113 0.283 0.141l-0.117-0.056c4.042 1.315 22.386 5.164 44.167 12.5s48.539 18.709 75.333 37.5c53.59 37.582 106.634 105.661 120.917 222.75 28.796 234.384-11.988 387.548-96.416 461.248-27.366 25.176-124.836 93.484-334.833 94.5zM527.5 886.083c0.31-0.033 0.714-0.063 1.12-0.082l0.046-0.002c201.295-0.876 288.333-66.359 306.667-83.25 0.133-0.116 0.296-0.252 0.461-0.386l0.039-0.031c67.008-58.275 110.193-196.724 82.25-424.167 0-0.013 0-0.028 0-0.043s0-0.030 0-0.045v0.002c-13.024-106.77-57.954-161.326-103-192.917-22.523-15.795-45.323-25.652-64.417-32.083-19.017-6.405-32.815-8.82-43.667-12.333-2.748-0.878-35.445-9.504-82.667-15.417s-111.048-9.798-183.083-3.75c-0.526 0.046-1.138 0.072-1.756 0.072-6.447 0-12.226-2.859-16.138-7.379l-0.023-0.027c-16.33-18.844-37.88-43.576-53.083-60h0.083c-15.039-16.174-26.776-30.708-35.666-38.165s-10.481-8.377-18.333-5.917c0.062-0.027 0.008 0.001-0.047 0.029l-0.12 0.056c-2.855 0.869-4.783 3.628-6.583 10.417s-1.667 13.417-1.667 13.417c0.002 0.112 0.003 0.243 0.003 0.375s-0.001 0.263-0.004 0.395v-0.020l0.167 92.75c-0.049 11.687-9.487 21.153-21.158 21.248h-0.009l5.417-0.667c-101.284 28.507-148.127 92.204-172.5 166.084s-23.423 157.359-22.167 217c2.458 116.743 25.102 206.52 85 266.667 53.428 48.806 139.582 72.375 212.75 82 73.324 9.646 132.083 6.167 132.083 6.167zM625.058 537.595c0.717-15.449-22.455-16.529-23.177-1.076-1.975 39.526-20.484 58.748-58.573 60.904-15.45 0.9-14.012 24.076 1.259 23.176 50.129-2.694 77.978-31.44 80.491-83.004zM661.53 517.303c1.796 76.177-45.811 135.825-136.188 142.472-15.27 1.078-13.653 24.256 1.621 23.178 104.205-7.548 159.718-79.234 157.743-166.191-0.179-15.45-23.535-14.733-23.177 0.542zM745.971 493.222c0.175-15.454-23.181-15.633-23.181-0.183-1.075 146.428-98.633 226.199-217.033 227.098-15.275 0.18-15.275 23.176 0 23.176 132.412-0.898 238.955-92.346 240.213-250.090zM357.917 736.5c-12.151 2.1-25.051 0.131-36.5-5.667-0.708-0.146-1.267-0.29-1.818-0.456l0.151 0.039c-19.216-10.865-39.134-25.973-53.833-45.5-14.647-19.458-24.213-45.749-15.75-72.417 0.125-0.441 9.574-34.175 48.25-104.083 18.706-34.070 38.079-62.634 57.333-86.75 21.565-27.408 49.164-55.483 79.667-79.583 58.588-46.626 142.877-90.528 188.333-103.833 0.693-0.601 1.454-1.177 2.252-1.7l0.081-0.050c26.795-8.63 53.155 1.118 72.667 15.833s34.643 34.649 45.5 53.75c0.127 0.399 0.271 0.959 0.393 1.527l0.025 0.14c11.621 22.954 7.040 52.066-12.167 67.917-24.311 22.735-57.834 45.847-85.417 61.417-0.013 0-0.028 0-0.043 0s-0.030 0-0.045 0h0.002c-28.263 15.822-59.465 8.235-75.167-12.25l-16.917-21.167c-0.115-0.141-3.408-0.937-5.167-1.333-103.48 27.857-132.221 129.491-133.25 133.25 0.39 1.733 1.081 4.852 1.25 5.083l21.25 17c20.478 15.7 28.072 46.901 12.25 75.167-0.084 0.174-0.113 0.229-0.141 0.284l0.056-0.117c-6.653 11.602-18.562 31.019-28.581 44.667l-0.083 0.167c-10.792 14.844-32.529 40.602-32.583 40.667-8.129 9.78-19.628 15.861-32 18zM330.25 733.167c-1.896-0.259-3.611-0.726-5.226-1.385l0.143 0.051 5.417 1.333zM340.5 693c9.856 5.144 11.64 4.197 16.583-1.75 0.028-0.028 0.055-0.055 0.082-0.082l0.001-0.001c0 0 22.643-27.097 30.917-38.5 0.083-0.178 0.111-0.232 0.139-0.287l-0.056 0.12c7.877-10.711 19.897-30.17 25.833-40.5 6.1-10.898 0.075-19.592-1-20.417-0.114-0.111-0.222-0.22-0.33-0.329l-0.004-0.004-21.583-17.25c-21.723-17.45-17.417-43.667-17.417-43.667 0.103-1.327 0.31-2.549 0.616-3.731l-0.032 0.148c0 0 35.153-133.006 166.833-166.667 0.979-0.263 2.142-0.469 3.334-0.577l0.083-0.006c0 0 26.217-4.314 43.667 17.417l17.25 21.583c0.048 0.059 0.13 0.168 0.212 0.277l0.040 0.056c0.827 1.079 9.603 7.1 20.5 1 24.9-14.066 57.836-36.975 78-56 0.354-0.327 0.733-0.654 1.125-0.968l0.042-0.033c5.565-4.532 6.587-6.092 1.417-16 0-0.013 0-0.028 0-0.043s0-0.030 0-0.045v0.002c-8.544-14.905-21.050-30.756-33.75-40.333-12.828-9.675-23.257-12.74-33.833-9.333l3.833-2.917c-1.441 1.422-3.086 2.642-4.886 3.611l-0.114 0.056c-30.863 8.63-122.701 55.162-176.085 97.669-0.029 0.029-0.057 0.057-0.084 0.084l-0.001 0.001c-27.661 21.855-53.197 47.926-72.581 72.581-0.056 0.056-0.11 0.11-0.165 0.164l-0.002 0.002c-17.741 22.221-35.676 48.651-53.25 80.667-0.032 0.033-0.059 0.061-0.087 0.089l0.003-0.003c-37.608 67.977-44.75 95.331-44.75 95.331-0.151 0.457-0.264 0.76-0.384 1.061l0.051-0.144c-3.416 10.605-0.312 21.104 9.333 33.917 9.527 12.656 25.316 25.134 40.25 33.667 0.234 0.071 0.317 0.1 0.4 0.129l-0.15-0.045zM747 317l-1.5-6c0.704 1.623 1.23 3.507 1.489 5.475l0.012 0.108z" />
<glyph unicode="&#xe919;" glyph-name="whatsapp" d="M512 906.667c-252.121 0-458.667-206.546-458.667-458.667 0-77.647 21.454-150.18 53.917-215.083l-34.083-131.25c-3.311-12.739-3.198-26.153 0.333-38.833 3.533-12.686 10.335-24.226 19.75-33.417 9.423-9.198 21.145-15.697 33.917-18.917 12.753-3.207 26.13-3.027 38.75 0.583l126.833 36.25c66.167-36.435 142.004-58 219.25-58 252.121 0 458.667 206.546 458.667 458.667s-206.546 458.667-458.667 458.667zM512 842.667c217.212 0 394.667-177.455 394.667-394.667s-177.455-394.667-394.667-394.667c-70.874 0-142.368 19.887-201.167 55.167-4.7 2.866-10.386 4.562-16.468 4.562-3.128 0-6.151-0.449-9.008-1.285l0.226 0.057-137.25-39.167c0-0.013 0-0.028 0-0.043s0-0.030 0-0.045v0.002c-1.819-0.521-3.688-0.541-5.5-0.085-0.012 0-0.027 0-0.042 0s-0.029 0-0.044 0h0.002c-1.819 0.458-3.487 1.435-4.833 2.75-1.354 1.322-2.245 2.938-2.75 4.75-0.506 1.817-0.558 3.756-0.083 5.583l36.667 141c0.657 2.422 1.035 5.203 1.035 8.073 0 5.528-1.402 10.729-3.869 15.266l0.084-0.168c-32.014 60.027-51.667 127.376-51.667 198.25 0 217.212 177.455 394.667 394.667 394.667zM389 672c-23.040 0-45.312-10.634-62.167-27.167-13.124-12.449-23.323-27.097-29.667-43.25-6.155-15.448-9.167-31.985-9.167-48.75 0-24.859 5.789-50.026 16.333-75.167l0.166-0.503c11.064-25.306 24.901-49.239 41.25-71.5 17.222-23.552 36.175-45.735 56.75-66.417l0.166-0.171c20.782-20.602 43.037-39.573 66.667-56.833 22.456-16.548 46.743-30.488 72.333-41.583l0.085-0.085 0.166-0.085c25.355-10.737 50.53-16.488 75.165-16.488 17.279 0 34.121 3.234 49.583 9.667l0.085 0.085c16.358 6.718 30.97 17.348 43.083 30.667 7.423 8.175 13.551 17.435 18.25 27.417 5.284 11.118 7.915 23.012 7.915 34.665v0.171c-0.064 9.339-1.977 18.579-5.583 27.167l-0.166 0.5-0.252 0.5c-4.826 10.493-12.488 19.373-22.167 25.667l-63 44.75c-6.010 4.132-12.217 7.64-18.917 10.417-0.025 0.011-0.060-0.011-0.085 0-7.56 3.259-15.627 5.045-23.833 5.167h-0.666c-10.528-0.047-20.691-3.26-29.667-8.75-7.708-4.303-14.23-9.366-20.167-15.25l-2.917-2.917c-3.22 2.274-5.068 3.179-9.417 6.833l-0.085 0.085c-9.186 7.805-18.497 16.46-28.413 26.161l-0.166 0.252c-0.077 0.073-0.175 0.094-0.252 0.166-9.148 9.327-17.734 18.823-25.917 28.25l-0.166 0.252c-3.625 4.28-4.375 5.932-6.667 9.083l2.417 2.583c6.003 5.812 11.242 12.484 15.583 19.667 5.713 9.067 8.877 19.525 9 30.25v0.334c0 9.3-2.197 16.97-5.167 24-2.927 7.145-6.796 13.541-11.167 19.667v0.083l-44.499 62.58c-6.719 9.587-16.059 16.916-25.583 21.333-9.332 4.399-19.249 6.5-29.083 6.5zM389 608c0.805 0 1.618-0.23 1.833-0.333l0.334-0.166c0 0 0.083-0.083 0.083-0.083l0.083-0.083 44.75-62.917c1.967-2.753 2.811-4.381 3.417-5.667-1.245-1.807-2.486-3.62-4.083-5.167l-0.418-0.417-14.25-14.833c-4.254-4.147-7.577-9.152-9.75-14.583-2.114-5.285-3.052-10.956-2.917-16.667 0.077-4.28 0.67-8.514 1.417-11.5l0.417-1.583 0.583-1.5c1.311-3.631 1.99-5.388 1.25-3.167l0.833-2.583 1.333-2.417c5.326-9.919 12.349-19.21 21.667-30.167l0.166-0.085 0.085-0.166c8.957-10.324 18.576-20.978 29.167-31.75l0.252-0.252 0.252-0.166c10.704-10.485 21.213-20.459 32.25-29.833l0.085-0.085c11.14-9.379 20.78-16.315 30.417-21.417l0.917-0.5 5.583-2.5 1.25-0.418c4.987-1.778 10.221-2.535 15.5-2.5 5.604-0.024 11.279 0.96 16.583 3.167h0.085c5.472 2.292 10.403 5.701 14.417 9.917l13.917 13.75c3.065 3.038 5.1 4.31 5.833 4.75 1.51-0.685 3.397-1.622 6.25-3.583l63.083-44.833c0.085-0.418 0.32-0.826 0.333-1.25-0.009-2.151-0.479-4.492-1.75-7.167v-0.085c-2.001-4.263-4.675-8.188-7.833-11.667-6.719-7.388-12.85-11.656-20-14.583l-0.085-0.085h-0.166c-7.518-3.133-15.578-4.823-25.089-4.823-14.544 0-31.187 3.396-50 11.333l-0.252 0.085c-21.109 9.174-41.064 20.761-59.583 34.417h-0.085l-0.085 0.085c-20.988 15.331-40.776 32.201-59.244 50.496-18.297 18.392-35.187 38.142-50.5 59.083-13.514 18.401-24.923 38.251-34.083 59.167-7.803 18.688-11.25 35.251-11.25 50.167 0 9.291 1.564 17.618 4.583 25.167l0.083 0.083v0.083c2.814 7.165 7.24 13.822 14.333 20.5l0.5 0.5c7.699 7.592 12.128 8.833 17.5 8.833z" />
<glyph unicode="&#xe91a;" glyph-name="exit" horiz-adv-x="964" d="M160.588 497.294c-16.634 0-30.118-13.484-30.118-30.118v0c0-16.634 13.484-30.118 30.118-30.118v0h441.765c16.634 0 30.118 13.484 30.118 30.118v0c0 16.634-13.484 30.118-30.118 30.118v0zM321.294 698c-8.316-0.001-15.845-3.373-21.294-8.823l-200.824-200.706c-5.448-5.45-8.818-12.979-8.818-21.294s3.37-15.844 8.818-21.294l200.823-200.823c5.45-5.449 12.978-8.819 21.294-8.819s15.844 3.37 21.294 8.819v0c5.449 5.45 8.819 12.979 8.819 21.294s-3.37 15.844-8.819 21.294l-179.529 179.529 179.529 179.412c5.449 5.45 8.819 12.978 8.819 21.294s-3.37 15.844-8.819 21.294v0c-5.449 5.451-12.978 8.822-21.294 8.824v0zM843.294 858.706c-16.634 0-30.118-13.484-30.118-30.118v0-722.824c0-16.634 13.484-30.118 30.118-30.118v0c16.634 0 30.118 13.484 30.118 30.118v0 722.824c0 16.634-13.484 30.118-30.118 30.118v0z" />
<glyph unicode="&#xe91b;" glyph-name="order" horiz-adv-x="964" d="M240.941 898.824c-38.455 0-70.235-31.78-70.235-70.235v-763.059c0-0.004 0-0.008 0-0.013 0-16.635 13.485-30.121 30.121-30.121 7.148 0 13.714 2.49 18.879 6.649l-0.058-0.045 79.294 63.529 61.294-61.294c5.452-5.456 12.985-8.831 21.307-8.831 7.143 0 13.705 2.486 18.869 6.641l-0.058-0.045 81.529 65.294 81.529-65.294c5.105-4.109 11.667-6.596 18.81-6.596 8.322 0 15.856 3.375 21.307 8.831l61.294 61.294 79.294-63.529c5.107-4.114 11.673-6.604 18.821-6.604 16.635 0 30.121 13.485 30.121 30.121 0 0.004 0 0.009 0 0.013v-0.001 763.059c0 38.456-31.78 70.235-70.235 70.235zM240.941 838.588h481.882c5.902 0 10-4.1 10-10v-700.353l-51.412 41.176c-5.105 4.109-11.667 6.596-18.81 6.596-8.322 0-15.856-3.375-21.307-8.831l-61.294-61.294-79.294 63.529c-5.107 4.116-11.675 6.606-18.824 6.606s-13.716-2.491-18.882-6.651l0.058 0.045-79.294-63.529-61.294 61.294c-5.452 5.456-12.985 8.831-21.307 8.831-7.143 0-13.705-2.486-18.869-6.641l0.058 0.045-51.412-41.176v700.353c0 5.901 4.099 10 10 10zM361.412 738.235c-16.634 0-30.118-13.484-30.118-30.118v0c0-16.634 13.484-30.118 30.118-30.118v0h240.941c16.634 0 30.118 13.484 30.118 30.118v0c0 16.634-13.484 30.118-30.118 30.118v0zM361.412 577.529c-16.634 0-30.118-13.484-30.118-30.118v0c0-16.634 13.484-30.118 30.118-30.118v0h240.941c16.634 0 30.118 13.484 30.118 30.118v0c0 16.634-13.484 30.118-30.118 30.118v0h-134.588zM361.412 416.941c-16.634 0-30.118-13.484-30.118-30.118v0c0-16.634 13.484-30.118 30.118-30.118v0h40.118c16.634 0 30.118 13.484 30.118 30.118v0c0 16.634-13.484 30.118-30.118 30.118v0z" />
<glyph unicode="&#xe91c;" glyph-name="star" horiz-adv-x="964" d="M481.882 898.824c-13.287-0.028-24.552-8.655-28.527-20.611l-0.061-0.213-88.118-270.941h-284.824c-0.010 0-0.023 0-0.035 0-16.635 0-30.121-13.485-30.121-30.121 0-9.97 4.844-18.809 12.307-24.291l0.084-0.059 230.471-167.529-88-270.941c-0.927-2.769-1.463-5.958-1.463-9.272 0-16.635 13.485-30.121 30.121-30.121 6.65 0 12.796 2.155 17.779 5.805l-0.085-0.059 230.471 167.529 230.471-167.529c4.898-3.591 11.045-5.746 17.695-5.746 16.635 0 30.121 13.485 30.121 30.121 0 3.314-0.535 6.503-1.524 9.485l0.061-0.213-88 270.941 230.471 167.529c7.547 5.541 12.391 14.38 12.391 24.35 0 16.635-13.485 30.121-30.121 30.121-0.012 0-0.025 0-0.037 0h-284.822l-88.118 270.941c-4.036 12.168-15.301 20.795-28.585 20.824h-0.003zM481.882 771.294l66.118-203.647c4.043-12.188 15.338-20.824 28.65-20.824 0.020 0 0.039 0 0.059 0h214.115l-173.294-125.882c-7.557-5.54-12.408-14.385-12.408-24.362 0-3.319 0.537-6.512 1.528-9.498l-0.061 0.213 66.235-203.647-173.294 125.882c-4.889 3.569-11.018 5.711-17.647 5.711s-12.758-2.142-17.733-5.771l0.086 0.060-173.294-125.882 66.235 203.647c0.93 2.773 1.467 5.966 1.467 9.285 0 9.978-4.851 18.822-12.324 24.303l-0.084 0.059-173.294 125.882h214.118c0.017 0 0.036 0 0.056 0 13.312 0 24.607 8.636 28.589 20.611l0.061 0.213z" />
<glyph unicode="&#xe91d;" glyph-name="other" horiz-adv-x="964" d="M281.059 877.765c-60.633 0-110.353-49.838-110.353-110.471v-682.588c0-60.634 49.722-110.471 110.353-110.471h401.647c60.632 0 110.353 49.839 110.353 110.471v682.588c0 60.631-49.719 110.471-110.353 110.471zM281.059 817.529h401.647c28.081 0 50.118-22.155 50.118-50.235v-682.588c0-28.082-22.035-50.235-50.118-50.235h-401.647c-28.081 0-50.118 22.155-50.118 50.235v682.588c0 28.079 22.039 50.235 50.118 50.235zM200.824 315.529c-16.634 0-30.118-13.484-30.118-30.118v0c0-16.634 13.484-30.118 30.118-30.118v0h562.118c16.634 0 30.118 13.484 30.118 30.118v0c0 16.634-13.484 30.118-30.118 30.118v0zM200.824 596.706c-16.634 0-30.118-13.484-30.118-30.118v0c0-16.634 13.484-30.118 30.118-30.118v0h562.118c16.634 0 30.118 13.484 30.118 30.118v0c0 16.634-13.484 30.118-30.118 30.118v0zM361.412 456.118c-8.316-0.001-15.845-3.373-21.294-8.824v0c-5.449-5.45-8.819-12.978-8.819-21.294s3.37-15.844 8.819-21.294l0.588-0.588c5.456-5.484 13.008-8.878 21.353-8.878s15.897 3.394 21.352 8.877l0.001 0.001c5.449 5.45 8.819 12.978 8.819 21.294s-3.37 15.844-8.819 21.294v0l-0.706 0.588c-5.449 5.451-12.978 8.822-21.294 8.824v0zM361.412 737.176c-8.316-0.001-15.845-3.373-21.294-8.823v0c-5.449-5.45-8.819-12.978-8.819-21.294s3.37-15.844 8.819-21.294l0.588-0.588c5.456-5.484 13.008-8.878 21.353-8.878s15.897 3.394 21.352 8.877l0.001 0.001c5.449 5.45 8.819 12.978 8.819 21.294s-3.37 15.844-8.819 21.294v0l-0.706 0.588c-5.449 5.45-12.978 8.822-21.294 8.823v0zM361.412 175.059c-8.332-0.035-15.86-3.447-21.291-8.939l-0.003-0.003c-5.449-5.45-8.819-12.978-8.819-21.294s3.37-15.844 8.819-21.294v0l0.706-0.59c5.444-5.413 12.948-8.759 21.234-8.759 8.346 0 15.898 3.394 21.353 8.878l0.001 0.001c5.414 5.444 8.76 12.949 8.76 21.235 0 8.345-3.394 15.897-8.877 21.352l-0.001 0.001-0.588 0.59c-5.45 5.45-12.978 8.82-21.294 8.821v0z" />
<glyph unicode="&#xe91e;" glyph-name="auto" horiz-adv-x="964" d="M240.941 737.176c-0.009 0-0.020 0-0.031 0-12.608 0-23.407-7.747-27.896-18.74l-0.073-0.201-72.706-181.765h-19.765c-38.454 0-70.235-31.898-70.235-70.353v-200.706c0-38.455 31.785-70.353 70.235-70.353h102.941c14.362-44.35 48.976-80.235 97.882-80.235s83.402 35.886 97.765 80.235h125.647c14.362-44.35 48.859-80.235 97.765-80.235s83.521 35.886 97.882 80.235h102.941c38.451 0 70.235 31.897 70.235 70.353v135.294c0 28.88-17.806 54.931-44.706 65.412l-165.647 64.588-40.706 67.882-74.471 124c-5.356 8.789-14.883 14.572-25.762 14.588h-0.002zM261.294 676.941h283.882l111.647-186.118c3.463-5.703 8.606-10.087 14.737-12.517l0.204-0.071 175.176-68.235c3.94-1.535 6.353-5.060 6.353-9.294v-135.294c0-5.901-4.094-10.118-10-10.118h-102.941c-14.35 44.369-48.963 80.353-97.882 80.353s-83.415-35.984-97.765-80.353h-125.647c-14.35 44.369-48.846 80.353-97.765 80.353s-83.532-35.984-97.882-80.353h-102.941c-5.905 0-10 4.215-10 10.118v200.706c0 5.902 4.098 10.118 10 10.118h40.118c0.009 0 0.020 0 0.031 0 12.608 0 23.407 7.747 27.896 18.74l0.073 0.201zM321.294 275.412c28.081 0 50.118-22.155 50.118-50.235s-22.040-50.118-50.118-50.118c-28.078 0-50.235 22.037-50.235 50.118s22.155 50.235 50.235 50.235zM642.471 275.412c28.082 0 50.235-22.153 50.235-50.235s-22.156-50.118-50.235-50.118c-28.079 0-50.118 22.036-50.118 50.118s22.036 50.235 50.118 50.235z" />
<glyph unicode="&#xe91f;" glyph-name="lose" d="M186.197 773.818c14.996 14.996 39.31 14.996 54.306 0l271.513-271.514 271.514 271.514c14.996 14.996 39.311 14.996 54.308 0s14.996-39.309 0-54.306l-271.514-271.513 271.514-271.514c14.996-14.996 14.996-39.311 0-54.308s-39.311-14.996-54.308 0l-271.514 271.514-271.513-271.514c-14.996-14.996-39.309-14.996-54.306 0s-14.996 39.311 0 54.308l271.514 271.514-271.514 271.513c-14.996 14.996-14.996 39.31 0 54.306zM186.197 773.818c14.996 14.996 39.31 14.996 54.306 0l271.513-271.514 271.514 271.514c14.996 14.996 39.311 14.996 54.308 0s14.996-39.309 0-54.306l-271.514-271.513 271.514-271.514c14.996-14.996 14.996-39.311 0-54.308s-39.311-14.996-54.308 0l-271.514 271.514-271.513-271.514c-14.996-14.996-39.309-14.996-54.306 0s-14.996 39.311 0 54.308l271.514 271.514-271.514 271.513c-14.996 14.996-14.996 39.31 0 54.306z" />
<glyph unicode="&#xe920;" glyph-name="pc" horiz-adv-x="964" d="M160.588 777.412c-38.455 0-70.235-31.898-70.235-70.353v-401.529c0-38.455 31.779-70.235 70.235-70.235h642.588c38.456 0 70.235 31.779 70.235 70.235v401.529c0 38.456-31.78 70.353-70.235 70.353zM160.588 717.176h642.588c5.902 0 10-4.218 10-10.118v-401.529c0-5.901-4.099-10-10-10h-642.588c-5.9 0-10 4.098-10 10v401.529c0 5.901 4.099 10.118 10 10.118zM80.353 134.824c-16.634 0-30.118-13.484-30.118-30.118v0c0-16.634 13.484-30.118 30.118-30.118h803.059c16.634 0 30.118 13.484 30.118 30.118v0c0 16.634-13.484 30.118-30.118 30.118v0z" />
<glyph unicode="&#xe921;" glyph-name="usb" horiz-adv-x="964" d="M361.412 817.529c-60.633 0-110.471-49.838-110.471-110.471v-240.941c0.002-16.633 13.485-30.116 30.117-30.118h401.647c16.633 0.002 30.116 13.485 30.118 30.117v0 240.941c0 60.631-49.835 110.471-110.471 110.471zM361.412 757.294h240.941c28.084 0 50.235-22.155 50.235-50.235v-210.824h-341.412v210.824c0 28.079 22.156 50.235 50.235 50.235zM240.941 496.235c-38.454 0-70.235-31.78-70.235-70.235v-361.412c0-16.634 13.484-30.118 30.118-30.118v0c16.634 0 30.118 13.484 30.118 30.118v0 361.412c0 5.902 4.098 10 10 10h481.882c5.903 0 10-4.099 10-10v-361.412c0-16.634 13.484-30.118 30.118-30.118v0c16.634 0 30.118 13.484 30.118 30.118v0 361.412c0 38.456-31.781 70.235-70.235 70.235zM441.765 616.706c-16.634 0-30.118-13.484-30.118-30.118v0c0-16.634 13.484-30.118 30.118-30.118v0h80.235c16.634 0 30.118 13.484 30.118 30.118v0c0 16.634-13.484 30.118-30.118 30.118v0z" />
<glyph unicode="&#xe922;" glyph-name="arrow-expand" horiz-adv-x="983" d="M163.84 760.16c-8.502-0.001-16.198-3.457-21.759-9.039l-0.001-0.001c-5.558-5.559-8.995-13.238-8.995-21.72s3.438-16.161 8.995-21.72l327.68-327.68c5.563-5.581 13.258-9.034 21.76-9.034s16.197 3.453 21.759 9.033l327.681 327.681c5.558 5.559 8.995 13.238 8.995 21.72s-3.438 16.161-8.995 21.72v0c-5.563 5.582-13.258 9.035-21.76 9.035s-16.197-3.454-21.759-9.035l-305.921-305.921-305.92 305.92c-5.562 5.583-13.258 9.039-21.76 9.040v0zM163.84 514.4c-8.502-0.001-16.198-3.457-21.759-9.039l-0.001-0.001c-5.558-5.559-8.995-13.238-8.995-21.72s3.438-16.161 8.995-21.72l327.68-327.68c5.563-5.581 13.258-9.034 21.76-9.034s16.197 3.453 21.759 9.033l327.681 327.681c5.558 5.559 8.995 13.238 8.995 21.72s-3.438 16.161-8.995 21.72v0c-5.563 5.582-13.258 9.035-21.76 9.035s-16.197-3.454-21.759-9.035l-305.921-305.921-305.92 305.92c-5.562 5.583-13.258 9.039-21.76 9.040v0z" />
<glyph unicode="&#xe923;" glyph-name="bars" horiz-adv-x="983" d="M778.24 417.28h-573.44c-8.147 0-15.961 3.236-21.722 8.999-5.761 5.759-8.998 13.574-8.998 21.721s3.237 15.962 8.998 21.721c5.761 5.763 13.575 8.999 21.722 8.999h573.44c8.147 0 15.962-3.236 21.721-8.999 5.763-5.759 8.999-13.574 8.999-21.721s-3.236-15.962-8.999-21.721c-5.759-5.763-13.574-8.999-21.721-8.999zM778.24 601.6h-573.44c-8.147 0-15.961 3.237-21.722 8.998s-8.998 13.575-8.998 21.722c0 8.147 3.237 15.961 8.998 21.722s13.575 8.998 21.722 8.998h573.44c8.147 0 15.962-3.237 21.721-8.998 5.763-5.761 8.999-13.575 8.999-21.722s-3.236-15.961-8.999-21.722c-5.759-5.761-13.574-8.998-21.721-8.998zM778.24 232.96h-573.44c-8.147 0-15.961 3.236-21.722 8.999-5.761 5.759-8.998 13.574-8.998 21.721s3.237 15.962 8.998 21.721c5.761 5.763 13.575 8.999 21.722 8.999h573.44c8.147 0 15.962-3.236 21.721-8.999 5.763-5.759 8.999-13.574 8.999-21.721s-3.236-15.962-8.999-21.721c-5.759-5.763-13.574-8.999-21.721-8.999zM778.24 417.28h-573.44c-8.147 0-15.961 3.236-21.722 8.999-5.761 5.759-8.998 13.574-8.998 21.721s3.237 15.962 8.998 21.721c5.761 5.763 13.575 8.999 21.722 8.999h573.44c8.147 0 15.962-3.236 21.721-8.999 5.763-5.759 8.999-13.574 8.999-21.721s-3.236-15.962-8.999-21.721c-5.759-5.763-13.574-8.999-21.721-8.999zM778.24 601.6h-573.44c-8.147 0-15.961 3.237-21.722 8.998s-8.998 13.575-8.998 21.722c0 8.147 3.237 15.961 8.998 21.722s13.575 8.998 21.722 8.998h573.44c8.147 0 15.962-3.237 21.721-8.998 5.763-5.761 8.999-13.575 8.999-21.722s-3.236-15.961-8.999-21.722c-5.759-5.761-13.574-8.998-21.721-8.998zM778.24 232.96h-573.44c-8.147 0-15.961 3.236-21.722 8.999-5.761 5.759-8.998 13.574-8.998 21.721s3.237 15.962 8.998 21.721c5.761 5.763 13.575 8.999 21.722 8.999h573.44c8.147 0 15.962-3.236 21.721-8.999 5.763-5.759 8.999-13.574 8.999-21.721s-3.236-15.962-8.999-21.721c-5.759-5.763-13.574-8.999-21.721-8.999z" />
<glyph unicode="&#xe924;" glyph-name="home" d="M492.833 857.583l-367-275.167c-18.78-14.084-29.833-36.276-29.833-59.75v-416c0-40.858 33.809-74.667 74.667-74.667h188.917c40.858 0 74.667 33.809 74.667 74.667v254.5h155.5v-254.5c0-40.858 33.809-74.667 74.667-74.667h188.917c40.858 0 74.667 33.809 74.667 74.667v416c0 23.474-11.054 45.666-29.833 59.75l-367 275.167c-5.275 3.98-11.941 6.374-19.167 6.374s-13.891-2.394-19.248-6.433l0.081 0.059zM512 792l347.75-260.833c2.708-2.031 4.25-5.115 4.25-8.5v-416c0-6.272-4.395-10.667-10.667-10.667h-188.917c-6.272 0-10.667 4.395-10.667 10.667v286.5c-0.002 17.672-14.328 31.998-32 32h-219.5c-17.672-0.002-31.998-14.328-32-32v0-286.5c0-6.271-4.396-10.667-10.667-10.667h-188.917c-6.271 0-10.667 4.395-10.667 10.667v416c0 3.386 1.542 6.469 4.25 8.5z" />
<glyph unicode="&#xe925;" glyph-name="list" horiz-adv-x="983" d="M778.248 417.28h-450.559c-8.147 0-15.961 3.236-21.722 8.999-5.761 5.759-8.998 13.574-8.998 21.721s3.237 15.962 8.998 21.721c5.761 5.763 13.575 8.999 21.722 8.999h450.559c8.147 0 15.962-3.236 21.725-8.999 5.759-5.759 8.995-13.574 8.995-21.721s-3.236-15.962-8.995-21.721c-5.763-5.763-13.578-8.999-21.725-8.999zM778.248 601.6h-450.559c-8.147 0-15.961 3.237-21.722 8.998s-8.998 13.575-8.998 21.722c0 8.147 3.237 15.961 8.998 21.722s13.575 8.998 21.722 8.998h450.559c8.147 0 15.962-3.237 21.725-8.998 5.759-5.761 8.995-13.575 8.995-21.722s-3.236-15.961-8.995-21.722c-5.763-5.761-13.578-8.998-21.725-8.998zM778.248 232.96h-450.559c-8.147 0-15.961 3.236-21.722 8.999-5.761 5.759-8.998 13.574-8.998 21.721s3.237 15.962 8.998 21.721c5.761 5.763 13.575 8.999 21.722 8.999h450.559c8.147 0 15.962-3.236 21.725-8.999 5.759-5.759 8.995-13.574 8.995-21.721s-3.236-15.962-8.995-21.721c-5.763-5.763-13.578-8.999-21.725-8.999zM204.809 591.36c-5.325-0.065-10.612 0.909-15.565 2.867-4.894 2.375-9.442 5.407-13.517 9.011-3.796 3.827-6.799 8.366-8.838 13.357s-3.072 10.334-3.040 15.725c0.151 10.845 4.394 21.232 11.878 29.082 3.845 3.793 8.453 6.725 13.517 8.602 9.972 4.097 21.157 4.097 31.13 0 5.028-1.949 9.622-4.873 13.517-8.602 7.485-7.849 11.728-18.237 11.878-29.082 0.031-5.39-1.002-10.734-3.040-15.725s-5.042-9.53-8.838-13.357c-4.075-3.604-8.622-6.636-13.517-9.011-4.952-1.958-10.239-2.932-15.565-2.867zM204.809 407.040c-5.352 0.066-10.641 1.18-15.565 3.277-4.964 2.077-9.535 4.985-13.517 8.602-3.796 3.83-6.799 8.368-8.838 13.357s-3.072 10.334-3.040 15.725c0.151 10.846 4.394 21.234 11.878 29.082 3.981 3.617 8.553 6.529 13.517 8.602 7.415 3.437 15.688 4.579 23.757 3.277l7.373-2.458 7.373-3.686c2.146-1.511 4.198-3.154 6.144-4.915 7.679-8.053 11.937-18.772 11.878-29.901 0-10.863-4.315-21.283-11.997-28.963s-18.1-11.997-28.963-11.997zM204.809 222.72c-5.325-0.066-10.612 0.909-15.565 2.867-4.894 2.376-9.442 5.407-13.517 9.011-3.618 3.981-6.527 8.552-8.602 13.517-2.167 4.903-3.286 10.203-3.286 15.565s1.119 10.662 3.286 15.565c2.074 4.964 4.984 9.535 8.602 13.517 5.76 5.685 13.074 9.535 21.020 11.063 7.946 1.532 16.167 0.676 23.626-2.462 5.028-1.95 9.622-4.87 13.517-8.602 3.618-3.981 6.527-8.552 8.602-13.517 2.167-4.903 3.287-10.203 3.287-15.565s-1.119-10.662-3.287-15.565c-2.074-4.964-4.984-9.535-8.602-13.517-3.827-3.797-8.366-6.799-13.357-8.839-4.991-2.036-10.334-3.068-15.725-3.039zM778.248 417.28h-450.559c-8.147 0-15.961 3.236-21.722 8.999-5.761 5.759-8.998 13.574-8.998 21.721s3.237 15.962 8.998 21.721c5.761 5.763 13.575 8.999 21.722 8.999h450.559c8.147 0 15.962-3.236 21.725-8.999 5.759-5.759 8.995-13.574 8.995-21.721s-3.236-15.962-8.995-21.721c-5.763-5.763-13.578-8.999-21.725-8.999zM778.248 601.6h-450.559c-8.147 0-15.961 3.237-21.722 8.998s-8.998 13.575-8.998 21.722c0 8.147 3.237 15.961 8.998 21.722s13.575 8.998 21.722 8.998h450.559c8.147 0 15.962-3.237 21.725-8.998 5.759-5.761 8.995-13.575 8.995-21.722s-3.236-15.961-8.995-21.722c-5.763-5.761-13.578-8.998-21.725-8.998zM778.248 232.96h-450.559c-8.147 0-15.961 3.236-21.722 8.999-5.761 5.759-8.998 13.574-8.998 21.721s3.237 15.962 8.998 21.721c5.761 5.763 13.575 8.999 21.722 8.999h450.559c8.147 0 15.962-3.236 21.725-8.999 5.759-5.759 8.995-13.574 8.995-21.721s-3.236-15.962-8.995-21.721c-5.763-5.763-13.578-8.999-21.725-8.999zM204.809 591.36c-5.325-0.065-10.612 0.909-15.565 2.867-4.894 2.375-9.442 5.407-13.517 9.011-3.796 3.827-6.799 8.366-8.838 13.357s-3.072 10.334-3.040 15.725c0.151 10.845 4.394 21.232 11.878 29.082 3.845 3.793 8.453 6.725 13.517 8.602 9.972 4.097 21.157 4.097 31.13 0 5.028-1.949 9.622-4.873 13.517-8.602 7.485-7.849 11.728-18.237 11.878-29.082 0.031-5.39-1.002-10.734-3.040-15.725s-5.042-9.53-8.838-13.357c-4.075-3.604-8.622-6.636-13.517-9.011-4.952-1.958-10.239-2.932-15.565-2.867zM204.809 407.040c-5.352 0.066-10.641 1.18-15.565 3.277-4.964 2.077-9.535 4.985-13.517 8.602-3.796 3.83-6.799 8.368-8.838 13.357s-3.072 10.334-3.040 15.725c0.151 10.846 4.394 21.234 11.878 29.082 3.981 3.617 8.553 6.529 13.517 8.602 7.415 3.437 15.688 4.579 23.757 3.277l7.373-2.458 7.373-3.686c2.146-1.511 4.198-3.154 6.144-4.915 7.679-8.053 11.937-18.772 11.878-29.901 0-10.863-4.315-21.283-11.997-28.963s-18.1-11.997-28.963-11.997zM204.809 222.72c-5.325-0.066-10.612 0.909-15.565 2.867-4.894 2.376-9.442 5.407-13.517 9.011-3.618 3.981-6.527 8.552-8.602 13.517-2.167 4.903-3.286 10.203-3.286 15.565s1.119 10.662 3.286 15.565c2.074 4.964 4.984 9.535 8.602 13.517 5.76 5.685 13.074 9.535 21.020 11.063 7.946 1.532 16.167 0.676 23.626-2.462 5.028-1.95 9.622-4.87 13.517-8.602 3.618-3.981 6.527-8.552 8.602-13.517 2.167-4.903 3.287-10.203 3.287-15.565s-1.119-10.662-3.287-15.565c-2.074-4.964-4.984-9.535-8.602-13.517-3.827-3.797-8.366-6.799-13.357-8.839-4.991-2.036-10.334-3.068-15.725-3.039z" />
<glyph unicode="&#xe926;" glyph-name="tile" horiz-adv-x="983" d="M368.64 478.72h-122.88c-24.442 0-47.883 9.712-65.167 26.993-17.283 17.285-26.993 40.727-26.993 65.167v122.88c0 24.442 9.71 47.883 26.993 65.167s40.724 26.993 65.167 26.993h122.88c24.442 0 47.882-9.71 65.167-26.993 17.281-17.283 26.993-40.724 26.993-65.167v-122.88c0-24.441-9.712-47.882-26.993-65.167-17.285-17.281-40.725-26.993-65.167-26.993zM245.76 724.48c-8.115-0.106-15.867-3.377-21.605-9.115s-9.009-13.491-9.115-21.605v-122.88c0.106-8.115 3.377-15.867 9.115-21.606s13.491-9.007 21.605-9.114h122.88c8.115 0.106 15.867 3.375 21.605 9.114 5.738 5.74 9.009 13.492 9.115 21.606v122.88c-0.106 8.115-3.377 15.867-9.115 21.605s-13.491 9.009-21.605 9.115h-122.88zM368.64 110.080h-122.88c-24.442 0-47.883 9.712-65.167 26.993-17.283 17.285-26.993 40.727-26.993 65.167v122.88c0 24.441 9.71 47.882 26.993 65.167 17.283 17.281 40.724 26.993 65.167 26.993h122.88c24.442 0 47.882-9.712 65.167-26.993 17.281-17.285 26.993-40.727 26.993-65.167v-122.88c0-24.441-9.712-47.882-26.993-65.167-17.285-17.281-40.725-26.993-65.167-26.993zM245.76 355.84c-8.115-0.106-15.867-3.375-21.605-9.114s-9.009-13.492-9.115-21.606v-122.88c0.106-8.114 3.377-15.868 9.115-21.606s13.491-9.007 21.605-9.114h122.88c8.115 0.106 15.867 3.375 21.605 9.114s9.009 13.492 9.115 21.606v122.88c-0.106 8.114-3.377 15.868-9.115 21.606s-13.491 9.007-21.605 9.114h-122.88zM737.28 478.72h-122.88c-24.441 0-47.882 9.712-65.167 26.993-17.281 17.285-26.993 40.727-26.993 65.167v122.88c0 24.442 9.712 47.883 26.993 65.167 17.285 17.283 40.727 26.993 65.167 26.993h122.88c24.441 0 47.882-9.71 65.167-26.993 17.281-17.283 26.993-40.724 26.993-65.167v-122.88c0-24.441-9.712-47.882-26.993-65.167-17.285-17.281-40.727-26.993-65.167-26.993zM614.4 724.48c-8.114-0.106-15.868-3.377-21.606-9.115s-9.007-13.491-9.114-21.605v-122.88c0.106-8.115 3.375-15.867 9.114-21.606s13.492-9.007 21.606-9.114h122.88c8.114 0.106 15.868 3.375 21.606 9.114 5.738 5.74 9.007 13.492 9.114 21.606v122.88c-0.106 8.115-3.375 15.867-9.114 21.605s-13.492 9.009-21.606 9.115h-122.88zM737.28 110.080h-122.88c-24.441 0-47.882 9.712-65.167 26.993-17.281 17.285-26.993 40.727-26.993 65.167v122.88c0 24.441 9.712 47.882 26.993 65.167 17.285 17.281 40.727 26.993 65.167 26.993h122.88c24.441 0 47.882-9.712 65.167-26.993 17.281-17.285 26.993-40.727 26.993-65.167v-122.88c0-24.441-9.712-47.882-26.993-65.167-17.285-17.281-40.727-26.993-65.167-26.993zM614.4 355.84c-8.114-0.106-15.868-3.375-21.606-9.114s-9.007-13.492-9.114-21.606v-122.88c0.106-8.114 3.375-15.868 9.114-21.606s13.492-9.007 21.606-9.114h122.88c8.114 0.106 15.868 3.375 21.606 9.114s9.007 13.492 9.114 21.606v122.88c-0.106 8.114-3.375 15.868-9.114 21.606s-13.492 9.007-21.606 9.114h-122.88z" />
<glyph unicode="&#xe927;" glyph-name="filter" d="M85.333 693.333c-17.673 0-32-14.327-32-32v0c0-17.673 14.327-32 32-32v0h853.333c17.673 0 32 14.327 32 32v0c0 17.673-14.327 32-32 32v0h-498.75zM256 480c-17.673 0-32-14.327-32-32v0c0-17.673 14.327-32 32-32v0h512c17.673 0 32 14.327 32 32v0c0 17.673-14.327 32-32 32v0zM469.333 266.667c-17.673 0-32-14.327-32-32v0c0-17.673 14.327-32 32-32v0h85.333c17.673 0 32 14.327 32 32v0c0 17.673-14.327 32-32 32v0z" />
</font>
</defs>
</svg>
