<?xml version="1.0" encoding="UTF-8" standalone="no"?>
<svg
   width="57"
   height="57"
   viewBox="0 0 57 57"
   fill="none"
   version="1.1"
   id="svg2"
   sodipodi:docname="clock.svg"
   inkscape:version="1.3 (0e150ed6c4, 2023-07-21)"
   xmlns:inkscape="http://www.inkscape.org/namespaces/inkscape"
   xmlns:sodipodi="http://sodipodi.sourceforge.net/DTD/sodipodi-0.dtd"
   xmlns="http://www.w3.org/2000/svg"
   xmlns:svg="http://www.w3.org/2000/svg">
  <defs
     id="defs2" />
  <sodipodi:namedview
     id="namedview2"
     pagecolor="#ffffff"
     bordercolor="#000000"
     borderopacity="0.25"
     inkscape:showpageshadow="2"
     inkscape:pageopacity="0.0"
     inkscape:pagecheckerboard="0"
     inkscape:deskcolor="#d1d1d1"
     inkscape:zoom="14.403509"
     inkscape:cx="28.5"
     inkscape:cy="28.5"
     inkscape:window-width="1920"
     inkscape:window-height="1017"
     inkscape:window-x="-8"
     inkscape:window-y="-8"
     inkscape:window-maximized="1"
     inkscape:current-layer="svg2" />
  <path
     style="color:#000000;fill:#f5f5f5;stroke-linecap:round;stroke-linejoin:round;-inkscape-stroke:none"
     d="m 28.5,3.9257813 c -13.427123,0 -24.3339844,10.9068617 -24.3339844,24.3339847 0,13.427026 10.9068594,24.332031 24.3339844,24.332031 13.427029,0 24.333984,-10.905002 24.333984,-24.332031 C 52.833984,14.832641 41.927028,3.9257813 28.5,3.9257813 Z m 0,1.9999999 c 12.346147,10e-8 22.333984,9.9877348 22.333984,22.3339848 0,12.346145 -9.987839,22.332031 -22.333984,22.332031 -12.346249,0 -22.3339844,-9.985884 -22.3339844,-22.332031 C 6.1660156,15.913514 16.153749,5.9257813 28.5,5.9257812 Z"
     id="path1" />
  <path
     style="color:#000000;fill:#f5f5f5;stroke-linecap:round;stroke-linejoin:round;-inkscape-stroke:none"
     d="m 28.5,13.259766 a 1,1 0 0 0 -1,1 v 14 a 1.0001,1.0001 0 0 0 0.292969,0.707031 l 9.333984,9.332031 a 1,1 0 0 0 1.414063,0 1,1 0 0 0 0,-1.414062 L 29.5,27.845703 V 14.259766 a 1,1 0 0 0 -1,-1 z"
     id="path2" />
</svg>
