<?xml version="1.0" encoding="UTF-8" standalone="no"?>
<svg
   width="57"
   height="57"
   viewBox="0 0 57 57"
   fill="none"
   version="1.1"
   id="svg5"
   sodipodi:docname="gift.svg"
   inkscape:version="1.3 (0e150ed6c4, 2023-07-21)"
   xmlns:inkscape="http://www.inkscape.org/namespaces/inkscape"
   xmlns:sodipodi="http://sodipodi.sourceforge.net/DTD/sodipodi-0.dtd"
   xmlns="http://www.w3.org/2000/svg"
   xmlns:svg="http://www.w3.org/2000/svg">
  <defs
     id="defs5" />
  <sodipodi:namedview
     id="namedview5"
     pagecolor="#ffffff"
     bordercolor="#000000"
     borderopacity="0.25"
     inkscape:showpageshadow="2"
     inkscape:pageopacity="0.0"
     inkscape:pagecheckerboard="0"
     inkscape:deskcolor="#d1d1d1"
     inkscape:zoom="14.403509"
     inkscape:cx="28.5"
     inkscape:cy="28.5"
     inkscape:window-width="1920"
     inkscape:window-height="1017"
     inkscape:window-x="-8"
     inkscape:window-y="-8"
     inkscape:window-maximized="1"
     inkscape:current-layer="svg5" />
  <path
     style="color:#000000;fill:#f5f5f5;stroke-linecap:round;stroke-linejoin:round;-inkscape-stroke:none"
     d="m 9.8339844,29.591797 a 1.0001,1.0001 0 0 0 -1,1 v 16.333984 c 0,3.11782 2.5483086,5.666016 5.6660156,5.666016 h 28 c 3.117786,0 5.666016,-2.548203 5.666016,-5.666016 V 30.591797 a 1.0001,1.0001 0 0 0 -1,-1 z m 0.9999996,2 h 35.332032 v 15.333984 c 0,2.036983 -1.629008,3.666016 -3.666016,3.666016 h -28 c -2.036887,0 -3.666016,-1.629041 -3.666016,-3.666016 z"
     id="path1" />
  <path
     style="color:#000000;fill:#f5f5f5;stroke-linecap:round;stroke-linejoin:round;-inkscape-stroke:none"
     d="m 5.1660156,20.259766 a 1.0001,1.0001 0 0 0 -1,1 v 9.332031 a 1.0001,1.0001 0 0 0 1,1 H 51.833984 a 1.0001,1.0001 0 0 0 1,-1 v -9.332031 a 1.0001,1.0001 0 0 0 -1,-1 z m 1,2 H 50.833984 v 7.332031 H 6.1660156 Z"
     id="path2" />
  <path
     style="color:#000000;fill:#f5f5f5;stroke-linecap:round;stroke-linejoin:round;-inkscape-stroke:none"
     d="m 28.5,10.925781 a 1,1 0 0 0 -1,1 v 8.763672 30.902344 a 1,1 0 0 0 1,1 1,1 0 0 0 1,-1 V 20.689453 11.925781 a 1,1 0 0 0 -1,-1 z"
     id="path3" />
  <path
     style="color:#000000;fill:#f5f5f5;stroke-linecap:round;stroke-linejoin:round;-inkscape-stroke:none"
     d="m 20.333984,3.9257813 c -5.050736,0 -9.167968,4.1152336 -9.167968,9.1660157 0,5.050747 4.117222,9.167969 9.167968,9.167969 a 1,1 0 0 0 1,-1 1,1 0 0 0 -1,-1 c -3.969844,0 -7.167968,-3.198125 -7.167968,-7.167969 0,-3.9698891 3.198114,-7.1660158 7.167968,-7.1660158 3.969855,0 7.166016,3.1961267 7.166016,7.1660158 a 1,1 0 0 0 1,1 1,1 0 0 0 1,-1 c 0,-5.0507821 -4.115279,-9.1660157 -9.166016,-9.1660157 z"
     id="path4" />
  <path
     style="color:#000000;fill:#f5f5f5;stroke-linecap:round;stroke-linejoin:round;-inkscape-stroke:none"
     d="M 36.666016,3.9257813 C 31.615191,3.9257813 27.5,8.0410296 27.5,13.091797 a 1,1 0 0 0 1,1 1,1 0 0 0 1,-1 c 0,-3.9699039 3.196049,-7.1660157 7.166016,-7.1660158 3.969854,0 7.167968,3.1961119 7.167968,7.1660158 0,3.969859 -3.198124,7.167969 -7.167968,7.167969 a 1,1 0 0 0 -1,1 1,1 0 0 0 1,1 c 5.050746,0 9.167968,-4.117237 9.167968,-9.167969 0,-5.0507674 -4.117232,-9.1660157 -9.167968,-9.1660157 z"
     id="path5" />
</svg>
