<?xml version="1.0" encoding="UTF-8" standalone="no"?>
<svg
   width="57"
   height="57"
   viewBox="0 0 57 57"
   fill="none"
   version="1.1"
   id="svg1"
   sodipodi:docname="headphone.svg"
   inkscape:version="1.3 (0e150ed6c4, 2023-07-21)"
   xmlns:inkscape="http://www.inkscape.org/namespaces/inkscape"
   xmlns:sodipodi="http://sodipodi.sourceforge.net/DTD/sodipodi-0.dtd"
   xmlns="http://www.w3.org/2000/svg"
   xmlns:svg="http://www.w3.org/2000/svg">
  <defs
     id="defs1" />
  <sodipodi:namedview
     id="namedview1"
     pagecolor="#ffffff"
     bordercolor="#000000"
     borderopacity="0.25"
     inkscape:showpageshadow="2"
     inkscape:pageopacity="0.0"
     inkscape:pagecheckerboard="0"
     inkscape:deskcolor="#d1d1d1"
     inkscape:zoom="14.403509"
     inkscape:cx="28.5"
     inkscape:cy="28.5"
     inkscape:window-width="1920"
     inkscape:window-height="1017"
     inkscape:window-x="-8"
     inkscape:window-y="-8"
     inkscape:window-maximized="1"
     inkscape:current-layer="svg1" />
  <path
     style="color:#000000;fill:#f5f5f5;stroke-linecap:round;stroke-linejoin:round;-inkscape-stroke:none"
     d="m 28.5,3.9257813 c -13.427123,0 -24.3339844,10.9068607 -24.3339844,24.3339847 v 5.832031 15.167969 c 0,1.829129 1.5049257,3.332031 3.3339844,3.332031 h 8.666016 c 1.829087,0 3.333984,-1.502892 3.333984,-3.332031 V 36.425781 c 0,-1.829139 -1.504897,-3.333984 -3.333984,-3.333984 H 6.1660156 V 28.259766 C 6.1660156,15.913515 16.153749,5.9257813 28.5,5.9257812 c 12.346042,10e-8 22.333984,9.9877398 22.333984,22.3339848 v 4.832031 h -10 c -1.829087,0 -3.333984,1.504845 -3.333984,3.333984 v 12.833985 c 0,1.829139 1.504897,3.332031 3.333984,3.332031 H 49.5 c 1.829088,0 3.333984,-1.502944 3.333984,-3.332031 V 34.091797 28.259766 C 52.833984,14.832636 41.926932,3.9257813 28.5,3.9257813 Z M 6.1660156,35.091797 H 16.166016 c 0.748309,0 1.333984,0.585726 1.333984,1.333984 v 12.833985 c 0,0.748258 -0.585675,1.332031 -1.333984,1.332031 H 7.5 c -0.7482387,0 -1.3339844,-0.583763 -1.3339844,-1.332031 z m 34.6679684,0 h 10 v 14.167969 c 0,0.748309 -0.585674,1.332031 -1.333984,1.332031 H 40.833984 C 40.085675,50.591797 39.5,50.008024 39.5,49.259766 V 36.425781 c 0,-0.748258 0.585675,-1.333984 1.333984,-1.333984 z"
     id="path1" />
</svg>
