<?xml version="1.0" encoding="UTF-8" standalone="no"?>
<svg
   width="57"
   height="57"
   viewBox="0 0 57 57"
   fill="none"
   version="1.1"
   id="svg4"
   sodipodi:docname="item.svg"
   inkscape:version="1.3 (0e150ed6c4, 2023-07-21)"
   xmlns:inkscape="http://www.inkscape.org/namespaces/inkscape"
   xmlns:sodipodi="http://sodipodi.sourceforge.net/DTD/sodipodi-0.dtd"
   xmlns="http://www.w3.org/2000/svg"
   xmlns:svg="http://www.w3.org/2000/svg">
  <sodipodi:namedview
     id="namedview4"
     pagecolor="#ffffff"
     bordercolor="#000000"
     borderopacity="0.25"
     inkscape:showpageshadow="2"
     inkscape:pageopacity="0.0"
     inkscape:pagecheckerboard="0"
     inkscape:deskcolor="#d1d1d1"
     inkscape:zoom="14.403509"
     inkscape:cx="28.569427"
     inkscape:cy="28.5"
     inkscape:window-width="1920"
     inkscape:window-height="1017"
     inkscape:window-x="-8"
     inkscape:window-y="-8"
     inkscape:window-maximized="1"
     inkscape:current-layer="g3" />
  <rect
     width="57"
     height="57"
     fill="#747474"
     id="rect1" />
  <g
     clip-path="url(#clip0_22_2)"
     id="g3">
    <rect
       width="1440"
       height="4500"
       transform="translate(-692 -3128)"
       fill="#E8E8E8"
       id="rect2" />
    <rect
       x="-98"
       y="-23.7407"
       width="253"
       height="133"
       rx="5"
       fill="#373737"
       id="rect3"
       style="fill:#ffffff;fill-opacity:0" />
    <path
       style="color:#000000;fill:#f5f5f5;stroke-linecap:round;stroke-linejoin:round;-inkscape-stroke:none"
       d="m 9.8339844,3.9257813 c -3.1177727,0 -5.6679688,2.5482508 -5.6679688,5.6660156 V 32.925781 c 0,3.11782 2.5502039,5.666016 5.6679688,5.666016 H 20.5 v 1.734375 c 0,3.960856 -1.572288,7.757741 -4.373047,10.558594 a 1.0001,1.0001 0 0 0 0.707031,1.707031 h 23.332032 a 1.0001,1.0001 0 0 0 0.707031,-1.707031 C 38.072204,48.083922 36.5,44.287044 36.5,40.326172 v -1.734375 h 10.666016 c 3.117812,0 5.667968,-2.548229 5.667968,-5.666016 V 16.939453 9.5917969 c 0,-3.1177311 -2.550148,-5.6660156 -5.667968,-5.6660156 z m 0,1.9999999 H 47.166016 c 2.036974,0 3.667968,1.6290919 3.667968,3.6660157 v 7.3476561 15.986328 c 0,2.037009 -1.630986,3.666016 -3.667968,3.666016 H 35.5 21.5 9.8339844 c -2.03691,0 -3.6679688,-1.629041 -3.6679688,-3.666016 V 9.5917969 c 0,-2.0368901 1.6310666,-3.6660157 3.6679688,-3.6660157 z M 22.5,38.591797 h 12 v 1.734375 c 0,3.746787 1.302632,7.324995 3.558594,10.265625 H 18.939453 C 21.196044,47.650927 22.5,44.073561 22.5,40.326172 Z"
       id="path3" />
  </g>
  <defs
     id="defs4">
    <clipPath
       id="clip0_22_2">
      <rect
         width="1440"
         height="4500"
         fill="white"
         transform="translate(-692 -3128)"
         id="rect4" />
    </clipPath>
  </defs>
</svg>
