<?xml version="1.0" encoding="UTF-8" standalone="no"?>
<svg
   width="57"
   height="57"
   viewBox="0 0 57 57"
   fill="none"
   version="1.1"
   id="svg8"
   sodipodi:docname="net.svg"
   inkscape:version="1.3 (0e150ed6c4, 2023-07-21)"
   xmlns:inkscape="http://www.inkscape.org/namespaces/inkscape"
   xmlns:sodipodi="http://sodipodi.sourceforge.net/DTD/sodipodi-0.dtd"
   xmlns="http://www.w3.org/2000/svg"
   xmlns:svg="http://www.w3.org/2000/svg">
  <sodipodi:namedview
     id="namedview8"
     pagecolor="#ffffff"
     bordercolor="#000000"
     borderopacity="0.25"
     inkscape:showpageshadow="2"
     inkscape:pageopacity="0.0"
     inkscape:pagecheckerboard="0"
     inkscape:deskcolor="#d1d1d1"
     inkscape:zoom="14.403509"
     inkscape:cx="28.569427"
     inkscape:cy="28.5"
     inkscape:window-width="1920"
     inkscape:window-height="1017"
     inkscape:window-x="-8"
     inkscape:window-y="-8"
     inkscape:window-maximized="1"
     inkscape:current-layer="g8" />
  <rect
     width="57"
     height="57"
     fill="#747474"
     id="rect1" />
  <g
     clip-path="url(#clip0_22_2)"
     id="g8">
    <rect
       width="1440"
       height="4500"
       transform="translate(-415 -3128)"
       fill="#E8E8E8"
       id="rect2" />
    <rect
       x="-98"
       y="-23.7407"
       width="253"
       height="133"
       rx="5"
       fill="#373737"
       id="rect3"
       style="fill:#ffffff;fill-opacity:0" />
    <path
       style="color:#000000;fill:#f5f5f5;stroke-linecap:round;stroke-linejoin:round;-inkscape-stroke:none"
       d="M 23.833984,3.9257813 C 22.004924,3.9257813 20.5,5.4306436 20.5,7.2597656 v 9.3320314 c 0,1.829139 1.504955,3.333984 3.333984,3.333984 h 9.332032 c 1.829029,0 3.333984,-1.504845 3.333984,-3.333984 V 7.2597656 c 0,-1.829122 -1.504924,-3.3339844 -3.333984,-3.3339843 z m 0,1.9999999 h 9.332032 c 0.748136,0 1.333984,0.585769 1.333984,1.3339844 v 9.3320314 c 0,0.748258 -0.585817,1.333984 -1.333984,1.333984 H 23.833984 C 23.085817,17.925781 22.5,17.340055 22.5,16.591797 V 7.2597656 c 0,-0.7482154 0.585848,-1.3339844 1.333984,-1.3339844 z"
       id="path3" />
    <path
       style="color:#000000;fill:#f5f5f5;stroke-linecap:round;stroke-linejoin:round;-inkscape-stroke:none"
       d="m 12.166016,29.591797 c -1.82914,0 -3.3320316,1.504871 -3.3320316,3.333984 v 9.333985 a 1,1 0 0 0 1,1 1,1 0 0 0 0.9999996,-1 v -9.333985 c 0,-0.748284 0.583774,-1.333984 1.332032,-1.333984 h 32.667968 c 0.748258,0 1.332032,0.585675 1.332032,1.333984 v 9.333985 a 1,1 0 0 0 1,1 1,1 0 0 0 1,-1 v -9.333985 c 0,-1.829087 -1.502892,-3.333984 -3.332032,-3.333984 z"
       id="path4" />
    <path
       style="color:#000000;fill:#f5f5f5;stroke-linecap:round;stroke-linejoin:round;-inkscape-stroke:none"
       d="m 9.8339844,41.259766 c -3.1177491,0 -5.6679688,2.548272 -5.6679688,5.666015 0,3.117823 2.5502197,5.666016 5.6679688,5.666016 1.8678806,0 3.5375176,-0.910212 4.5683596,-2.3125 C 15.092104,49.340991 15.5,48.175671 15.5,46.925781 c 0,-3.117759 -2.54829,-5.666015 -5.6660156,-5.666015 z m 0,2 c 2.0368496,0 3.6660156,1.62918 3.6660156,3.666015 0,0.816582 -0.261971,1.561834 -0.708984,2.169922 -0.668057,0.90878 -1.736721,1.496094 -2.9570316,1.496094 -2.0368858,0 -3.6679688,-1.629044 -3.6679688,-3.666016 0,-2.036851 1.631083,-3.666015 3.6679688,-3.666015 z"
       id="path5" />
    <path
       style="color:#000000;fill:#f5f5f5;stroke-linecap:round;stroke-linejoin:round;-inkscape-stroke:none"
       d="m 47.166016,41.259766 c -3.117813,0 -5.666016,2.548282 -5.666016,5.666015 0,3.117813 2.548203,5.666016 5.666016,5.666016 3.117733,0 5.667968,-2.548203 5.667968,-5.666016 0,-3.117733 -2.550235,-5.666015 -5.667968,-5.666015 z m 0,2 c 2.036861,0 3.667968,1.629154 3.667968,3.666015 0,2.036983 -1.631107,3.666016 -3.667968,3.666016 -2.036983,0 -3.666016,-1.629033 -3.666016,-3.666016 0,-2.036861 1.629033,-3.666015 3.666016,-3.666015 z"
       id="path6" />
    <path
       style="color:#000000;fill:#f5f5f5;stroke-linecap:round;stroke-linejoin:round;-inkscape-stroke:none"
       d="m 28.5,41.259766 c -3.117733,0 -5.666016,2.548282 -5.666016,5.666015 0,3.117813 2.548283,5.666016 5.666016,5.666016 3.117733,0 5.666016,-2.548178 5.666016,-5.666016 0,-3.117759 -2.548283,-5.666015 -5.666016,-5.666015 z m 0,2 c 2.036862,0 3.666016,1.62918 3.666016,3.666015 0,2.036957 -1.629154,3.666016 -3.666016,3.666016 -2.036862,0 -3.666016,-1.629033 -3.666016,-3.666016 0,-2.036861 1.629154,-3.666015 3.666016,-3.666015 z"
       id="path7" />
    <path
       style="color:#000000;fill:#f5f5f5;stroke-linecap:round;stroke-linejoin:round;-inkscape-stroke:none"
       d="m 28.5,17.925781 a 1,1 0 0 0 -1,1 v 23.333985 a 1,1 0 0 0 1,1 1,1 0 0 0 1,-1 V 18.925781 a 1,1 0 0 0 -1,-1 z"
       id="path8" />
  </g>
  <defs
     id="defs8">
    <clipPath
       id="clip0_22_2">
      <rect
         width="1440"
         height="4500"
         fill="white"
         transform="translate(-415 -3128)"
         id="rect8" />
    </clipPath>
  </defs>
</svg>
