<svg width="24" height="24" viewBox="0 0 24 24" fill="none" xmlns="http://www.w3.org/2000/svg">
<path fill-rule="evenodd" clip-rule="evenodd" d="M9.46967 7.46973C9.76256 7.17684 10.2374 7.17684 10.5303 7.46973L14.5303 11.4697C14.8232 11.7626 14.8232 12.2375 14.5303 12.5304L10.5303 16.5304C10.2374 16.8233 9.76256 16.8233 9.46967 16.5304C9.17678 16.2375 9.17678 15.7626 9.46967 15.4697L12.9393 12.0001L9.46967 8.53039C9.17678 8.2375 9.17678 7.76262 9.46967 7.46973Z" fill="#9F9A9A"/>
<path fill-rule="evenodd" clip-rule="evenodd" d="M9.46967 7.46973C9.76256 7.17684 10.2374 7.17684 10.5303 7.46973L14.5303 11.4697C14.8232 11.7626 14.8232 12.2375 14.5303 12.5304L10.5303 16.5304C10.2374 16.8233 9.76256 16.8233 9.46967 16.5304C9.17678 16.2375 9.17678 15.7626 9.46967 15.4697L12.9393 12.0001L9.46967 8.53039C9.17678 8.2375 9.17678 7.76262 9.46967 7.46973Z" fill="black" fill-opacity="0.2"/>
</svg>
