<?xml version="1.0" encoding="UTF-8" standalone="no"?>
<svg
   width="16"
   height="17"
   viewBox="0 0 16 17"
   fill="none"
   version="1.1"
   id="svg1"
   sodipodi:docname="auto.svg"
   inkscape:version="1.3 (0e150ed6c4, 2023-07-21)"
   xmlns:inkscape="http://www.inkscape.org/namespaces/inkscape"
   xmlns:sodipodi="http://sodipodi.sourceforge.net/DTD/sodipodi-0.dtd"
   xmlns="http://www.w3.org/2000/svg"
   xmlns:svg="http://www.w3.org/2000/svg">
  <defs
     id="defs1" />
  <sodipodi:namedview
     id="namedview1"
     pagecolor="#ffffff"
     bordercolor="#000000"
     borderopacity="0.25"
     inkscape:showpageshadow="2"
     inkscape:pageopacity="0.0"
     inkscape:pagecheckerboard="0"
     inkscape:deskcolor="#d1d1d1"
     inkscape:zoom="48.294118"
     inkscape:cx="8.0030451"
     inkscape:cy="8.5"
     inkscape:window-width="1920"
     inkscape:window-height="1017"
     inkscape:window-x="-8"
     inkscape:window-y="-8"
     inkscape:window-maximized="1"
     inkscape:current-layer="svg1" />
  <path
     style="color:#000000;fill:#000000;fill-opacity:0.95;stroke-linecap:round;stroke-linejoin:round;-inkscape-stroke:none"
     d="M 4,3.6992188 A 0.50005,0.50005 0 0 0 3.5351563,4.0136719 L 2.328125,7.03125 H 2 c -0.6384031,0 -1.16601563,0.5295539 -1.16601562,1.1679688 V 11.53125 c 0,0.638415 0.52767592,1.167969 1.16601562,1.167969 h 1.7089844 c 0.2384348,0.736273 0.8130861,1.332031 1.625,1.332031 0.8119138,0 1.3846095,-0.595756 1.6230468,-1.332031 h 2.0859376 c 0.2384334,0.736272 0.8111279,1.332031 1.6230472,1.332031 0.811924,0 1.386575,-0.595764 1.625,-1.332031 H 14 c 0.638342,0 1.166016,-0.529536 1.166016,-1.167969 V 9.2851563 c 0,-0.4794511 -0.295601,-0.9119432 -0.742188,-1.0859375 l -2.75,-1.0722657 L 10.998047,6 9.7617188,3.9414063 A 0.50005,0.50005 0 0 0 9.3339844,3.6992188 Z m 0.3378906,0.9999999 h 4.7128907 l 1.0878907,1.8144532 0.765625,1.2753906 a 0.50005,0.50005 0 0 0 0.248047,0.2089844 l 2.908203,1.1328125 c 0.06541,0.025486 0.105469,0.084008 0.105469,0.1542969 V 11.53125 c 0,0.09797 -0.06796,0.167969 -0.166016,0.167969 h -1.708984 c -0.238227,-0.736592 -0.812862,-1.333985 -1.625,-1.333985 -0.8121332,0 -1.3848119,0.597388 -1.6230472,1.333985 H 6.9570312 C 6.718792,10.96262 6.1461121,10.365234 5.3339844,10.365234 c -0.8121277,0 -1.3867633,0.597387 -1.625,1.333985 H 2 c -0.09804,0 -0.1660156,-0.06998 -0.1660156,-0.167969 V 8.1992188 C 1.8339844,8.1012343 1.9020238,8.03125 2,8.03125 H 2.6660156 A 0.50005,0.50005 0 0 0 3.1308594,7.7167969 Z m 0.9960938,6.6660153 c 0.4661839,0 0.8320312,0.367801 0.8320312,0.833985 0,0.466184 -0.3658926,0.832031 -0.8320312,0.832031 C 4.8678457,13.03125 4.5,12.665407 4.5,12.199219 4.5,11.73303 4.8678005,11.365234 5.3339844,11.365234 Z m 5.3320316,0 c 0.466211,0 0.833984,0.367774 0.833984,0.833985 0,0.466211 -0.367818,0.832031 -0.833984,0.832031 -0.466153,0 -0.8320316,-0.365838 -0.8320316,-0.832031 0,-0.466193 0.3658336,-0.833985 0.8320316,-0.833985 z"
     id="path1" />
</svg>
