<?xml version="1.0" encoding="UTF-8" standalone="no"?>
<svg
   width="16"
   height="16"
   viewBox="0 0 16 16"
   fill="none"
   version="1.1"
   id="svg2"
   sodipodi:docname="like-red.svg"
   inkscape:version="1.3 (0e150ed6c4, 2023-07-21)"
   xmlns:inkscape="http://www.inkscape.org/namespaces/inkscape"
   xmlns:sodipodi="http://sodipodi.sourceforge.net/DTD/sodipodi-0.dtd"
   xmlns="http://www.w3.org/2000/svg"
   xmlns:svg="http://www.w3.org/2000/svg">
  <sodipodi:namedview
     id="namedview2"
     pagecolor="#ffffff"
     bordercolor="#000000"
     borderopacity="0.25"
     inkscape:showpageshadow="2"
     inkscape:pageopacity="0.0"
     inkscape:pagecheckerboard="0"
     inkscape:deskcolor="#d1d1d1"
     inkscape:zoom="51.9375"
     inkscape:cx="8"
     inkscape:cy="8"
     inkscape:window-width="1920"
     inkscape:window-height="1027"
     inkscape:window-x="-8"
     inkscape:window-y="-8"
     inkscape:window-maximized="1"
     inkscape:current-layer="Vector" />
  <g
     id="Frame"
     clip-path="url(#clip0_1500_6021)">
    <g
       id="Vector">
      <path
         d="M4.7224 7.10876L6.89254 2.15954C7.19301 1.4743 7.99961 1.12024 8.65374 1.47056C9.67174 2.01576 9.46754 2.5268 9.46754 5.73455H13.3103C14.1412 5.73455 14.7766 6.48527 14.6503 7.3177L13.7117 13.5016C13.6099 14.172 13.0409 14.6668 12.3717 14.6668H4.7224M4.7224 7.10876V14.6668V7.10876ZM4.7224 7.10876H2.68877C1.94 7.10876 1.33301 7.72396 1.33301 8.48296V13.2926C1.33301 14.0516 1.94 14.6668 2.68877 14.6668H4.7224"
         fill="#DB322B"
         id="path13" />
      <path
         style="color:#000000;fill:#db322b;stroke-linecap:round;stroke-linejoin:round;-inkscape-stroke:none"
         d="M 7.3789062,0.7265625 C 6.8691539,0.92885512 6.4353527,1.3322668 6.2050781,1.8574219 L 4.2304687,6.359375 H 2.6894531 c -1.1595759,0 -2.10546873,0.9641864 -2.10546873,2.1230469 v 4.8105471 c 0,1.15886 0.94589283,2.123047 2.10546873,2.123047 h 2.0332031 7.6484378 c 1.038894,0 1.92618,-0.776382 2.082031,-1.802735 L 15.392578,7.4296875 C 15.584873,6.162295 14.593197,4.984375 13.310547,4.984375 H 10.208984 C 10.22227,3.9891121 10.25762,3.0743202 10.185547,2.5097656 10.138588,2.1419355 10.037571,1.7857291 9.8222656,1.4824219 9.6069598,1.1791146 9.3144984,0.97284244 9.0078125,0.80859375 8.4749487,0.52321799 7.8886586,0.52426988 7.3789062,0.7265625 Z m 0.9199219,1.4042969 c 0.2023136,0.108351 0.2680623,0.1726579 0.3007813,0.21875 0.032719,0.046092 0.070368,0.1205613 0.099609,0.3496094 0.058482,0.458096 0.017578,1.4153682 0.017578,3.0351562 a 0.750075,0.750075 0 0 0 0.75,0.75 h 3.8437501 c 0.379148,0 0.657961,0.3232373 0.597656,0.7207031 l -0.9375,6.1835939 c -0.04775,0.314446 -0.300105,0.527344 -0.599609,0.527344 H 5.4726562 V 7.2675781 L 7.5800781,2.4609375 C 7.7204684,2.1407691 8.056297,2.0009716 8.2988281,2.1308594 Z M 2.6894531,7.859375 h 1.2832032 v 6.056641 H 2.6894531 c -0.3379626,0 -0.6054687,-0.263909 -0.6054687,-0.623047 V 8.4824219 c 0,-0.359138 0.2675061,-0.6230469 0.6054687,-0.6230469 z"
         id="path10" />
    </g>
  </g>
  <defs
     id="defs2">
    <clipPath
       id="clip0_1500_6021">
      <rect
         width="16"
         height="16"
         fill="white"
         id="rect2" />
    </clipPath>
  </defs>
</svg>
