<?xml version="1.0" encoding="UTF-8" standalone="no"?>
<svg
   width="16"
   height="17"
   viewBox="0 0 16 17"
   fill="none"
   version="1.1"
   id="svg6"
   sodipodi:docname="other.svg"
   inkscape:version="1.3 (0e150ed6c4, 2023-07-21)"
   xmlns:inkscape="http://www.inkscape.org/namespaces/inkscape"
   xmlns:sodipodi="http://sodipodi.sourceforge.net/DTD/sodipodi-0.dtd"
   xmlns="http://www.w3.org/2000/svg"
   xmlns:svg="http://www.w3.org/2000/svg">
  <sodipodi:namedview
     id="namedview6"
     pagecolor="#ffffff"
     bordercolor="#000000"
     borderopacity="0.25"
     inkscape:showpageshadow="2"
     inkscape:pageopacity="0.0"
     inkscape:pagecheckerboard="0"
     inkscape:deskcolor="#d1d1d1"
     inkscape:zoom="48.294118"
     inkscape:cx="8.0030451"
     inkscape:cy="8.5"
     inkscape:window-width="1920"
     inkscape:window-height="1017"
     inkscape:window-x="-8"
     inkscape:window-y="-8"
     inkscape:window-maximized="1"
     inkscape:current-layer="g6" />
  <g
     clip-path="url(#clip0_1396_5700)"
     id="g6">
    <path
       style="color:#000000;fill:#373737;stroke-linecap:round;stroke-linejoin:round;-inkscape-stroke:none"
       d="m 4.6660156,1.3652344 c -1.0066018,0 -1.8320312,0.8273826 -1.8320312,1.8339844 V 14.53125 c 0,1.006614 0.8254566,1.833984 1.8320312,1.833984 h 6.6679684 c 1.006588,0 1.832032,-0.827397 1.832032,-1.833984 V 3.1992188 c 0,-1.0065747 -0.825417,-1.8339844 -1.832032,-1.8339844 z m 0,1 h 6.6679684 c 0.466184,0 0.832032,0.3678005 0.832032,0.8339844 V 14.53125 c 0,0.466211 -0.36582,0.833984 -0.832032,0.833984 H 4.6660156 c -0.4661839,0 -0.8320312,-0.3678 -0.8320312,-0.833984 V 3.1992188 c 0,-0.4661568 0.3658745,-0.8339844 0.8320312,-0.8339844 z"
       id="path1" />
    <path
       style="color:#000000;fill:#373737;stroke-linecap:round;stroke-linejoin:round;-inkscape-stroke:none"
       d="m 3.3339844,10.699219 a 0.5,0.5 0 0 0 -0.5,0.5 0.5,0.5 0 0 0 0.5,0.5 h 9.3320316 a 0.5,0.5 0 0 0 0.5,-0.5 0.5,0.5 0 0 0 -0.5,-0.5 z"
       id="path2" />
    <path
       style="color:#000000;fill:#373737;stroke-linecap:round;stroke-linejoin:round;-inkscape-stroke:none"
       d="m 3.3339844,6.03125 a 0.5,0.5 0 0 0 -0.5,0.5 0.5,0.5 0 0 0 0.5,0.5 h 9.3320316 a 0.5,0.5 0 0 0 0.5,-0.5 0.5,0.5 0 0 0 -0.5,-0.5 z"
       id="path3" />
    <path
       style="color:#000000;fill:#373737;stroke-linecap:round;stroke-linejoin:round;-inkscape-stroke:none"
       d="m 6,8.3652344 a 0.5,0.5 0 0 0 -0.3535156,0.1464844 0.5,0.5 0 0 0 0,0.7070312 l 0.00977,0.00977 a 0.5,0.5 0 0 0 0.7089844,0 0.5,0.5 0 0 0 0,-0.7070312 l -0.011719,-0.00977 A 0.5,0.5 0 0 0 6,8.3652344 Z"
       id="path7" />
    <path
       style="color:#000000;fill:#373737;stroke-linecap:round;stroke-linejoin:round;-inkscape-stroke:none"
       d="m 6,3.6992188 a 0.5,0.5 0 0 0 -0.3535156,0.1464843 0.5,0.5 0 0 0 0,0.7070313 L 5.65625,4.5625 a 0.5,0.5 0 0 0 0.7089844,0 0.5,0.5 0 0 0 0,-0.7070312 l -0.011719,-0.00977 A 0.5,0.5 0 0 0 6,3.6992188 Z"
       id="path5" />
    <path
       style="color:#000000;fill:#373737;stroke-linecap:round;stroke-linejoin:round;-inkscape-stroke:none"
       d="m 6,13.03125 a 0.5,0.5 0 0 0 -0.3535156,0.148438 0.5,0.5 0 0 0 0,0.707031 l 0.011719,0.0098 a 0.5,0.5 0 0 0 0.7070313,-0.002 0.5,0.5 0 0 0 -0.00195,-0.707031 l -0.00977,-0.0098 A 0.5,0.5 0 0 0 6,13.03125 Z"
       id="path6" />
  </g>
  <defs
     id="defs6">
    <clipPath
       id="clip0_1396_5700">
      <rect
         width="16"
         height="16"
         fill="white"
         transform="translate(0 0.865112)"
         id="rect6" />
    </clipPath>
  </defs>
</svg>
