<?xml version="1.0" encoding="UTF-8" standalone="no"?>
<svg
   width="20"
   height="20"
   viewBox="0 0 20 20"
   fill="none"
   version="1.1"
   id="svg1"
   sodipodi:docname="star-red.svg"
   inkscape:version="1.3 (0e150ed6c4, 2023-07-21)"
   xmlns:inkscape="http://www.inkscape.org/namespaces/inkscape"
   xmlns:sodipodi="http://sodipodi.sourceforge.net/DTD/sodipodi-0.dtd"
   xmlns="http://www.w3.org/2000/svg"
   xmlns:svg="http://www.w3.org/2000/svg">
  <defs
     id="defs1" />
  <sodipodi:namedview
     id="namedview1"
     pagecolor="#ffffff"
     bordercolor="#000000"
     borderopacity="0.25"
     inkscape:showpageshadow="2"
     inkscape:pageopacity="0.0"
     inkscape:pagecheckerboard="0"
     inkscape:deskcolor="#d1d1d1"
     inkscape:zoom="41.55"
     inkscape:cx="10"
     inkscape:cy="10"
     inkscape:window-width="1920"
     inkscape:window-height="1027"
     inkscape:window-x="-8"
     inkscape:window-y="-8"
     inkscape:window-maximized="1"
     inkscape:current-layer="Frame" />
  <g
     id="Frame">
    <g
       id="Vector">
      <path
         style="color:#000000;fill:#db322b;stroke-linecap:round;stroke-linejoin:round;-inkscape-stroke:none"
         d="m 10.0003,1.6665 1.9673,6.05453 h 6.3661 l -5.1503,3.74187 1.9672,6.0545 -5.1503,-3.7418 -5.15026,3.7418 1.96724,-6.0545 -5.15029,-3.74187 h 6.3661 z"
         id="path7" />
      <path
         style="color:#000000;fill:#db322b;stroke-linecap:round;stroke-linejoin:round;-inkscape-stroke:none"
         d="M 10,1.1660156 A 0.50005,0.50005 0 0 0 9.5253906,1.5117187 L 7.6699219,7.2207031 H 1.6660156 A 0.50005,0.50005 0 0 0 1.3730469,8.125 L 6.2304687,11.654297 4.375,17.363281 a 0.50005,0.50005 0 0 0 0.7695312,0.558594 L 10,14.394531 l 4.857422,3.527344 a 0.50005,0.50005 0 0 0 0.769531,-0.558594 L 13.771484,11.654297 18.626953,8.125 A 0.50005,0.50005 0 0 0 18.333984,7.2207031 H 12.330078 L 10.476563,1.5117187 A 0.50005,0.50005 0 0 0 10,1.1660156 Z M 10,3.2832031 11.492188,7.875 a 0.50005,0.50005 0 0 0 0.474609,0.3457031 h 4.828125 l -3.90625,2.8378909 a 0.50005,0.50005 0 0 0 -0.181641,0.558594 l 1.492188,4.591796 -3.904297,-2.83789 a 0.50005,0.50005 0 0 0 -0.5878907,0 l -3.9062501,2.83789 1.4921875,-4.591796 A 0.50005,0.50005 0 0 0 7.1113281,11.058594 l -3.90625,-2.8378909 h 4.828125 A 0.50005,0.50005 0 0 0 8.5078125,7.875 Z"
         id="path3" />
    </g>
  </g>
</svg>
