<?xml version="1.0" encoding="UTF-8" standalone="no"?>
<svg
   width="16"
   height="17"
   viewBox="0 0 16 17"
   fill="none"
   version="1.1"
   id="svg1"
   sodipodi:docname="star.svg"
   inkscape:version="1.3 (0e150ed6c4, 2023-07-21)"
   xmlns:inkscape="http://www.inkscape.org/namespaces/inkscape"
   xmlns:sodipodi="http://sodipodi.sourceforge.net/DTD/sodipodi-0.dtd"
   xmlns="http://www.w3.org/2000/svg"
   xmlns:svg="http://www.w3.org/2000/svg">
  <defs
     id="defs1" />
  <sodipodi:namedview
     id="namedview1"
     pagecolor="#ffffff"
     bordercolor="#000000"
     borderopacity="0.25"
     inkscape:showpageshadow="2"
     inkscape:pageopacity="0.0"
     inkscape:pagecheckerboard="0"
     inkscape:deskcolor="#d1d1d1"
     inkscape:zoom="48.294118"
     inkscape:cx="8.0030451"
     inkscape:cy="8.5"
     inkscape:window-width="1920"
     inkscape:window-height="1017"
     inkscape:window-x="-8"
     inkscape:window-y="-8"
     inkscape:window-maximized="1"
     inkscape:current-layer="svg1" />
  <path
     style="color:#000000;fill:#000000;fill-opacity:0.95;stroke-linecap:round;stroke-linejoin:round;-inkscape-stroke:none"
     d="M 8,1.015625 A 0.50005,0.50005 0 0 0 7.5253906,1.3613281 L 6.0625,5.859375 H 1.3339844 A 0.50005,0.50005 0 0 0 1.0390625,6.7636719 l 3.8261719,2.78125 -1.4609375,4.4980471 a 0.50005,0.50005 0 0 0 0.7695312,0.558594 L 8,11.820313 l 3.826172,2.78125 a 0.50005,0.50005 0 0 0 0.769531,-0.558594 l -1.460937,-4.4980471 3.826172,-2.78125 A 0.50005,0.50005 0 0 0 14.666016,5.859375 H 9.9375 L 8.4746094,1.3613281 A 0.50005,0.50005 0 0 0 8,1.015625 Z M 8,3.1328125 9.0976563,6.5136719 A 0.50005,0.50005 0 0 0 9.5742188,6.859375 h 3.5546872 l -2.876953,2.0898438 a 0.50005,0.50005 0 0 0 -0.18164,0.5585937 l 1.099609,3.3808595 -2.8769532,-2.089844 a 0.50005,0.50005 0 0 0 -0.5859376,0 L 4.8300781,12.888672 5.9296875,9.5078125 A 0.50005,0.50005 0 0 0 5.7480469,8.9492188 L 2.8710938,6.859375 H 6.4257812 A 0.50005,0.50005 0 0 0 6.9023437,6.5136719 Z"
     id="path1" />
</svg>
