<?xml version="1.0" encoding="UTF-8" standalone="no"?>
<svg
   width="24"
   height="24"
   viewBox="0 0 24 24"
   fill="none"
   version="1.1"
   id="svg1"
   sodipodi:docname="telegram.svg"
   inkscape:version="1.3 (0e150ed6c4, 2023-07-21)"
   xmlns:inkscape="http://www.inkscape.org/namespaces/inkscape"
   xmlns:sodipodi="http://sodipodi.sourceforge.net/DTD/sodipodi-0.dtd"
   xmlns="http://www.w3.org/2000/svg"
   xmlns:svg="http://www.w3.org/2000/svg">
  <defs
     id="defs1" />
  <sodipodi:namedview
     id="namedview1"
     pagecolor="#ffffff"
     bordercolor="#000000"
     borderopacity="0.25"
     inkscape:showpageshadow="2"
     inkscape:pageopacity="0.0"
     inkscape:pagecheckerboard="0"
     inkscape:deskcolor="#d1d1d1"
     inkscape:zoom="34.208333"
     inkscape:cx="12"
     inkscape:cy="12"
     inkscape:window-width="1920"
     inkscape:window-height="1017"
     inkscape:window-x="-8"
     inkscape:window-y="-8"
     inkscape:window-maximized="1"
     inkscape:current-layer="svg1" />
  <path
     style="color:#000000;fill:#f5f5f5;stroke-linecap:round;stroke-linejoin:round;-inkscape-stroke:none"
     d="m 21.123047,4.2597656 a 0.75,0.75 0 0 0 -0.06836,0.048828 0.75,0.75 0 0 0 -0.330078,-0.00586 L 1.7246094,11.802734 a 0.750075,0.750075 0 0 0 0.1699218,1.439454 L 8.25,14.150391 V 19 a 0.750075,0.750075 0 0 0 1.2832031,0.527344 l 2.8085939,-2.832032 5.734375,3.923829 a 0.750075,0.750075 0 0 0 1.164062,-0.496094 l 2.498047,-14.9921876 0.002,-0.00391 a 0.75,0.75 0 0 0 0,-0.00391 0.75,0.75 0 0 0 0,-0.00781 0.75,0.75 0 0 0 -0.002,-0.037109 0.75,0.75 0 0 0 -0.03125,-0.2949219 0.75,0.75 0 0 0 -0.0098,-0.054687 0.75,0.75 0 0 0 0,-0.00391 0.75,0.75 0 0 0 -0.0098,-0.00977 0.75,0.75 0 0 0 -0.02734,-0.037109 0.75,0.75 0 0 0 -0.04883,-0.1113282 0.75,0.75 0 0 0 -0.03516,-0.00586 0.75,0.75 0 0 0 -0.228516,-0.1972657 0.75,0.75 0 0 0 -0.111328,-0.052734 0.75,0.75 0 0 0 -0.113281,-0.050781 z M 19.962891,6.6542969 17.953125,18.716797 10.3125,13.488281 Z M 15.5,7.9765625 8.8105469,12.714844 4.9082031,12.158203 Z M 9.75,14.921875 11.083984,15.833984 9.75,17.177734 Z"
     id="path1" />
</svg>
