<?xml version="1.0" encoding="UTF-8" standalone="no"?>
<svg
   width="16"
   height="17"
   viewBox="0 0 16 17"
   fill="none"
   version="1.1"
   id="svg2"
   sodipodi:docname="telephone.svg"
   inkscape:version="1.3 (0e150ed6c4, 2023-07-21)"
   xmlns:inkscape="http://www.inkscape.org/namespaces/inkscape"
   xmlns:sodipodi="http://sodipodi.sourceforge.net/DTD/sodipodi-0.dtd"
   xmlns="http://www.w3.org/2000/svg"
   xmlns:svg="http://www.w3.org/2000/svg">
  <sodipodi:namedview
     id="namedview2"
     pagecolor="#ffffff"
     bordercolor="#000000"
     borderopacity="0.25"
     inkscape:showpageshadow="2"
     inkscape:pageopacity="0.0"
     inkscape:pagecheckerboard="0"
     inkscape:deskcolor="#d1d1d1"
     inkscape:zoom="48.294118"
     inkscape:cx="8.0030451"
     inkscape:cy="8.5"
     inkscape:window-width="1920"
     inkscape:window-height="1017"
     inkscape:window-x="-8"
     inkscape:window-y="-8"
     inkscape:window-maximized="1"
     inkscape:current-layer="g2" />
  <g
     clip-path="url(#clip0_1396_5680)"
     id="g2">
    <path
       style="color:#000000;fill:#000000;fill-opacity:0.95;stroke-linecap:round;stroke-linejoin:round;-inkscape-stroke:none"
       d="M 4.6660156,2.3652344 C 4.0276035,2.3652344 3.5,2.8928378 3.5,3.53125 v 11.333984 c 0,0.638415 0.5275854,1.166016 1.1660156,1.166016 H 11.333984 C 11.972417,16.03125 12.5,15.503667 12.5,14.865234 V 3.53125 c 0,-0.6384303 -0.527601,-1.1660156 -1.166016,-1.1660156 z m 0,1 h 6.6679684 c 0.09799,0 0.166016,0.068067 0.166016,0.1660156 v 11.333984 c 0,0.09797 -0.06805,0.166016 -0.166016,0.166016 H 4.6660156 C 4.5680666,15.03125 4.5,14.963219 4.5,14.865234 V 3.53125 c 0,-0.097967 0.068048,-0.1660156 0.1660156,-0.1660156 z"
       id="path1" />
    <path
       style="color:#000000;fill:#000000;fill-opacity:0.95;stroke-linecap:round;stroke-linejoin:round;-inkscape-stroke:none"
       d="m 7.6464844,12.511719 a 0.5,0.5 0 0 0 0,0.707031 l 0.011719,0.01172 a 0.5,0.5 0 0 0 0.7070313,-0.002 0.5,0.5 0 0 0 -0.00195,-0.707032 l -0.00977,-0.0098 a 0.5,0.5 0 0 0 -0.7070312,0 z"
       id="path2" />
  </g>
  <defs
     id="defs2">
    <clipPath
       id="clip0_1396_5680">
      <rect
         width="16"
         height="16"
         fill="white"
         transform="translate(0 0.865112)"
         id="rect2" />
    </clipPath>
  </defs>
</svg>
