<?xml version="1.0" encoding="UTF-8" standalone="no"?>
<svg
   width="24"
   height="24"
   viewBox="0 0 24 24"
   fill="none"
   version="1.1"
   id="svg2"
   sodipodi:docname="whatsapp.svg"
   inkscape:version="1.3 (0e150ed6c4, 2023-07-21)"
   xmlns:inkscape="http://www.inkscape.org/namespaces/inkscape"
   xmlns:sodipodi="http://sodipodi.sourceforge.net/DTD/sodipodi-0.dtd"
   xmlns="http://www.w3.org/2000/svg"
   xmlns:svg="http://www.w3.org/2000/svg">
  <defs
     id="defs2" />
  <sodipodi:namedview
     id="namedview2"
     pagecolor="#ffffff"
     bordercolor="#000000"
     borderopacity="0.25"
     inkscape:showpageshadow="2"
     inkscape:pageopacity="0.0"
     inkscape:pagecheckerboard="0"
     inkscape:deskcolor="#d1d1d1"
     inkscape:zoom="34.208333"
     inkscape:cx="12"
     inkscape:cy="12"
     inkscape:window-width="1920"
     inkscape:window-height="1017"
     inkscape:window-x="-8"
     inkscape:window-y="-8"
     inkscape:window-maximized="1"
     inkscape:current-layer="svg2" />
  <path
     style="color:#000000;fill:#f5f5f5;stroke-linecap:round;stroke-linejoin:round;stroke-miterlimit:10;-inkscape-stroke:none"
     d="M 12,1.25 C 6.090915,1.25 1.25,6.090915 1.25,12 c 0,1.819855 0.5028276,3.519836 1.2636719,5.041016 l -0.7988282,3.076171 c -0.077609,0.298577 -0.074964,0.612952 0.00781,0.910157 0.082794,0.297331 0.2422306,0.567788 0.4628907,0.783203 0.2208537,0.215586 0.4955847,0.367903 0.7949219,0.443359 0.2989024,0.07516 0.6124183,0.07095 0.9082031,-0.01367 L 6.8613281,21.390625 C 8.4121158,22.244569 10.189536,22.75 12,22.75 17.909085,22.75 22.75,17.909085 22.75,12 22.75,6.090915 17.909085,1.25 12,1.25 Z m 0,1.5 c 5.090904,0 9.25,4.159096 9.25,9.25 0,5.090904 -4.159096,9.25 -9.25,9.25 -1.661109,0 -3.3367436,-0.466109 -4.7148438,-1.292969 a 0.750075,0.750075 0 0 0 -0.5917968,-0.07813 l -3.2167969,0.917969 a 0.750075,0.750075 0 0 0 0,0.002 c -0.042639,0.0122 -0.08643,0.01269 -0.1289062,0.002 a 0.750075,0.750075 0 0 0 -0.00195,0 c -0.042623,-0.01074 -0.081715,-0.03364 -0.1132812,-0.06445 -0.03174,-0.03099 -0.052627,-0.06886 -0.064453,-0.111328 -0.011863,-0.04259 -0.013084,-0.08804 -0.00195,-0.130859 l 0.859375,-3.304688 A 0.750075,0.750075 0 0 0 3.9609375,16.646484 C 3.2106024,15.239606 2.75,13.661109 2.75,12 2.75,6.909096 6.909096,2.75 12,2.75 Z"
     id="path1" />
  <path
     style="color:#000000;fill:#f5f5f5;stroke-miterlimit:10;-inkscape-stroke:none"
     d="M 9.1171875,6.75 C 8.5771932,6.75 8.0551934,6.9992392 7.6601562,7.3867187 7.3525562,7.6785026 7.1135224,8.0218108 6.9648437,8.4003906 6.8205789,8.7624512 6.75,9.1500315 6.75,9.5429688 6.75,10.1256 6.8856729,10.715443 7.1328125,11.304688 l 0.00195,0.0059 0.00195,0.0059 c 0.2593223,0.593112 0.5836238,1.154028 0.9667969,1.675782 0.4036315,0.551994 0.8478454,1.071909 1.3300782,1.55664 l 0.00195,0.002 0.00195,0.002 c 0.4870877,0.482856 1.008687,0.927489 1.5625,1.332032 0.526322,0.387847 1.095534,0.714563 1.695313,0.974609 l 0.002,0.002 0.0039,0.002 C 13.295459,17.115195 13.8855,17.25 14.462891,17.25 c 0.404968,0 0.799705,-0.0758 1.162109,-0.226563 l 0.002,-0.002 c 0.383391,-0.15745 0.725862,-0.406584 1.009766,-0.71875 0.173968,-0.191602 0.317594,-0.408638 0.427734,-0.642578 C 17.188334,15.399525 17.25,15.120767 17.25,14.847656 v -0.002 -0.002 c -0.0015,-0.218891 -0.04633,-0.435444 -0.130859,-0.636719 l -0.0039,-0.01172 -0.0059,-0.01172 c -0.113107,-0.24594 -0.292696,-0.454046 -0.519531,-0.601563 l -1.472656,-1.044922 -0.0039,-0.0039 c -0.140865,-0.09685 -0.286334,-0.179055 -0.443359,-0.24414 -5.92e-4,-2.56e-4 -0.0014,2.55e-4 -0.002,0 -0.17719,-0.07639 -0.366262,-0.118251 -0.558594,-0.121094 h -0.0078 -0.0078 c -0.24676,0.0011 -0.484954,0.07641 -0.695312,0.205078 -0.180656,0.100848 -0.333517,0.219513 -0.472657,0.357422 l -0.06836,0.06836 c -0.07546,-0.0533 -0.118789,-0.0745 -0.220703,-0.160156 l -0.002,-0.002 C 12.419374,12.453655 12.201151,12.250805 11.96875,12.023438 l -0.0039,-0.0059 c -0.0018,-0.0017 -0.0041,-0.0022 -0.0059,-0.0039 -0.2144,-0.218596 -0.415631,-0.441175 -0.607421,-0.662109 l -0.0039,-0.0059 c -0.08496,-0.100304 -0.10254,-0.139034 -0.15625,-0.21289 l 0.05664,-0.06055 c 0.140684,-0.136225 0.263488,-0.292592 0.365234,-0.460938 0.133907,-0.212502 0.208056,-0.457613 0.210938,-0.7089842 v -0.00391 -0.00391 c 0,-0.217968 -0.0515,-0.3977279 -0.121094,-0.5625 -0.0686,-0.16747 -0.159272,-0.3173607 -0.261719,-0.4609375 v -0.00195 L 10.398438,7.4023437 C 10.240953,7.17764 10.022047,7.0058729 9.7988281,6.9023437 9.5801027,6.7992431 9.3476735,6.75 9.1171875,6.75 Z m 0,1.5 c 0.018857,0 0.037913,0.0054 0.042969,0.00781 l 0.00391,0.00195 0.00391,0.00195 c 0,0 0.00195,0.00195 0.00195,0.00195 l 0.00195,0.00195 1.048828,1.4746094 c 0.0461,0.064534 0.06589,0.1026765 0.08008,0.1328125 -0.02918,0.042353 -0.05826,0.084837 -0.0957,0.1210937 l -0.0098,0.00977 -0.3339849,0.347657 c -0.0997,0.0972 -0.1775926,0.214489 -0.2285156,0.341796 -0.049542,0.123856 -0.071531,0.256778 -0.068359,0.390625 0.0018,0.100308 0.015707,0.199545 0.033203,0.269532 l 0.00977,0.03711 0.013672,0.03516 c 0.030736,0.08511 0.046649,0.126276 0.029297,0.07422 l 0.019531,0.06055 0.03125,0.05664 c 0.1248215,0.23248 0.2894271,0.450236 0.5078121,0.707031 l 0.0039,0.002 0.002,0.0039 c 0.20992,0.241977 0.435377,0.491681 0.683594,0.744141 l 0.0059,0.0059 0.0059,0.0039 c 0.250877,0.245736 0.49718,0.479503 0.75586,0.699219 l 0.002,0.002 c 0.261095,0.219811 0.487038,0.382384 0.71289,0.501953 l 0.02149,0.01172 0.130859,0.05859 0.0293,0.0098 c 0.116885,0.04167 0.23955,0.05941 0.363281,0.05859 0.131347,5.69e-4 0.264355,-0.02251 0.388672,-0.07422 h 0.002 c 0.128242,-0.05373 0.243825,-0.133614 0.337891,-0.232422 l 0.326172,-0.322266 c 0.07184,-0.0712 0.119529,-0.101013 0.136719,-0.111328 0.0354,0.01605 0.07962,0.03802 0.146484,0.08398 l 1.478516,1.050782 c 0.002,0.0098 0.0075,0.01935 0.0078,0.0293 -2.22e-4,0.05042 -0.01122,0.105289 -0.04102,0.167969 v 0.002 c -0.04691,0.09992 -0.109572,0.191913 -0.183593,0.273438 -0.157472,0.173147 -0.301172,0.273187 -0.46875,0.341797 l -0.002,0.002 h -0.0039 C 14.874725,15.710401 14.685827,15.75 14.462891,15.75 c -0.340865,0 -0.730955,-0.07959 -1.171875,-0.265625 l -0.0059,-0.002 c -0.494751,-0.215007 -0.962438,-0.486585 -1.396484,-0.806641 h -0.002 l -0.002,-0.002 C 11.392723,14.314407 10.928946,13.919027 10.496094,13.490234 10.067247,13.059166 9.6713878,12.596273 9.3125,12.105469 8.9957767,11.674198 8.7283564,11.208964 8.5136719,10.71875 8.3308002,10.280747 8.25,9.8925539 8.25,9.5429688 8.25,9.3252043 8.2866559,9.13004 8.3574219,8.953125 l 0.00195,-0.00195 v -0.00195 C 8.4253212,8.7813002 8.5290521,8.6252713 8.6953125,8.46875 l 0.00586,-0.00586 0.00586,-0.00586 C 8.8874686,8.2790999 8.9912715,8.25 9.1171875,8.25 Z"
     id="path2" />
</svg>
