<svg width="20" height="20" viewBox="0 0 20 20" fill="none" xmlns="http://www.w3.org/2000/svg">
<path fill-rule="evenodd" clip-rule="evenodd" d="M3.63666 3.63636C3.92956 3.34346 4.40443 3.34346 4.69732 3.63636L10.0003 8.93936L15.3033 3.63636C15.5962 3.34346 16.0711 3.34346 16.364 3.63636C16.6569 3.92925 16.6569 4.40412 16.364 4.69702L11.061 10L16.364 15.303C16.6569 15.5959 16.6569 16.0708 16.364 16.3637C16.0711 16.6566 15.5962 16.6566 15.3033 16.3637L10.0003 11.0607L4.69732 16.3637C4.40443 16.6566 3.92956 16.6566 3.63666 16.3637C3.34377 16.0708 3.34377 15.5959 3.63666 15.303L8.93967 10L3.63666 4.69702C3.34377 4.40412 3.34377 3.92925 3.63666 3.63636Z" fill="#9F9A9A"/>
<path fill-rule="evenodd" clip-rule="evenodd" d="M3.63666 3.63636C3.92956 3.34346 4.40443 3.34346 4.69732 3.63636L10.0003 8.93936L15.3033 3.63636C15.5962 3.34346 16.0711 3.34346 16.364 3.63636C16.6569 3.92925 16.6569 4.40412 16.364 4.69702L11.061 10L16.364 15.303C16.6569 15.5959 16.6569 16.0708 16.364 16.3637C16.0711 16.6566 15.5962 16.6566 15.3033 16.3637L10.0003 11.0607L4.69732 16.3637C4.40443 16.6566 3.92956 16.6566 3.63666 16.3637C3.34377 16.0708 3.34377 15.5959 3.63666 15.303L8.93967 10L3.63666 4.69702C3.34377 4.40412 3.34377 3.92925 3.63666 3.63636Z" fill="black" fill-opacity="0.2"/>
</svg>
